SplineFontDB: 3.0
FontName: NovaFlat
FullName: NovaFlat
FamilyName: NovaFlat
Weight: Regular
Copyright: wmk69 (wmk69@o2.pl)\nSIL Open Font License v.1.1
Version: 1.22
ItalicAngle: 0
UnderlinePosition: -81
UnderlineWidth: 122
Ascent: 1511
Descent: 537
LayerCount: 2
Layer: 0 1 "Warstwa t+AUIA-a"  1
Layer: 1 1 "Plan pierwszy"  0
XUID: [1021 783 23647091 15794537]
FSType: 0
OS2Version: 3
OS2_WeightWidthSlopeOnly: 0
OS2_UseTypoMetrics: 1
CreationTime: 1260698820
ModificationTime: 1306680404
PfmFamily: 33
TTFWeight: 500
TTFWidth: 5
LineGap: 0
VLineGap: 0
Panose: 2 12 6 4 2 2 2 8 2 4
OS2TypoAscent: 2077
OS2TypoAOffset: 0
OS2TypoDescent: -534
OS2TypoDOffset: 0
OS2TypoLinegap: 0
OS2WinAscent: 2077
OS2WinAOffset: 0
OS2WinDescent: 534
OS2WinDOffset: 0
HheadAscent: 2077
HheadAOffset: 0
HheadDescent: -534
HheadDOffset: 0
OS2SubXSize: 1434
OS2SubYSize: 1331
OS2SubXOff: 0
OS2SubYOff: 287
OS2SupXSize: 1434
OS2SupYSize: 1331
OS2SupXOff: 0
OS2SupYOff: 977
OS2StrikeYSize: 102
OS2StrikeYPos: 512
OS2Vendor: '    '
OS2CodePages: 20000093.00000000
OS2UnicodeRanges: 8000002f.4000204b.00000000.00000000
Lookup: 258 0 0 "'kern' Kerning poziomy w tablicy 0"  {"Podtablica 'kern' Kerning poziomy w tablicy 0"  } ['kern' ('DFLT' <'dflt' > 'grek' <'dflt' > 'latn' <'dflt' > ) ]
DEI: 91125
KernClass2: 28 18 "Podtablica 'kern' Kerning poziomy w tablicy 0" 
 352 A C G M N O Q S Agrave Aacute Acircumflex Atilde Adieresis Aring Ccedilla Ntilde Ograve Oacute Ocircumflex Otilde Odieresis Oslash Amacron Abreve Aogonek Cacute Ccircumflex Cdotaccent Ccaron Gcircumflex Gbreve Gdotaccent Gcommaaccent Nacute Ncommaaccent Ncaron Eng Omacron Obreve Ohungarumlaut OE Sacute Scircumflex Scedilla Scaron uni01E4 Scommaaccent
 12 B germandbls
 19 D Eth Dcaron Dcroat
 83 E F AE Egrave Eacute Ecircumflex Edieresis Emacron Ebreve Edotaccent Eogonek Ecaron

StartChar: .notdef
Encoding: 65536 -1 0
Width: 844
Flags: W
HStem: 0 68<218 626> 1297 68<218 626>
VStem: 150 68<68 1297> 626 68<68 1297>
LayerCount: 2
Fore
SplineSet
150 0 m 1,0,-1
 150 1365 l 1,1,-1
 694 1365 l 1,2,-1
 694 0 l 1,3,-1
 150 0 l 1,0,-1
218 68 m 1,4,-1
 626 68 l 1,5,-1
 626 1297 l 1,6,-1
 218 1297 l 1,7,-1
 218 68 l 1,4,-1
EndSplineSet
Validated: 1
EndChar

StartChar: exclam
Encoding: 33 33 4
Width: 600
GlyphClass: 2
Flags: W
HStem: 0 264<209.191 390.809> 1491 20G<353.556 398>
VStem: 170 260<39.7072 224.293> 200 198<404 1421>
LayerCount: 2
Fore
SplineSet
170 132 m 128,-1,1
 170 187 170 187 208 225.5 c 128,-1,2
 246 264 246 264 300 264 c 128,-1,3
 354 264 354 264 392 225.5 c 128,-1,4
 430 187 430 187 430 132 c 128,-1,5
 430 77 430 77 392 38.5 c 128,-1,6
 354 0 354 0 300 0 c 128,-1,7
 246 0 246 0 208 38.5 c 128,-1,0
 170 77 170 77 170 132 c 128,-1,1
198 1421 m 1,8,-1
 398 1511 l 1,9,-1
 398 404 l 1,10,-1
 200 312 l 1,11,-1
 198 1421 l 1,8,-1
EndSplineSet
Validated: 16385
EndChar

StartChar: quotedbl
Encoding: 34 34 5
Width: 839
GlyphClass: 2
Flags: W
HStem: 950 562
VStem: 152 198<1028 1433> 491 198<1029 1434>
LayerCount: 2
Fore
SplineSet
687 1512 m 1,0,-1
 689 1029 l 1,1,-1
 491 950 l 1,2,-1
 489 1434 l 1,3,-1
 687 1512 l 1,0,-1
348 1511 m 1,4,-1
 350 1028 l 1,5,-1
 152 949 l 1,6,-1
 150 1433 l 1,7,-1
 348 1511 l 1,4,-1
EndSplineSet
Validated: 16385
EndChar

StartChar: numbersign
Encoding: 35 35 6
Width: 1355
GlyphClass: 2
Flags: W
HStem: 493 198<241 416 614 742 940 1113> 819 198<240 415 613 741 939 1112>
VStem: 416 198<318 493 691 819 1017 1190> 742 198<317 492 690 818 1016 1189>
LayerCount: 2
Fore
SplineSet
614 318 m 1,0,-1
 416 228 l 1,1,-1
 416 493 l 1,2,-1
 151 493 l 1,3,-1
 241 691 l 1,4,-1
 416 691 l 1,5,-1
 415 819 l 1,6,-1
 150 819 l 1,7,-1
 240 1017 l 1,8,-1
 415 1017 l 1,9,-1
 415 1190 l 1,10,-1
 613 1282 l 1,11,-1
 613 1017 l 1,12,-1
 741 1016 l 1,13,-1
 741 1189 l 1,14,-1
 939 1281 l 1,15,-1
 939 1016 l 1,16,-1
 1204 1016 l 1,17,-1
 1112 818 l 1,18,-1
 939 818 l 1,19,-1
 940 690 l 1,20,-1
 1205 690 l 1,21,-1
 1113 492 l 1,22,-1
 940 492 l 1,23,-1
 940 317 l 1,24,-1
 742 227 l 1,25,-1
 742 492 l 1,26,-1
 614 493 l 1,27,-1
 614 318 l 1,0,-1
614 691 m 1,28,-1
 742 690 l 1,29,-1
 741 818 l 1,30,-1
 613 819 l 1,31,-1
 614 691 l 1,28,-1
EndSplineSet
Validated: 16385
EndChar

StartChar: dollar
Encoding: 36 36 7
Width: 1268
GlyphClass: 2
Flags: W
HStem: 4 194<696 818.773>
VStem: 130 198<280.666 514> 184 191<1005.44 1274.44> 499 197<-96 11.1924 215 709 978 1310 1491.45 1604> 808 194<1088 1270.79> 918 200<277.017 638.953>
DStem2: 499 978 345 830 0.945766 -0.32485<-142.216 0 273.7 518.121>
LayerCount: 2
Fore
SplineSet
180 1272 m 1,0,1
 180 1350 180 1350 330 1436 c 0,2,3
 415 1485 415 1485 499 1503 c 1,4,-1
 499 1604 l 1,5,-1
 697 1693 l 1,6,-1
 697 1501 l 1,7,8
 781 1483 781 1483 870 1430 c 0,9,10
 1002 1351 1002 1351 1002 1280 c 2,11,-1
 1002 1088 l 1,12,-1
 808 1032 l 1,13,-1
 808 1111 l 1,14,-1
 808 1218 l 2,15,16
 808 1240 808 1240 745 1284 c 0,17,18
 722 1300 722 1300 697 1310 c 1,19,-1
 697 916 l 1,20,21
 884 855 884 855 975 810 c 0,22,23
 1106 745 1106 745 1115 651 c 1,24,-1
 1118 262 l 2,25,26
 1118 204 1118 204 980 115 c 0,27,28
 835 21 835 21 696 4 c 1,29,-1
 696 -96 l 1,30,-1
 499 -188 l 1,31,-1
 499 17 l 1,32,33
 389 43 389 43 274 112 c 0,34,35
 130 198 130 198 130 266 c 2,36,-1
 131 514 l 1,37,-1
 331 608 l 1,38,-1
 328 356 l 2,39,40
 328 300 328 300 412 254 c 0,41,42
 456 230 456 230 499 215 c 1,43,-1
 499 777 l 1,44,-1
 345 830 l 1,45,46
 184 880 184 880 184 971 c 2,47,-1
 184 972 l 1,48,-1
 180 1272 l 1,0,1
696 709 m 1,49,-1
 696 198 l 1,50,51
 763 210 763 210 828 247 c 0,52,53
 918 298 918 298 918 346 c 2,54,-1
 918 557 l 1,55,56
 917 636 917 636 805 672 c 1,57,-1
 696 709 l 1,49,-1
499 978 m 1,58,-1
 499 1316 l 1,59,60
 467 1306 467 1306 440 1289 c 0,61,62
 374 1247 374 1247 374 1225 c 2,63,-1
 375 1069 l 2,64,65
 375 1015 375 1015 453 992 c 2,66,-1
 499 978 l 1,58,-1
EndSplineSet
Validated: 16385
EndChar

StartChar: percent
Encoding: 37 37 8
Width: 1732
GlyphClass: 2
Flags: W
HStem: 0 139<1130.62 1418.78> 521 130<1131.62 1414.63> 861 139<316.618 604.777> 1382 130<317.618 600.633>
VStem: 150 147<1030.04 1351.96> 619 149<1055.03 1354.5> 964 147<169.039 490.961> 1433 149<194.033 493.5>
DStem2: 319 -135 498 -219 0.435903 0.899994<2.42717 1984.44>
LayerCount: 2
Fore
SplineSet
1433 204 m 2,0,-1
 1433 455 l 2,1,2
 1433 458 1433 458 1431 461 c 0,3,4
 1419 478 1419 478 1387 494 c 0,5,6
 1332 521 1332 521 1277 521 c 2,7,-1
 1274 521 l 2,8,9
 1215 521 1215 521 1153 490 c 0,10,11
 1111 469 1111 469 1111 450 c 2,12,-1
 1111 209 l 2,13,14
 1111 191 1111 191 1153 170 c 0,15,16
 1216 139 1216 139 1274 139 c 2,17,-1
 1277 139 l 2,18,19
 1319 139 1319 139 1384 165 c 0,20,21
 1415 177 1415 177 1432 194 c 0,22,23
 1433 195 1433 195 1433 204 c 2,0,-1
1278 0 m 1,24,25
 1170 1 1170 1 1057 60 c 0,26,27
 973 104 973 104 965 142 c 0,28,29
 964 147 964 147 964 151 c 2,30,-1
 964 499 l 2,31,32
 964 505 964 505 965 508 c 0,33,34
 977 550 977 550 1057 591 c 0,35,36
 1173 651 1173 651 1275 651 c 2,37,-1
 1278 651 l 2,38,39
 1384 651 1384 651 1492 589 c 0,40,41
 1561 549 1561 549 1578 515 c 0,42,43
 1582 507 1582 507 1582 499 c 2,44,-1
 1582 151 l 2,45,46
 1582 141 1582 141 1581 138 c 0,47,48
 1570 106 1570 106 1492 59 c 0,49,50
 1393 0 1393 0 1278 0 c 1,24,25
619 1065 m 2,51,-1
 619 1316 l 2,52,53
 619 1319 619 1319 617 1322 c 0,54,55
 605 1339 605 1339 573 1355 c 0,56,57
 518 1382 518 1382 463 1382 c 2,58,-1
 460 1382 l 2,59,60
 401 1382 401 1382 339 1351 c 0,61,62
 297 1330 297 1330 297 1311 c 2,63,-1
 297 1070 l 2,64,65
 297 1052 297 1052 339 1031 c 0,66,67
 402 1000 402 1000 460 1000 c 2,68,-1
 463 1000 l 2,69,70
 505 1000 505 1000 570 1026 c 0,71,72
 601 1038 601 1038 618 1055 c 0,73,74
 619 1056 619 1056 619 1065 c 2,51,-1
464 861 m 1,75,76
 356 862 356 862 243 921 c 0,77,78
 159 965 159 965 151 1003 c 0,79,80
 150 1008 150 1008 150 1012 c 2,81,-1
 150 1360 l 2,82,83
 150 1366 150 1366 151 1369 c 0,84,85
 163 1411 163 1411 243 1452 c 0,86,87
 359 1512 359 1512 461 1512 c 2,88,-1
 464 1512 l 2,89,90
 570 1512 570 1512 678 1450 c 0,91,92
 747 1410 747 1410 764 1376 c 0,93,94
 768 1368 768 1368 768 1360 c 2,95,-1
 768 1012 l 2,96,97
 768 1002 768 1002 767 999 c 0,98,99
 756 967 756 967 678 920 c 0,100,101
 579 861 579 861 464 861 c 1,75,76
319 -135 m 1,102,-1
 1184 1651 l 1,103,-1
 1364 1569 l 1,104,-1
 498 -219 l 1,105,-1
 319 -135 l 1,102,-1
EndSplineSet
Validated: 1
EndChar

StartChar: ampersand
Encoding: 38 38 9
Width: 1657
GlyphClass: 2
Flags: W
HStem: 0 21G<1290.96 1349.15> 743 190<581.609 675> 1305 190<584.125 949>
VStem: 150 205<293.182 657.983> 266 205<1017.93 1217.99>
DStem2: 773 932 675 744 0.645415 -0.763832<80.3497 418.978 639.382 1057.19> 678 205 767 17 0.669964 0.742393<0 324.408 551.598 970.76>
LayerCount: 2
Fore
SplineSet
773 932 m 1,0,-1
 1047 615 l 1,1,-1
 1338 917 l 1,2,-1
 1507 837 l 1,3,-1
 1166 471 l 1,4,-1
 1487 87 l 1,5,-1
 1308 0 l 1,6,-1
 1037 318 l 1,7,-1
 767 17 l 1,8,-1
 634 19 l 2,9,10
 462 22 462 22 288 134 c 0,11,12
 150 223 150 223 150 281 c 2,13,-1
 150 670 l 2,14,15
 150 730 150 730 288 817 c 0,16,17
 337 848 337 848 385 871 c 1,18,19
 266 952 266 952 266 1006 c 2,20,21
 266 1006 266 1006 268 1233 c 0,22,23
 269 1303 269 1303 406 1380 c 0,24,25
 611 1494 611 1494 752 1495 c 2,26,-1
 1032 1496 l 1,27,-1
 949 1306 l 1,28,-1
 764 1305 l 1,29,-1
 755 1305 l 2,30,31
 657 1305 657 1305 563 1250 c 0,32,33
 474 1198 474 1198 473 1151 c 2,34,-1
 471 1087 l 1,35,-1
 471 1086 l 2,36,37
 471 1039 471 1039 561 988 c 0,38,39
 658 933 658 933 704 933 c 2,40,-1
 773 932 l 1,0,-1
675 744 m 1,41,-1
 641 743 l 2,42,43
 537 740 537 740 445 688 c 0,44,45
 355 637 355 637 355 589 c 2,46,-1
 355 363 l 2,47,48
 355 313 355 313 445 264 c 1,49,50
 525 222 525 222 641 209 c 2,51,-1
 678 205 l 1,52,-1
 918 471 l 1,53,-1
 675 744 l 1,41,-1
EndSplineSet
Validated: 16385
EndChar

StartChar: quotesingle
Encoding: 39 39 10
Width: 500
GlyphClass: 2
Flags: W
HStem: 949 562
VStem: 152 198<1028 1433>
LayerCount: 2
Fore
SplineSet
348 1511 m 1,0,-1
 350 1028 l 1,1,-1
 152 949 l 1,2,-1
 150 1433 l 1,3,-1
 348 1511 l 1,0,-1
EndSplineSet
Validated: 1
EndChar

StartChar: parenleft
Encoding: 40 40 11
Width: 740
GlyphClass: 2
Flags: W
VStem: 150 189<355.591 1077.12>
DStem2: 360 1537 546 1477 0.467888 0.883788<-395.514 235.16> 546 -48 360 -108 0.480011 -0.877262<-399.366 205.015>
LayerCount: 2
Fore
SplineSet
150 714 m 0,0,1
 150 940 150 940 217 1192 c 0,2,3
 259 1348 259 1348 360 1537 c 0,4,5
 387 1588 387 1588 387 1588 c 1,6,7
 414 1636 414 1636 480 1744 c 1,8,-1
 660 1659 l 1,9,10
 588 1566 588 1566 570 1528 c 1,11,12
 567 1514 567 1514 546 1477 c 0,13,14
 475 1352 475 1352 402 1138 c 0,15,16
 339 953 339 953 339 717 c 0,17,18
 339 497 339 497 402 291 c 0,19,20
 454 121 454 121 546 -48 c 0,21,22
 566 -85 566 -85 570 -99 c 1,23,24
 579 -118 579 -118 651 -237 c 1,25,-1
 476 -320 l 1,26,27
 408 -202 408 -202 387 -159 c 0,28,29
 383 -151 383 -151 360 -108 c 0,30,31
 275 50 275 50 217 238 c 0,32,33
 150 453 150 453 150 714 c 0,0,1
EndSplineSet
Validated: 16385
EndChar

StartChar: parenright
Encoding: 41 41 12
Width: 740
GlyphClass: 2
Flags: W
VStem: 401 189<355.591 1077.12>
DStem2: 89 -237 264 -320 0.480011 0.877262<11.1892 622.114> 353 1588 170 1528 0.467888 -0.883788<-177.454 445.27>
LayerCount: 2
Fore
SplineSet
590 714 m 0,0,1
 590 453 590 453 523 238 c 0,2,3
 465 50 465 50 380 -108 c 0,4,5
 357 -151 357 -151 353 -159 c 0,6,7
 332 -202 332 -202 264 -320 c 1,8,-1
 89 -237 l 1,9,10
 161 -118 161 -118 170 -99 c 1,11,12
 174 -85 174 -85 194 -48 c 0,13,14
 286 121 286 121 338 291 c 0,15,16
 401 497 401 497 401 717 c 0,17,18
 401 953 401 953 338 1138 c 0,19,20
 265 1352 265 1352 194 1477 c 0,21,22
 173 1514 173 1514 170 1528 c 1,23,24
 152 1566 152 1566 80 1659 c 1,25,-1
 260 1744 l 1,26,27
 326 1636 326 1636 353 1588 c 1,28,29
 353 1588 353 1588 380 1537 c 0,30,31
 481 1348 481 1348 523 1192 c 0,32,33
 590 940 590 940 590 714 c 0,0,1
EndSplineSet
Validated: 16385
EndChar

StartChar: asterisk
Encoding: 42 42 13
Width: 1198
GlyphClass: 2
Flags: W
HStem: 1492 20G<654.957 698>
VStem: 500 198<679 879 1222 1420>
DStem2: 329 1321 150 1196 0.865645 -0.500658<0 197.59 540.8 740.536> 150 905 327 779 0.865645 0.500658<90.1364 289.872 633.082 831.538>
LayerCount: 2
Fore
SplineSet
698 679 m 1,0,-1
 500 589 l 1,1,-1
 500 879 l 1,2,-1
 327 779 l 1,3,-1
 150 905 l 1,4,-1
 401 1050 l 1,5,-1
 150 1196 l 1,6,-1
 329 1321 l 1,7,-1
 500 1222 l 1,8,-1
 500 1420 l 1,9,-1
 698 1512 l 1,10,-1
 698 1222 l 1,11,-1
 870 1321 l 1,12,-1
 1048 1196 l 1,13,-1
 797 1050 l 1,14,-1
 1048 905 l 1,15,-1
 871 779 l 1,16,-1
 698 879 l 1,17,-1
 698 679 l 1,0,-1
EndSplineSet
Validated: 16385
EndChar

StartChar: plus
Encoding: 43 43 14
Width: 1083
GlyphClass: 2
Flags: W
HStem: 600 198<170 442 640 911>
VStem: 442 198<328 600 798 1068>
LayerCount: 2
Fore
SplineSet
640 328 m 1,0,-1
 442 238 l 1,1,-1
 442 600 l 1,2,-1
 80 600 l 1,3,-1
 170 798 l 1,4,-1
 442 798 l 1,5,-1
 442 1068 l 1,6,-1
 640 1160 l 1,7,-1
 640 798 l 1,8,-1
 1003 798 l 1,9,-1
 911 600 l 1,10,-1
 640 600 l 1,11,-1
 640 328 l 1,0,-1
EndSplineSet
Validated: 1
EndChar

StartChar: comma
Encoding: 44 44 15
Width: 608
GlyphClass: 2
Flags: W
HStem: -262 542
VStem: 110 348
DStem2: 110 -177 299 -262 0.328601 0.944469<0 464.751>
LayerCount: 2
Fore
SplineSet
299 -262 m 1,0,-1
 110 -177 l 1,1,-1
 269 280 l 1,2,-1
 458 194 l 1,3,-1
 299 -262 l 1,0,-1
EndSplineSet
Validated: 16385
EndChar

StartChar: hyphen
Encoding: 45 45 16
Width: 1083
GlyphClass: 2
Flags: W
HStem: 600 198<170 911>
LayerCount: 2
Fore
SplineSet
170 798 m 1,0,-1
 1003 798 l 1,1,-1
 911 600 l 1,2,-1
 80 600 l 1,3,-1
 170 798 l 1,0,-1
EndSplineSet
Validated: 1
EndChar

StartChar: period
Encoding: 46 46 17
Width: 560
GlyphClass: 2
Flags: W
HStem: 0 264<189.191 370.809>
VStem: 150 260<39.7072 224.293>
LayerCount: 2
Fore
SplineSet
150 132 m 128,-1,1
 150 187 150 187 188 225.5 c 128,-1,2
 226 264 226 264 280 264 c 128,-1,3
 334 264 334 264 372 225.5 c 128,-1,4
 410 187 410 187 410 132 c 128,-1,5
 410 77 410 77 372 38.5 c 128,-1,6
 334 0 334 0 280 0 c 128,-1,7
 226 0 226 0 188 38.5 c 128,-1,0
 150 77 150 77 150 132 c 128,-1,1
EndSplineSet
Validated: 1
EndChar

StartChar: slash
Encoding: 47 47 18
Width: 1065
GlyphClass: 2
Flags: W
DStem2: 10 -132 189 -216 0.435903 0.899994<2.42717 1984.44>
LayerCount: 2
Fore
SplineSet
10 -132 m 1,0,-1
 875 1654 l 1,1,-1
 1055 1572 l 1,2,-1
 189 -216 l 1,3,-1
 10 -132 l 1,0,-1
EndSplineSet
Validated: 1
EndChar

StartChar: zero
Encoding: 48 48 19
Width: 1287
GlyphClass: 2
Flags: W
HStem: 0 192<466.044 823.5> 1320 192<469.464 824.5>
VStem: 150 197<281.07 1230.93> 937 200<277.017 1234.98>
LayerCount: 2
Fore
SplineSet
937 346 m 2,0,1
 937 346 937 346 937 1166 c 0,2,3
 937 1214 937 1214 847 1265 c 0,4,5
 750 1320 750 1320 651 1320 c 0,6,7
 648 1320 648 1320 646 1320 c 0,8,9
 544 1320 544 1320 431 1258 c 0,10,11
 347 1211 347 1211 347 1156 c 2,12,-1
 347 356 l 2,13,14
 347 301 347 301 431 254 c 0,15,16
 544 192 544 192 646 192 c 0,17,18
 648 192 648 192 651 192 c 0,19,20
 750 192 750 192 847 247 c 0,21,22
 937 298 937 298 937 346 c 2,0,1
653 0 m 0,23,24
 480 0 480 0 293 112 c 0,25,26
 150 198 150 198 150 262 c 2,27,-1
 150 1250 l 2,28,29
 150 1314 150 1314 293 1400 c 0,30,31
 480 1512 480 1512 647 1512 c 0,32,33
 650 1512 650 1512 653 1512 c 0,34,35
 823 1512 823 1512 999 1397 c 0,36,37
 1137 1307 1137 1307 1137 1250 c 2,38,-1
 1137 262 l 2,39,40
 1137 204 1137 204 999 115 c 0,41,42
 821 0 821 0 653 0 c 0,23,24
EndSplineSet
Validated: 16385
EndChar

StartChar: one
Encoding: 49 49 20
Width: 772
GlyphClass: 2
Flags: W
HStem: 0 21G<323.902 367.043> 1491 20G<477.478 522>
VStem: 324 198<92 1223>
DStem2: 10 1281 92 1113 0.912188 0.409772<5.95773 257.187>
LayerCount: 2
Fore
SplineSet
522 92 m 1,0,-1
 324 0 l 1,1,-1
 318 1223 l 1,2,-1
 92 1113 l 1,3,-1
 10 1281 l 1,4,-1
 522 1511 l 1,5,-1
 522 92 l 1,0,-1
EndSplineSet
Validated: 1
EndChar

StartChar: two
Encoding: 50 50 21
Width: 1358
GlyphClass: 2
Flags: W
HStem: 20 199<396 1116> 1319 192<467.044 824.5>
VStem: 150 198<1082 1230.41> 204 191<219 505.562> 938 197<872.047 1233.57>
LayerCount: 2
Fore
SplineSet
396 219 m 1,0,-1
 1208 216 l 1,1,-1
 1116 20 l 1,2,-1
 202 20 l 1,3,-1
 204 539 l 1,4,-1
 204 540 l 2,5,6
 204 631 204 631 365 681 c 1,7,-1
 825 839 l 1,8,9
 937 875 937 875 938 954 c 1,10,-1
 938 1165 l 2,11,12
 938 1212 938 1212 848 1264 c 0,13,14
 752 1319 752 1319 652 1319 c 0,15,16
 650 1319 650 1319 647 1319 c 0,17,18
 545 1319 545 1319 432 1257 c 0,19,20
 348 1211 348 1211 348 1156 c 2,21,22
 348 1155 l 2,23,-1
 349 1082 l 1,24,-1
 151 997 l 1,25,-1
 150 1245 l 2,26,27
 150 1313 150 1313 294 1399 c 0,28,29
 482 1511 482 1511 654 1511 c 0,30,31
 822 1511 822 1511 1000 1396 c 0,32,33
 1138 1307 1138 1307 1138 1249 c 2,34,-1
 1135 860 l 1,35,36
 1126 766 1126 766 995 701 c 0,37,38
 853 631 853 631 473 519 c 0,39,40
 395 496 395 496 395 442 c 2,41,-1
 396 219 l 1,0,-1
EndSplineSet
Validated: 16385
EndChar

StartChar: three
Encoding: 51 51 22
Width: 1288
GlyphClass: 2
Flags: W
HStem: 0 192<466.734 824.5> 1309 182<254 750>
VStem: 150 198<281.07 514> 938 200<277.434 638.953>
DStem2: 419 818 700 920 0.585128 0.810941<247.137 590.227> 700 920 825 672 0.941006 -0.338391<0 331.784>
LayerCount: 2
Fore
SplineSet
348 356 m 2,0,1
 348 301 348 301 432 254 c 0,2,3
 543 192 543 192 647 192 c 0,4,5
 650 192 650 192 652 192 c 0,6,7
 752 192 752 192 848 247 c 0,8,9
 938 299 938 299 938 346 c 2,10,-1
 938 557 l 1,11,12
 937 636 937 636 825 672 c 1,13,-1
 419 818 l 1,14,-1
 750 1307 l 1,15,-1
 168 1309 l 1,16,-1
 254 1491 l 1,17,-1
 1112 1491 l 1,18,-1
 700 920 l 1,19,20
 771 893 771 893 995 810 c 0,21,22
 1125 762 1125 762 1135 651 c 1,23,-1
 1138 262 l 2,24,25
 1138 204 1138 204 1000 115 c 0,26,27
 822 0 822 0 654 0 c 0,28,29
 482 0 482 0 294 112 c 0,30,31
 150 198 150 198 150 266 c 2,32,-1
 151 514 l 1,33,-1
 351 608 l 1,34,-1
 348 356 l 2,0,1
EndSplineSet
Validated: 16385
EndChar

StartChar: four
Encoding: 52 52 23
Width: 1211
GlyphClass: 2
Flags: W
HStem: 0 21G<737 780.111> 408 186<346 736 933 1020> 1491 20G<885.333 932>
VStem: 736 196<90 407 595 1115>
LayerCount: 2
Fore
SplineSet
737 407 m 1,0,-1
 50 408 l 1,1,-1
 140 608 l 1,2,-1
 736 1427 l 1,3,-1
 932 1511 l 1,4,-1
 932 595 l 1,5,-1
 1111 598 l 1,6,-1
 1020 410 l 1,7,-1
 933 410 l 1,8,-1
 931 90 l 1,9,-1
 737 0 l 1,10,-1
 737 407 l 1,0,-1
346 594 m 1,11,-1
 736 594 l 1,12,-1
 736 1115 l 1,13,-1
 346 594 l 1,11,-1
EndSplineSet
Validated: 16385
EndChar

StartChar: five
Encoding: 53 53 24
Width: 1288
GlyphClass: 2
Flags: W
HStem: 0 192<466.734 824.5> 1291 200<540 986>
VStem: 150 198<281.07 514> 938 200<277.434 638.953>
DStem2: 227 871 460 996 0.257178 0.966364<179.992 486.37>
LayerCount: 2
Fore
SplineSet
348 356 m 2,0,1
 348 301 348 301 432 254 c 0,2,3
 543 192 543 192 647 192 c 0,4,5
 650 192 650 192 652 192 c 0,6,7
 752 192 752 192 848 247 c 0,8,9
 938 299 938 299 938 346 c 2,10,-1
 938 557 l 1,11,12
 937 636 937 636 825 672 c 1,13,-1
 227 871 l 1,14,-1
 392 1491 l 1,15,-1
 1076 1491 l 1,16,-1
 986 1291 l 1,17,-1
 540 1291 l 1,18,-1
 460 996 l 1,19,20
 827 891 827 891 995 810 c 0,21,22
 1126 747 1126 747 1135 651 c 1,23,-1
 1138 262 l 2,24,25
 1138 204 1138 204 1000 115 c 0,26,27
 822 0 822 0 654 0 c 0,28,29
 482 0 482 0 294 112 c 0,30,31
 150 198 150 198 150 266 c 2,32,-1
 151 514 l 1,33,-1
 351 608 l 1,34,-1
 348 356 l 2,0,1
EndSplineSet
Validated: 16385
EndChar

StartChar: six
Encoding: 54 54 25
Width: 1288
GlyphClass: 2
Flags: W
HStem: 0 192<466.78 824.5> 1320 192<465.253 826.147>
VStem: 150 197<281.07 832 1027.54 1230.93> 937 200<277.434 638.953 1060 1234.57>
DStem2: 347 1038 347 832 0.948286 -0.317418<65.3881 695.484>
LayerCount: 2
Fore
SplineSet
347 832 m 1,0,-1
 348 356 l 2,1,2
 348 301 348 301 432 254 c 0,3,4
 544 192 544 192 647 192 c 2,5,-1
 652 192 l 2,6,7
 752 192 752 192 848 247 c 0,8,9
 938 299 938 299 938 346 c 2,10,-1
 938 557 l 1,11,12
 937 636 937 636 825 672 c 1,13,-1
 347 832 l 1,0,-1
150 262 m 1,14,15
 150 262 150 262 150 1250 c 0,16,17
 150 1314 150 1314 293 1400 c 0,18,19
 479 1512 479 1512 647 1512 c 2,20,-1
 653 1512 l 2,21,22
 820 1512 820 1512 999 1397 c 0,23,24
 1137 1308 1137 1308 1137 1250 c 2,25,-1
 1137 1060 l 1,26,-1
 937 966 l 1,27,-1
 937 1166 l 2,28,29
 937 1213 937 1213 847 1265 c 0,30,31
 752 1320 752 1320 651 1320 c 2,32,-1
 646 1320 l 2,33,34
 541 1320 541 1320 431 1258 c 0,35,36
 347 1211 347 1211 347 1156 c 2,37,-1
 347 1038 l 1,38,39
 863 869 863 869 995 810 c 0,40,41
 1123 753 1123 753 1135 651 c 1,42,-1
 1138 262 l 2,43,44
 1138 204 1138 204 1000 115 c 0,45,46
 822 0 822 0 654 0 c 0,47,48
 481 0 481 0 294 112 c 0,49,50
 154 196 154 196 150 262 c 1,14,15
EndSplineSet
Validated: 16385
EndChar

StartChar: seven
Encoding: 55 55 26
Width: 1050
GlyphClass: 2
Flags: W
HStem: 0 21G<154.984 189.729> 1307 184<132 734>
DStem2: 146 0 404 118 0.414851 0.909889<214.399 1434.98>
LayerCount: 2
Fore
SplineSet
404 118 m 1,0,-1
 146 0 l 1,1,-1
 734 1309 l 1,2,-1
 50 1307 l 1,3,-1
 132 1491 l 1,4,-1
 1030 1491 l 1,5,-1
 404 118 l 1,0,-1
EndSplineSet
Validated: 16385
EndChar

StartChar: eight
Encoding: 56 56 27
Width: 1288
GlyphClass: 2
Flags: W
HStem: 0 192<467.044 824.5> 1328 182<454.828 806.035>
VStem: 150 198<281.07 639.858> 204 191<1005.44 1274.35> 888 193<1004.72 1263.16> 938 200<277.434 638.953>
LayerCount: 2
Fore
SplineSet
200 1272 m 2,0,1
 200 1347 200 1347 350 1436 c 0,2,3
 475 1510 475 1510 647 1510 c 2,4,-1
 660 1510 l 2,5,6
 798 1510 798 1510 950 1420 c 0,7,8
 1075 1346 1075 1346 1082 1277 c 1,9,-1
 1081 972 l 2,10,11
 1081 886 1081 886 936 836 c 1,12,13
 970 823 970 823 995 810 c 0,14,15
 1126 742 1126 742 1135 651 c 1,16,-1
 1138 262 l 2,17,18
 1138 204 1138 204 1000 115 c 0,19,20
 822 0 822 0 654 0 c 0,21,22
 481 0 481 0 294 112 c 0,23,24
 152 197 152 197 150 264 c 1,25,-1
 150 652 l 1,26,27
 159 745 159 745 290 811 c 0,28,29
 314 823 314 823 346 836 c 1,30,31
 204 886 204 886 204 971 c 2,32,-1
 204 972 l 1,33,-1
 200 1272 l 2,0,1
888 1054 m 1,34,-1
 888 1208 l 2,35,36
 888 1239 888 1239 825 1274 c 1,37,38
 732 1328 732 1328 650 1328 c 0,39,40
 522 1328 522 1328 460 1289 c 0,41,42
 394 1248 394 1248 394 1225 c 2,43,-1
 395 1069 l 2,44,45
 395 1015 395 1015 473 992 c 2,46,-1
 641 941 l 1,47,-1
 812 993 l 1,48,49
 878 1012 878 1012 888 1054 c 1,34,-1
351 584 m 1,50,-1
 348 356 l 2,51,52
 348 301 348 301 432 254 c 0,53,54
 545 192 545 192 647 192 c 2,55,-1
 652 192 l 2,56,57
 752 192 752 192 848 247 c 0,58,59
 938 299 938 299 938 346 c 2,60,-1
 938 557 l 1,61,62
 937 636 937 636 825 672 c 1,63,-1
 641 735 l 1,64,-1
 460 673 l 1,65,66
 368 643 368 643 351 584 c 1,50,-1
EndSplineSet
Validated: 16385
EndChar

StartChar: nine
Encoding: 57 57 28
Width: 1288
GlyphClass: 2
Flags: W
HStem: 0 192<461.853 822.747> 1320 192<463.5 821.22>
VStem: 151 200<277.434 452 873.047 1234.57> 941 197<281.07 484.455 680 1230.93>
DStem2: 941 680 293 702 0.948286 -0.317418<-630.096 0>
LayerCount: 2
Fore
SplineSet
941 680 m 1,0,-1
 940 1156 l 2,1,2
 940 1211 940 1211 856 1258 c 0,3,4
 744 1320 744 1320 641 1320 c 2,5,-1
 636 1320 l 2,6,7
 536 1320 536 1320 440 1265 c 0,8,9
 350 1213 350 1213 350 1166 c 2,10,-1
 350 955 l 1,11,12
 351 876 351 876 463 840 c 1,13,-1
 941 680 l 1,0,-1
1138 1250 m 1,14,15
 1138 1250 1138 1250 1138 262 c 0,16,17
 1138 198 1138 198 995 112 c 0,18,19
 809 0 809 0 641 0 c 2,20,-1
 635 0 l 2,21,22
 468 0 468 0 289 115 c 0,23,24
 151 204 151 204 151 262 c 2,25,-1
 151 452 l 1,26,-1
 351 546 l 1,27,-1
 351 346 l 2,28,29
 351 299 351 299 441 247 c 0,30,31
 536 192 536 192 637 192 c 2,32,-1
 642 192 l 2,33,34
 747 192 747 192 857 254 c 0,35,36
 941 301 941 301 941 356 c 2,37,-1
 941 474 l 1,38,39
 425 643 425 643 293 702 c 0,40,41
 165 759 165 759 153 861 c 1,42,-1
 150 1250 l 2,43,44
 150 1308 150 1308 288 1397 c 0,45,46
 466 1512 466 1512 634 1512 c 0,47,48
 807 1512 807 1512 994 1400 c 0,49,50
 1134 1316 1134 1316 1138 1250 c 1,14,15
EndSplineSet
Validated: 16385
EndChar

StartChar: colon
Encoding: 58 58 29
Width: 562
GlyphClass: 2
Flags: W
HStem: 0 264<191.191 372.809> 554 264<189.191 370.809>
VStem: 152 260<39.7072 224.293 593.707 778.293>
LayerCount: 2
Fore
SplineSet
152 132 m 128,-1,1
 152 187 152 187 190 225.5 c 128,-1,2
 228 264 228 264 282 264 c 128,-1,3
 336 264 336 264 374 225.5 c 128,-1,4
 412 187 412 187 412 132 c 128,-1,5
 412 77 412 77 374 38.5 c 128,-1,6
 336 0 336 0 282 0 c 128,-1,7
 228 0 228 0 190 38.5 c 128,-1,0
 152 77 152 77 152 132 c 128,-1,1
150 686 m 128,-1,9
 150 741 150 741 188 779.5 c 128,-1,10
 226 818 226 818 280 818 c 128,-1,11
 334 818 334 818 372 779.5 c 128,-1,12
 410 741 410 741 410 686 c 128,-1,13
 410 631 410 631 372 592.5 c 128,-1,14
 334 554 334 554 280 554 c 128,-1,15
 226 554 226 554 188 592.5 c 128,-1,8
 150 631 150 631 150 686 c 128,-1,9
EndSplineSet
Validated: 16385
EndChar

StartChar: semicolon
Encoding: 59 59 30
Width: 628
GlyphClass: 2
Flags: W
HStem: 552 264<239.191 420.809>
VStem: 200 260<591.707 776.293>
DStem2: 110 -177 299 -262 0.328601 0.944469<0 464.751>
LayerCount: 2
Fore
SplineSet
299 -262 m 1,0,-1
 110 -177 l 1,1,-1
 269 280 l 1,2,-1
 458 194 l 1,3,-1
 299 -262 l 1,0,-1
200 684 m 128,-1,5
 200 739 200 739 238 777.5 c 128,-1,6
 276 816 276 816 330 816 c 128,-1,7
 384 816 384 816 422 777.5 c 128,-1,8
 460 739 460 739 460 684 c 128,-1,9
 460 629 460 629 422 590.5 c 128,-1,10
 384 552 384 552 330 552 c 128,-1,11
 276 552 276 552 238 590.5 c 128,-1,4
 200 629 200 629 200 684 c 128,-1,5
EndSplineSet
Validated: 16385
EndChar

StartChar: less
Encoding: 60 60 31
Width: 1139
GlyphClass: 2
Flags: W
DStem2: 416 675 80 599 0.889737 -0.456474<0 633.462>
LayerCount: 2
Fore
SplineSet
156 767 m 1,0,-1
 906 1220 l 1,1,-1
 989 1038 l 1,2,-1
 416 675 l 1,3,-1
 972 371 l 1,4,-1
 885 186 l 1,5,-1
 80 599 l 1,6,-1
 156 767 l 1,0,-1
EndSplineSet
Validated: 16385
EndChar

StartChar: equal
Encoding: 61 61 32
Width: 1084
GlyphClass: 2
Flags: W
HStem: 436 198<171 912> 762 198<170 911>
LayerCount: 2
Fore
SplineSet
170 960 m 1,0,-1
 1003 960 l 1,1,-1
 911 762 l 1,2,-1
 80 762 l 1,3,-1
 170 960 l 1,0,-1
171 634 m 1,4,-1
 1004 634 l 1,5,-1
 912 436 l 1,6,-1
 81 436 l 1,7,-1
 171 634 l 1,4,-1
EndSplineSet
Validated: 1
EndChar

StartChar: greater
Encoding: 62 62 33
Width: 1139
GlyphClass: 2
Flags: W
DStem2: 150 368 233 186 0.855979 0.517011<0 678.151>
LayerCount: 2
Fore
SplineSet
983 639 m 1,0,-1
 233 186 l 1,1,-1
 150 368 l 1,2,-1
 723 731 l 1,3,-1
 167 1035 l 1,4,-1
 254 1220 l 1,5,-1
 1059 807 l 1,6,-1
 983 639 l 1,0,-1
EndSplineSet
Validated: 16385
EndChar

StartChar: question
Encoding: 63 63 34
Width: 1288
GlyphClass: 2
Flags: W
HStem: 0 264<527.191 708.809> 1322 192<467.044 824.5>
VStem: 151 196<1081 1232.93> 488 260<39.7072 224.293> 518 193<387 607.266> 938 197<871.376 1236.57>
LayerCount: 2
Fore
SplineSet
522 609 m 1,0,1
 522 713 522 713 678 775 c 2,2,-1
 832 837 l 1,3,4
 937 878 937 878 938 957 c 1,5,-1
 938 1168 l 2,6,7
 938 1215 938 1215 848 1267 c 0,8,9
 752 1322 752 1322 652 1322 c 0,10,11
 650 1322 650 1322 647 1322 c 0,12,13
 545 1322 545 1322 432 1260 c 0,14,15
 348 1213 348 1213 348 1158 c 2,16,-1
 347 1081 l 1,17,-1
 151 1000 l 1,18,-1
 150 1248 l 2,19,20
 150 1316 150 1316 294 1402 c 0,21,22
 482 1514 482 1514 654 1514 c 0,23,24
 822 1514 822 1514 1000 1399 c 0,25,26
 1138 1310 1138 1310 1138 1252 c 2,27,-1
 1135 863 l 1,28,29
 1124 749 1124 749 995 704 c 0,30,31
 720 608 720 608 716 576 c 0,32,33
 714 558 714 558 713 512 c 2,34,-1
 711 387 l 1,35,-1
 518 293 l 1,36,-1
 522 609 l 1,0,1
488 132 m 128,-1,38
 488 187 488 187 526 225.5 c 128,-1,39
 564 264 564 264 618 264 c 128,-1,40
 672 264 672 264 710 225.5 c 128,-1,41
 748 187 748 187 748 132 c 128,-1,42
 748 77 748 77 710 38.5 c 128,-1,43
 672 0 672 0 618 0 c 128,-1,44
 564 0 564 0 526 38.5 c 128,-1,37
 488 77 488 77 488 132 c 128,-1,38
EndSplineSet
Validated: 16385
EndChar

StartChar: at
Encoding: 64 64 35
Width: 1195
GlyphClass: 2
Flags: W
HStem: -394 192<465.78 773.062> -5 178<614.528 737> 936 182<457.703 785.349>
VStem: 150 188<-105.646 847.413> 397 191<202.943 322> 845 198<73 450 654 881.562>
DStem2: 399 422 589 322 0.8863 0.463112<122.086 408.257>
LayerCount: 2
Fore
SplineSet
588 284 m 1,0,1
 588 232 588 232 621 202 c 0,2,3
 653 173 653 173 726 173 c 0,4,5
 740 173 740 173 757 174 c 2,6,7
 757 174 757 174 829 178 c 1,8,-1
 737 0 l 1,9,10
 682 -5 682 -5 655 -5 c 0,11,12
 643 -5 643 -5 637 -4 c 0,13,14
 526 14 526 14 479 56 c 0,15,16
 397 129 397 129 397 237 c 2,17,-1
 397 238 l 1,18,-1
 399 422 l 1,19,-1
 843 654 l 1,20,-1
 840 840 l 2,21,22
 840 855 840 855 788 890 c 0,23,24
 720 936 720 936 637 936 c 0,25,26
 535 936 535 936 422 874 c 0,27,28
 338 828 338 828 338 773 c 2,29,30
 338 773 338 773 338 772 c 2,31,-1
 347 -38 l 2,32,33
 348 -94 348 -94 431 -140 c 0,34,35
 543 -202 543 -202 646 -202 c 0,36,37
 648 -202 648 -202 651 -202 c 0,38,39
 713 -202 713 -202 775 -180 c 1,40,-1
 929 -320 l 1,41,42
 788 -394 788 -394 653 -394 c 0,43,44
 480 -394 480 -394 293 -282 c 0,45,46
 150 -196 150 -196 150 -132 c 2,47,-1
 150 856 l 2,48,49
 150 920 150 920 293 1006 c 0,50,51
 480 1118 480 1118 647 1118 c 0,52,53
 773 1118 773 1118 913 1036 c 0,54,55
 1045 958 1045 958 1045 886 c 2,56,-1
 1043 73 l 1,57,-1
 845 -19 l 1,58,-1
 845 388 l 1,59,-1
 845 450 l 1,60,-1
 589 322 l 1,61,-1
 588 284 l 1,0,1
EndSplineSet
Validated: 16385
EndChar

StartChar: A
Encoding: 65 65 36
Width: 1390
GlyphClass: 2
Flags: W
HStem: 0 21G<200.016 243.043 992.09 1036.49> 443 190<400 994> 1320 192<519.964 878.531>
VStem: 200 198<92 436 626 1230.93> 994 196<89 443 633 1231.98>
LayerCount: 2
Fore
SplineSet
200 0 m 1,0,-1
 201 1250 l 2,1,2
 201 1314 201 1314 344 1400 c 0,3,4
 530 1512 530 1512 698 1512 c 0,5,6
 701 1512 701 1512 704 1512 c 0,7,8
 871 1512 871 1512 1050 1397 c 0,9,10
 1188 1308 1188 1308 1188 1250 c 2,11,-1
 1190 89 l 1,12,-1
 992 0 l 1,13,-1
 994 443 l 1,14,-1
 400 436 l 1,15,-1
 398 92 l 1,16,-1
 200 0 l 1,0,-1
399 626 m 1,17,-1
 994 633 l 1,18,-1
 994 1163 l 2,19,20
 994 1211 994 1211 904 1262 c 0,21,22
 802 1320 802 1320 702 1320 c 0,23,24
 697 1320 697 1320 697 1320 c 1,25,26
 588 1316 588 1316 482 1258 c 0,27,28
 398 1211 398 1211 398 1156 c 2,29,-1
 399 626 l 1,17,-1
EndSplineSet
Validated: 1
EndChar

StartChar: B
Encoding: 66 66 37
Width: 1317
GlyphClass: 2
Flags: W
HStem: 20 190<400 879.095> 743 191<402 764.757> 1303 188<401 760.596>
VStem: 200 200<210 743 934 1302> 876 205<1018.93 1214.85> 992 205<295.434 663.158>
LayerCount: 2
Fore
SplineSet
706 744 m 2,0,-1
 400 743 l 1,1,-1
 400 210 l 1,2,-1
 706 210 l 2,3,4
 806 210 806 210 902 265 c 0,5,6
 992 317 992 317 992 364 c 2,7,-1
 992 590 l 2,8,9
 992 648 992 648 902 689 c 0,10,11
 778 744 778 744 706 744 c 2,0,-1
590 934 m 2,12,13
 689 934 689 934 786 989 c 0,14,15
 876 1040 876 1040 876 1087 c 2,16,-1
 876 1088 l 1,17,-1
 874 1149 l 2,18,19
 872 1197 872 1197 784 1248 c 0,20,21
 689 1303 689 1303 592 1303 c 2,22,-1
 588 1303 l 1,23,-1
 401 1302 l 1,24,-1
 402 934 l 1,25,-1
 590 934 l 2,12,13
595 1491 m 2,26,27
 764 1491 764 1491 941 1378 c 0,28,29
 1078 1290 1078 1290 1079 1231 c 2,30,-1
 1081 1007 l 2,31,32
 1081 953 1081 953 962 872 c 1,33,34
 1010 849 1010 849 1059 818 c 0,35,36
 1197 731 1197 731 1197 671 c 2,37,-1
 1197 282 l 2,38,39
 1197 225 1197 225 1059 135 c 0,40,41
 883 20 883 20 713 20 c 2,42,-1
 200 20 l 1,43,-1
 202 1407 l 1,44,-1
 399 1491 l 1,45,-1
 595 1491 l 2,26,27
EndSplineSet
Validated: 1
EndChar

StartChar: C
Encoding: 67 67 38
Width: 1389
GlyphClass: 2
Flags: W
HStem: 0 192<516.044 873.5> 1320 192<519.464 876.147>
VStem: 200 197<281.07 1230.93> 987 200<277.434 468 1060 1234.57>
LayerCount: 2
Fore
SplineSet
703 0 m 0,0,1
 530 0 530 0 343 112 c 0,2,3
 200 198 200 198 200 262 c 2,4,-1
 200 1250 l 2,5,6
 200 1314 200 1314 343 1400 c 0,7,8
 530 1512 530 1512 697 1512 c 0,9,10
 700 1512 700 1512 703 1512 c 0,11,12
 870 1512 870 1512 1049 1397 c 0,13,14
 1187 1308 1187 1308 1187 1250 c 2,15,-1
 1187 1060 l 1,16,-1
 987 966 l 1,17,-1
 987 1166 l 2,18,19
 987 1213 987 1213 897 1265 c 0,20,21
 802 1320 802 1320 701 1320 c 0,22,23
 698 1320 698 1320 696 1320 c 0,24,25
 594 1320 594 1320 481 1258 c 0,26,27
 397 1211 397 1211 397 1156 c 2,28,-1
 397 356 l 2,29,30
 397 301 397 301 481 254 c 0,31,32
 594 192 594 192 696 192 c 0,33,34
 698 192 698 192 701 192 c 0,35,36
 801 192 801 192 897 247 c 0,37,38
 987 299 987 299 987 346 c 2,39,-1
 987 468 l 1,40,-1
 1189 558 l 1,41,-1
 1187 262 l 2,42,43
 1187 204 1187 204 1049 115 c 0,44,45
 871 0 871 0 703 0 c 0,0,1
EndSplineSet
Validated: 1
EndChar

StartChar: D
Encoding: 68 68 39
Width: 1399
GlyphClass: 2
Flags: W
HStem: 21 189<396 882.94> 1298 193<398 878.863>
VStem: 200 196<210 1298> 994 205<295.434 1217.57>
LayerCount: 2
Fore
SplineSet
707 210 m 2,0,1
 808 210 808 210 904 265 c 0,2,3
 994 317 994 317 994 364 c 2,4,-1
 993 1145 l 2,5,6
 993 1205 993 1205 903 1244 c 0,7,8
 773 1299 773 1299 707 1299 c 2,9,-1
 396 1298 l 1,10,-1
 396 210 l 1,11,-1
 707 210 l 2,0,1
398 1491 m 1,12,-1
 715 1491 l 2,13,14
 881 1491 881 1491 1060 1374 c 0,15,16
 1198 1284 1198 1284 1198 1227 c 2,17,-1
 1199 283 l 2,18,19
 1199 229 1199 229 1061 136 c 0,20,21
 890 21 890 21 772 21 c 2,22,-1
 714 21 l 1,23,-1
 200 20 l 1,24,-1
 200 1403 l 1,25,-1
 398 1491 l 1,12,-1
EndSplineSet
Validated: 1
EndChar

StartChar: E
Encoding: 69 69 40
Width: 1138
GlyphClass: 2
Flags: W
HStem: 20 192<396 996> 664 192<397 886> 1300 191<398 896>
VStem: 200 196<212 664 856 1300>
LayerCount: 2
Fore
SplineSet
396 1300 m 1,0,-1
 397 856 l 1,1,-1
 978 856 l 1,2,-1
 886 666 l 1,3,-1
 396 664 l 1,4,-1
 396 212 l 1,5,-1
 1088 212 l 1,6,-1
 996 20 l 1,7,-1
 200 20 l 1,8,-1
 200 1402 l 1,9,-1
 398 1491 l 1,10,-1
 982 1491 l 1,11,-1
 896 1303 l 1,12,-1
 396 1300 l 1,0,-1
EndSplineSet
Validated: 1
EndChar

StartChar: F
Encoding: 70 70 41
Width: 1082
GlyphClass: 2
Flags: W
HStem: 0 21G<200 243.043> 672 184<400 896> 1307 184<398 898>
VStem: 200 198<92 672 856 1307>
LayerCount: 2
Fore
SplineSet
398 1491 m 1,0,-1
 982 1491 l 1,1,-1
 898 1309 l 1,2,-1
 398 1307 l 1,3,-1
 399 856 l 1,4,-1
 980 856 l 1,5,-1
 896 672 l 1,6,-1
 400 672 l 1,7,-1
 398 92 l 1,8,-1
 200 0 l 1,9,-1
 200 1403 l 1,10,-1
 398 1491 l 1,0,-1
EndSplineSet
Validated: 19457
EndChar

StartChar: G
Encoding: 71 71 42
Width: 1389
GlyphClass: 2
Flags: W
HStem: 0 192<516.044 873.5> 592 190<709 987> 1320 192<519.464 876.147>
VStem: 200 197<281.07 1230.93> 987 200<277.434 592 1060 1234.57>
LayerCount: 2
Fore
SplineSet
703 0 m 1,0,1
 529 4 529 4 343 112 c 0,2,3
 200 195 200 195 200 262 c 2,4,-1
 200 1250 l 2,5,6
 200 1314 200 1314 343 1400 c 0,7,8
 530 1512 530 1512 697 1512 c 0,9,10
 700 1512 700 1512 703 1512 c 0,11,12
 870 1512 870 1512 1049 1397 c 0,13,14
 1187 1308 1187 1308 1187 1250 c 2,15,-1
 1187 1060 l 1,16,-1
 987 966 l 1,17,-1
 987 1166 l 2,18,19
 987 1213 987 1213 897 1265 c 0,20,21
 802 1320 802 1320 701 1320 c 0,22,23
 698 1320 698 1320 696 1320 c 0,24,25
 594 1320 594 1320 481 1258 c 0,26,27
 397 1211 397 1211 397 1156 c 2,28,-1
 397 356 l 2,29,30
 397 301 397 301 481 254 c 0,31,32
 594 192 594 192 696 192 c 0,33,34
 698 192 698 192 701 192 c 0,35,36
 801 192 801 192 897 247 c 0,37,38
 987 299 987 299 987 346 c 2,39,-1
 987 592 l 1,40,-1
 623 592 l 1,41,-1
 709 782 l 1,42,-1
 1189 782 l 1,43,-1
 1187 262 l 2,44,45
 1187 204 1187 204 1049 115 c 0,46,47
 871 0 871 0 703 0 c 1,0,1
EndSplineSet
Validated: 1
EndChar

StartChar: H
Encoding: 72 72 43
Width: 1404
GlyphClass: 2
Flags: W
HStem: 0 21G<200 243.043 1008.97 1051.17> 682 192<397 1008> 1493 20G<353.506 397.969 1159.51 1203.99>
VStem: 200 198<92 682 874 1424> 1008 195<92 682 874 1422>
LayerCount: 2
Fore
SplineSet
398 92 m 1,0,-1
 200 0 l 1,1,-1
 200 1424 l 1,2,-1
 398 1513 l 1,3,-1
 397 874 l 1,4,-1
 1008 874 l 1,5,-1
 1006 1422 l 1,6,-1
 1204 1511 l 1,7,-1
 1203 92 l 1,8,-1
 1009 0 l 1,9,-1
 1008 682 l 1,10,-1
 397 682 l 1,11,-1
 398 92 l 1,0,-1
EndSplineSet
Validated: 1
EndChar

StartChar: I
Encoding: 73 73 44
Width: 598
GlyphClass: 2
Flags: W
HStem: 0 21G<200 243.043> 1491 20G<353.506 398>
VStem: 200 198<92 1422>
LayerCount: 2
Fore
SplineSet
398 92 m 1,0,-1
 200 0 l 1,1,-1
 200 1422 l 1,2,-1
 398 1511 l 1,3,-1
 398 92 l 1,0,-1
EndSplineSet
Validated: 1
EndChar

StartChar: J
Encoding: 74 74 45
Width: 1073
GlyphClass: 2
Flags: W
HStem: 0 180<305.651 609.159> 1491 20G<827 872.016>
VStem: 51 191<237.561 383> 676 197<238.949 1423>
LayerCount: 2
Fore
SplineSet
475 0 m 0,0,1
 333 0 333 0 201 76 c 0,2,3
 52 162 52 162 51 240 c 2,4,-1
 50 383 l 1,5,-1
 242 455 l 1,6,-1
 242 290 l 2,7,8
 242 263 242 263 308 222 c 0,9,10
 375 180 375 180 458 180 c 0,11,12
 460 180 460 180 462 180 c 0,13,14
 546 180 546 180 613 226 c 0,15,16
 676 269 676 269 676 292 c 2,17,-1
 674 1423 l 1,18,-1
 872 1511 l 1,19,-1
 873 232 l 2,20,21
 873 160 873 160 741 82 c 0,22,23
 602 0 602 0 475 0 c 0,0,1
EndSplineSet
Validated: 16385
EndChar

StartChar: K
Encoding: 75 75 46
Width: 1318
GlyphClass: 2
Flags: W
HStem: 0 21G<200 243.043 919.5 963.043> 1491 20G<353 398 911.177 942.579>
VStem: 200 198<92 589.232 801 1423> 920 198<92 590.972>
DStem2: 402 803 680 861 0.595445 0.803396<212.131 832.924>
LayerCount: 2
Fore
SplineSet
653 674 m 0,0,1
 562 666 562 666 488 622 c 0,2,3
 398 568 398 568 398 506 c 2,4,-1
 398 92 l 1,5,-1
 200 0 l 1,6,-1
 200 1423 l 1,7,-1
 398 1511 l 1,8,-1
 398 801 l 1,9,-1
 402 803 l 1,10,-1
 926 1510 l 1,11,-1
 1052 1358 l 1,12,-1
 680 861 l 1,13,14
 825 861 825 861 978 755 c 0,15,16
 1116 660 1116 660 1116 608 c 2,17,-1
 1118 92 l 1,18,-1
 920 0 l 1,19,20
 919 103 919 103 918 202 c 2,21,-1
 916 526 l 2,22,23
 916 572 916 572 826 625 c 0,24,25
 768 660 768 660 662 673 c 0,26,27
 654 674 654 674 653 674 c 0,0,1
EndSplineSet
Validated: 1
EndChar

StartChar: L
Encoding: 76 76 47
Width: 1087
GlyphClass: 2
Flags: W
HStem: 20 182<398 996> 1491 20G<353.506 398>
VStem: 200 198<202 1422>
LayerCount: 2
Fore
SplineSet
200 1422 m 1,0,-1
 398 1511 l 1,1,-1
 398 202 l 1,2,-1
 1082 200 l 1,3,-1
 996 20 l 1,4,-1
 200 20 l 1,5,-1
 200 1422 l 1,0,-1
EndSplineSet
Validated: 1
EndChar

StartChar: M
Encoding: 77 77 48
Width: 2176
GlyphClass: 2
Flags: W
HStem: 0 21G<200 243.043 989.949 1033.56 1778.95 1822.56> 1320 192<518.964 874.913 1308.46 1664.76>
VStem: 200 198<92 1232.86> 990 196<90 1231.59> 1779 196<90 1231.85>
LayerCount: 2
Fore
SplineSet
987 1166 m 2,0,1
 987 1214 987 1214 897 1265 c 0,2,3
 800 1320 800 1320 701 1320 c 2,4,-1
 696 1320 l 2,5,6
 594 1320 594 1320 481 1258 c 0,7,8
 397 1212 397 1212 397 1156 c 2,9,-1
 398 92 l 1,10,-1
 200 0 l 1,11,-1
 200 1250 l 2,12,13
 200 1314 200 1314 343 1400 c 0,14,15
 529 1512 529 1512 697 1512 c 0,16,17
 700 1512 700 1512 703 1512 c 0,18,19
 863 1512 863 1512 1049 1397 c 0,20,21
 1070 1384 1070 1384 1087 1371 c 1,22,23
 1107 1385 1107 1385 1132 1400 c 0,24,25
 1319 1512 1319 1512 1486 1512 c 0,26,27
 1489 1512 1489 1512 1492 1512 c 0,28,29
 1659 1512 1659 1512 1838 1397 c 1,30,31
 1976 1307 1976 1307 1976 1250 c 2,32,-1
 1975 90 l 1,33,-1
 1779 0 l 1,34,-1
 1776 1166 l 2,35,36
 1776 1214 1776 1214 1686 1265 c 0,37,38
 1589 1320 1589 1320 1490 1320 c 2,39,-1
 1485 1320 l 2,40,41
 1383 1320 1383 1320 1270 1258 c 0,42,43
 1195 1217 1195 1217 1187 1168 c 1,44,-1
 1186 90 l 1,45,-1
 990 0 l 1,46,-1
 987 1166 l 2,0,1
EndSplineSet
Validated: 1
EndChar

StartChar: N
Encoding: 78 78 49
Width: 1387
GlyphClass: 2
Flags: W
HStem: 0 21G<200 243.043 989.949 1034.55> 1320 192<518.964 874.5>
VStem: 200 198<92 1232.47> 990 196<88 1231.85>
LayerCount: 2
Fore
SplineSet
1187 1250 m 2,0,-1
 1186 88 l 1,1,-1
 990 0 l 1,2,-1
 987 1166 l 2,3,4
 987 1214 987 1214 897 1265 c 0,5,6
 800 1320 800 1320 701 1320 c 0,7,8
 698 1320 698 1320 696 1320 c 0,9,10
 594 1320 594 1320 481 1258 c 0,11,12
 397 1211 397 1211 397 1156 c 2,13,-1
 398 92 l 1,14,-1
 200 0 l 1,15,-1
 200 1250 l 2,16,17
 200 1314 200 1314 343 1400 c 0,18,19
 529 1512 529 1512 697 1512 c 0,20,21
 700 1512 700 1512 703 1512 c 0,22,23
 873 1512 873 1512 1049 1397 c 0,24,25
 1187 1307 1187 1307 1187 1250 c 2,0,-1
EndSplineSet
Validated: 1
EndChar

StartChar: O
Encoding: 79 79 50
Width: 1387
GlyphClass: 2
Flags: W
HStem: 0 192<516.044 873.5> 1320 192<519.464 874.5>
VStem: 200 197<281.07 1230.93> 987 200<277.017 1234.98>
LayerCount: 2
Fore
SplineSet
987 346 m 2,0,1
 987 346 987 346 987 1166 c 0,2,3
 987 1214 987 1214 897 1265 c 0,4,5
 800 1320 800 1320 701 1320 c 0,6,7
 698 1320 698 1320 696 1320 c 0,8,9
 594 1320 594 1320 481 1258 c 0,10,11
 397 1211 397 1211 397 1156 c 2,12,-1
 397 356 l 2,13,14
 397 301 397 301 481 254 c 0,15,16
 594 192 594 192 696 192 c 0,17,18
 698 192 698 192 701 192 c 0,19,20
 800 192 800 192 897 247 c 0,21,22
 987 298 987 298 987 346 c 2,0,1
703 0 m 0,23,24
 530 0 530 0 343 112 c 0,25,26
 200 198 200 198 200 262 c 2,27,-1
 200 1250 l 2,28,29
 200 1314 200 1314 343 1400 c 0,30,31
 530 1512 530 1512 697 1512 c 0,32,33
 700 1512 700 1512 703 1512 c 0,34,35
 873 1512 873 1512 1049 1397 c 0,36,37
 1187 1307 1187 1307 1187 1250 c 2,38,-1
 1187 262 l 2,39,40
 1187 204 1187 204 1049 115 c 0,41,42
 871 0 871 0 703 0 c 0,23,24
EndSplineSet
Validated: 1
EndChar

StartChar: P
Encoding: 80 80 51
Width: 1318
GlyphClass: 2
Flags: W
HStem: 0 21G<200 243.043> 522 190<398 880.095> 1301 190<398 872.701>
VStem: 200 198<92 522 712 1298> 993 205<797.017 1217.74>
LayerCount: 2
Fore
SplineSet
707 712 m 2,0,1
 807 712 807 712 903 767 c 0,2,3
 993 818 993 818 993 866 c 2,4,-1
 993 1145 l 2,5,6
 993 1202 993 1202 903 1244 c 0,7,8
 782 1301 782 1301 709 1301 c 2,9,-1
 707 1301 l 1,10,-1
 398 1298 l 1,11,-1
 398 712 l 1,12,-1
 707 712 l 2,0,1
200 1403 m 1,13,-1
 398 1491 l 1,14,-1
 714 1491 l 2,15,16
 880 1491 880 1491 1060 1374 c 0,17,18
 1198 1284 1198 1284 1198 1227 c 2,19,-1
 1198 785 l 2,20,21
 1198 727 1198 727 1060 638 c 0,22,23
 884 525 884 525 714 523 c 1,24,-1
 398 522 l 1,25,-1
 398 92 l 1,26,-1
 200 0 l 1,27,-1
 200 1403 l 1,13,-1
EndSplineSet
Validated: 1
EndChar

StartChar: Q
Encoding: 81 81 52
Width: 1387
GlyphClass: 2
Flags: W
HStem: 0 192<515.734 761.133> 1320 192<519.464 874.5>
VStem: 200 197<281.07 1231.33> 987 200<282.031 1234.98>
DStem2: 886 412 706 320 0.424594 -0.905384<6.86843 142.433 340.424 640.612>
LayerCount: 2
Fore
SplineSet
703 0 m 0,0,1
 531 0 531 0 343 112 c 0,2,3
 200 197 200 197 200 262 c 2,4,-1
 200 1250 l 2,5,6
 200 1314 200 1314 343 1400 c 0,7,8
 530 1512 530 1512 697 1512 c 0,9,10
 700 1512 700 1512 703 1512 c 0,11,12
 873 1512 873 1512 1049 1397 c 0,13,14
 1187 1307 1187 1307 1187 1250 c 2,15,-1
 1187 262 l 2,16,17
 1187 204 1187 204 1049 115 c 1,18,-1
 1031 104 l 1,19,-1
 1158 -168 l 1,20,-1
 976 -256 l 1,21,-1
 846 21 l 1,22,23
 770 0 770 0 703 0 c 0,0,1
987 346 m 2,24,-1
 987 1166 l 2,25,26
 987 1214 987 1214 897 1265 c 0,27,28
 801 1320 801 1320 701 1320 c 2,29,-1
 696 1320 l 2,30,31
 594 1320 594 1320 481 1258 c 0,32,33
 397 1212 397 1212 397 1156 c 2,34,-1
 397 356 l 2,35,36
 397 301 397 301 481 254 c 0,37,38
 592 192 592 192 696 192 c 2,39,-1
 701 192 l 2,40,41
 732 192 732 192 763 197 c 1,42,-1
 706 320 l 1,43,-1
 886 412 l 1,44,-1
 947 281 l 1,45,46
 987 314 987 314 987 346 c 2,24,-1
EndSplineSet
Validated: 1
EndChar

StartChar: R
Encoding: 82 82 53
Width: 1348
GlyphClass: 2
Flags: W
HStem: 0 21G<200 243.043> 522 190<398 757> 1301 190<398 872.701>
VStem: 200 198<92 522 712 1298> 993 205<797.017 1217.74>
DStem2: 948 577 757 525 0.375784 -0.926707<-2.84299 546.15>
LayerCount: 2
Fore
SplineSet
200 0 m 1,0,-1
 200 1403 l 1,1,-1
 398 1491 l 1,2,-1
 714 1491 l 2,3,4
 880 1491 880 1491 1060 1374 c 0,5,6
 1198 1284 1198 1284 1198 1227 c 2,7,-1
 1198 785 l 2,8,9
 1198 727 1198 727 1060 638 c 0,10,11
 1004 602 1004 602 948 577 c 1,12,-1
 1156 72 l 1,13,-1
 978 -20 l 1,14,-1
 757 525 l 1,15,-1
 398 522 l 1,16,-1
 398 92 l 1,17,-1
 200 0 l 1,0,-1
707 712 m 2,18,19
 806 712 806 712 903 767 c 0,20,21
 993 818 993 818 993 866 c 2,22,-1
 993 1145 l 2,23,24
 993 1202 993 1202 903 1244 c 0,25,26
 782 1301 782 1301 709 1301 c 2,27,-1
 707 1301 l 1,28,-1
 398 1298 l 1,29,-1
 398 712 l 1,30,-1
 707 712 l 2,18,19
EndSplineSet
Validated: 1
EndChar

StartChar: S
Encoding: 83 83 54
Width: 1328
GlyphClass: 2
Flags: W
HStem: 0 192<487.044 844.5> 1330 182<476.272 782.324>
VStem: 170 198<281.07 514> 224 191<1005.44 1274.41> 848 194<1088 1271.31> 958 200<277.434 638.953>
LayerCount: 2
Fore
SplineSet
220 1272 m 1,0,1
 220 1349 220 1349 370 1436 c 0,2,3
 501 1512 501 1512 631 1512 c 0,4,5
 637 1512 637 1512 644 1512 c 0,6,7
 771 1512 771 1512 910 1430 c 0,8,9
 1042 1352 1042 1352 1042 1280 c 2,10,-1
 1042 1088 l 1,11,-1
 848 1032 l 1,12,-1
 848 1111 l 2,13,14
 848 1184 848 1184 848 1218 c 0,15,16
 848 1242 848 1242 785 1284 c 1,17,18
 718 1330 718 1330 634 1330 c 0,19,20
 545 1330 545 1330 480 1289 c 0,21,22
 414 1248 414 1248 414 1225 c 2,23,-1
 415 1069 l 2,24,25
 415 1015 415 1015 493 992 c 0,26,27
 873 880 873 880 1015 810 c 0,28,29
 1146 746 1146 746 1155 651 c 1,30,-1
 1158 262 l 2,31,32
 1158 204 1158 204 1020 115 c 0,33,34
 842 0 842 0 674 0 c 0,35,36
 501 0 501 0 314 112 c 0,37,38
 170 198 170 198 170 266 c 2,39,-1
 171 514 l 1,40,-1
 371 608 l 1,41,-1
 368 356 l 2,42,43
 368 301 368 301 452 254 c 0,44,45
 565 192 565 192 667 192 c 0,46,47
 670 192 670 192 672 192 c 0,48,49
 772 192 772 192 868 247 c 0,50,51
 958 299 958 299 958 346 c 2,52,-1
 958 557 l 1,53,54
 957 636 957 636 845 672 c 1,55,-1
 385 830 l 1,56,57
 224 880 224 880 224 971 c 2,58,-1
 224 972 l 1,59,-1
 220 1272 l 1,0,1
EndSplineSet
Validated: 1
EndChar

StartChar: T
Encoding: 84 84 55
Width: 1066
GlyphClass: 2
Flags: W
HStem: 0 21G<425.031 468.043> 1307 184<87 427 625 973>
VStem: 425 198<92 1307>
LayerCount: 2
Fore
SplineSet
623 92 m 1,0,-1
 425 0 l 1,1,-1
 427 1307 l 1,2,-1
 5 1309 l 1,3,-1
 87 1491 l 1,4,-1
 1061 1491 l 1,5,-1
 973 1307 l 1,6,-1
 625 1307 l 1,7,-1
 623 92 l 1,0,-1
EndSplineSet
Validated: 1
EndChar

StartChar: U
Encoding: 85 85 56
Width: 1387
GlyphClass: 2
Flags: W
HStem: 0 192<512.5 868.036> 1491 20G<354.444 398.034 1143.96 1187>
VStem: 200 200<277.017 1421> 990 197<281.07 1419>
LayerCount: 2
Fore
SplineSet
200 262 m 2,0,-1
 202 1421 l 1,1,-1
 398 1511 l 1,2,-1
 400 346 l 2,3,4
 400 298 400 298 490 247 c 0,5,6
 587 192 587 192 686 192 c 0,7,8
 688 192 688 192 691 192 c 0,9,10
 795 192 795 192 906 254 c 0,11,12
 990 301 990 301 990 356 c 2,13,-1
 989 1419 l 1,14,-1
 1187 1511 l 1,15,-1
 1187 262 l 2,16,17
 1187 198 1187 198 1044 112 c 0,18,19
 858 0 858 0 690 0 c 0,20,21
 687 0 687 0 684 0 c 0,22,23
 514 0 514 0 338 115 c 0,24,25
 200 205 200 205 200 262 c 2,0,-1
EndSplineSet
Validated: 1
EndChar

StartChar: V
Encoding: 86 86 57
Width: 1092
GlyphClass: 2
Flags: W
HStem: 0 21G<438.82 488.043> 1492 20G<151.818 201.066 904.657 952.905>
DStem2: 195 1512 5 1424 0.295217 -0.95543<27.9866 1205.89> 545 358 643 92 0.315375 0.948967<0 1186.33>
LayerCount: 2
Fore
SplineSet
643 92 m 1,0,-1
 445 0 l 1,1,-1
 5 1424 l 1,2,-1
 195 1512 l 1,3,-1
 545 358 l 1,4,-1
 911 1512 l 1,5,-1
 1087 1428 l 1,6,-1
 643 92 l 1,0,-1
EndSplineSet
Validated: 1
EndChar

StartChar: W
Encoding: 87 87 58
Width: 2176
GlyphClass: 2
Flags: W
HStem: 0 192<511.243 870.956 1301 1657.03> 1491 19G<354.444 398.034 1145.06 1189.97 1932.96 1975.98>
VStem: 200 200<277.017 1420> 988 200<279.059 1421> 1778 197<280.666 1419>
LayerCount: 2
Fore
SplineSet
1188 346 m 2,0,1
 1188 298 1188 298 1278 247 c 0,2,3
 1375 192 1375 192 1474 192 c 2,4,-1
 1479 192 l 2,5,6
 1581 192 1581 192 1694 254 c 0,7,8
 1778 300 1778 300 1778 356 c 2,9,-1
 1778 1419 l 1,10,-1
 1976 1511 l 1,11,-1
 1975 262 l 2,12,13
 1975 199 1975 199 1832 112 c 0,14,15
 1648 0 1648 0 1478 0 c 0,16,17
 1475 0 1475 0 1472 0 c 0,18,19
 1303 0 1303 0 1126 115 c 0,20,21
 1106 128 1106 128 1089 141 c 1,22,23
 1067 126 1067 126 1044 112 c 0,24,25
 864 0 864 0 690 0 c 0,26,27
 687 0 687 0 684 0 c 0,28,29
 517 0 517 0 338 115 c 1,30,31
 200 205 200 205 200 262 c 2,32,-1
 202 1420 l 1,33,-1
 398 1510 l 1,34,-1
 400 346 l 2,35,36
 400 298 400 298 490 247 c 0,37,38
 587 192 587 192 686 192 c 2,39,-1
 691 192 l 2,40,41
 793 192 793 192 906 254 c 0,42,43
 977 293 977 293 988 339 c 1,44,-1
 990 1421 l 1,45,-1
 1190 1510 l 1,46,-1
 1188 346 l 2,0,1
EndSplineSet
Validated: 1
EndChar

StartChar: X
Encoding: 88 88 59
Width: 1218
GlyphClass: 2
Flags: W
HStem: 0 21G<226.973 285.509 920.421 979.18> 1491 20G<235.5 291.681 920.602 977.366>
DStem2: 100 74 274 0 0.50106 0.865413<23.1439 680.777 1010.18 1010.18> 280 1511 102 1431 0.503909 -0.863757<0 654.312 975.054 1633.69>
LayerCount: 2
Fore
SplineSet
102 1431 m 1,0,-1
 280 1511 l 1,1,-1
 610 946 l 1,2,-1
 932 1511 l 1,3,-1
 1118 1429 l 1,4,-1
 718 758 l 1,5,-1
 1116 78 l 1,6,-1
 932 0 l 1,7,-1
 602 570 l 1,8,-1
 274 0 l 1,9,-1
 100 74 l 1,10,-1
 492 758 l 1,11,-1
 102 1431 l 1,0,-1
EndSplineSet
Validated: 1
EndChar

StartChar: Y
Encoding: 89 89 60
Width: 1388
GlyphClass: 2
Flags: W
HStem: 0 21G<598.957 642.043> 1491 20G<352.444 396.114 1142.96 1186.05>
VStem: 200 200<739.599 1421> 599 198<92 478.438> 990 198<743.183 1419>
LayerCount: 2
Fore
SplineSet
598 470 m 1,0,1
 470 492 470 492 338 578 c 0,2,3
 200 667 200 667 200 725 c 2,4,-1
 200 1421 l 1,5,-1
 396 1511 l 1,6,-1
 400 809 l 2,7,8
 400 760 400 760 490 710 c 0,9,10
 589 655 589 655 686 655 c 2,11,-1
 692 655 l 2,12,13
 790 655 790 655 906 717 c 0,14,15
 990 762 990 762 990 818 c 2,16,-1
 990 819 l 1,17,-1
 988 1419 l 1,18,-1
 1186 1511 l 1,19,-1
 1188 725 l 2,20,21
 1188 658 1188 658 1044 575 c 0,22,23
 903 494 903 494 796 471 c 1,24,-1
 797 92 l 1,25,-1
 599 0 l 1,26,-1
 598 470 l 1,0,1
EndSplineSet
Validated: 1
EndChar

StartChar: Z
Encoding: 90 90 61
Width: 1273
GlyphClass: 2
Flags: W
HStem: 20 190<464 1036> 1311 180<272 784>
DStem2: 150 20 464 210 0.440806 0.897603<308.957 1438.28>
LayerCount: 2
Fore
SplineSet
464 210 m 1,0,-1
 1123 206 l 1,1,-1
 1036 20 l 1,2,-1
 150 20 l 1,3,-1
 784 1311 l 1,4,-1
 191 1305 l 1,5,-1
 272 1491 l 1,6,-1
 1078 1491 l 1,7,-1
 464 210 l 1,0,-1
EndSplineSet
Validated: 1
EndChar

StartChar: bracketleft
Encoding: 91 91 62
Width: 774
GlyphClass: 2
Flags: W
HStem: -348 190<348 680> 1561 184<353 676>
VStem: 150 198<-158 1561>
LayerCount: 2
Fore
SplineSet
353 1561 m 1,0,-1
 348 -158 l 1,1,-1
 764 -158 l 1,2,-1
 680 -344 l 1,3,-1
 150 -348 l 1,4,-1
 152 1656 l 1,5,-1
 350 1745 l 1,6,-1
 764 1747 l 1,7,-1
 676 1560 l 1,8,-1
 353 1561 l 1,0,-1
EndSplineSet
Validated: 1
EndChar

StartChar: backslash
Encoding: 92 92 63
Width: 1065
GlyphClass: 2
Flags: W
DStem2: 190 1654 10 1572 0.435903 -0.899994<0 1982.02>
LayerCount: 2
Fore
SplineSet
1055 -132 m 1,0,-1
 876 -216 l 1,1,-1
 10 1572 l 1,2,-1
 190 1654 l 1,3,-1
 1055 -132 l 1,0,-1
EndSplineSet
Validated: 1
EndChar

StartChar: bracketright
Encoding: 93 93 64
Width: 774
GlyphClass: 2
Flags: W
HStem: -348 187<98 421> 1557 190<94 426>
VStem: 421 201<-162 1557>
LayerCount: 2
Fore
SplineSet
421 -162 m 1,0,-1
 426 1557 l 1,1,-1
 10 1557 l 1,2,-1
 94 1743 l 1,3,-1
 624 1747 l 1,4,-1
 622 -257 l 1,5,-1
 424 -346 l 1,6,-1
 10 -348 l 1,7,-1
 98 -161 l 1,8,-1
 421 -162 l 1,0,-1
EndSplineSet
Validated: 1
EndChar

StartChar: asciicircum
Encoding: 94 94 65
Width: 1180
GlyphClass: 2
Flags: W
HStem: 1062 456
DStem2: 80 1168 237 1062 0.83205 0.5547<71.8337 479.538>
LayerCount: 2
Fore
SplineSet
80 1168 m 1,0,-1
 605 1518 l 1,1,-1
 1100 1168 l 1,2,-1
 926 1062 l 1,3,-1
 581 1281 l 1,4,-1
 237 1062 l 1,5,-1
 80 1168 l 1,0,-1
EndSplineSet
Validated: 16385
EndChar

StartChar: underscore
Encoding: 95 95 66
Width: 1083
GlyphClass: 2
Flags: W
HStem: -537 198<170 911>
LayerCount: 2
Fore
SplineSet
170 -339 m 1,0,-1
 1003 -339 l 1,1,-1
 911 -537 l 1,2,-1
 80 -537 l 1,3,-1
 170 -339 l 1,0,-1
EndSplineSet
Validated: 1
EndChar

StartChar: grave
Encoding: 96 96 67
Width: 742
GlyphClass: 2
Flags: W
HStem: 1128 384
VStem: 150 442
DStem2: 280 1512 150 1386 0.770645 -0.637264<0 384.967>
LayerCount: 2
Fore
SplineSet
280 1512 m 1,0,-1
 592 1254 l 1,1,-1
 462 1128 l 1,2,-1
 150 1386 l 1,3,-1
 280 1512 l 1,0,-1
EndSplineSet
Validated: 16385
EndChar

StartChar: a
Encoding: 97 97 68
Width: 1084
GlyphClass: 2
Flags: W
HStem: 0 176<385.324 648> 938 182<386.272 691.826>
VStem: 130 199<229.391 884.822> 760 194<92 876.883>
LayerCount: 2
Fore
SplineSet
951 893 m 1,0,1
 952 892 952 892 954 92 c 1,2,-1
 756 0 l 1,3,4
 760 207 760 207 760 345 c 0,5,6
 760 368 760 368 760 397 c 2,7,-1
 758 826 l 2,8,9
 758 850 758 850 695 892 c 0,10,11
 626 938 626 938 544 938 c 0,12,13
 454 938 454 938 390 897 c 0,14,15
 324 855 324 855 324 828 c 2,16,-1
 329 284 l 2,17,18
 329 255 329 255 391 217 c 0,19,20
 458 176 458 176 541 176 c 0,21,22
 545 176 545 176 555 175 c 0,23,24
 576 173 576 173 590 174 c 0,25,26
 665 178 665 178 740 182 c 1,27,-1
 648 4 l 1,28,29
 604 0 604 0 548 0 c 0,30,31
 411 0 411 0 285 74 c 0,32,33
 149 155 149 155 134 240 c 0,34,35
 130 263 130 263 130 388 c 2,36,-1
 130 880 l 2,37,38
 130 957 130 957 280 1044 c 0,39,40
 411 1120 411 1120 541 1120 c 0,41,42
 548 1120 548 1120 554 1120 c 0,43,44
 680 1120 680 1120 820 1038 c 0,45,46
 951 961 951 961 951 893 c 1,0,1
EndSplineSet
Validated: 16385
EndChar

StartChar: b
Encoding: 98 98 69
Width: 1104
GlyphClass: 2
Flags: W
HStem: 0 182<406.27 714.424> 938 182<405.773 712.826> 1491 20G<304 348.045>
VStem: 152 194<237.918 883.006 1069 1421> 780 194<240.686 878.094>
LayerCount: 2
Fore
SplineSet
150 1421 m 1,0,-1
 348 1511 l 1,1,-1
 349 1069 l 1,2,3
 456 1120 456 1120 562 1120 c 2,4,-1
 575 1120 l 2,5,6
 701 1120 701 1120 841 1038 c 0,7,8
 973 960 973 960 973 888 c 2,9,-1
 974 232 l 2,10,11
 974 159 974 159 842 82 c 0,12,13
 701 0 701 0 561 0 c 0,14,15
 424 0 424 0 298 74 c 0,16,17
 152 160 152 160 152 237 c 2,18,-1
 152 240 l 1,19,-1
 150 1421 l 1,0,-1
565 938 m 0,20,21
 475 938 475 938 411 897 c 0,22,23
 345 855 345 855 345 828 c 2,24,-1
 346 292 l 2,25,26
 346 264 346 264 412 223 c 128,-1,27
 478 182 478 182 562 182 c 2,28,-1
 566 182 l 2,29,30
 648 182 648 182 717 228 c 0,31,32
 780 270 780 270 780 294 c 2,33,-1
 779 826 l 2,34,35
 779 850 779 850 716 892 c 0,36,37
 647 938 647 938 565 938 c 0,20,21
EndSplineSet
Validated: 16385
EndChar

StartChar: c
Encoding: 99 99 70
Width: 1084
GlyphClass: 2
Flags: W
HStem: 0 182<386.27 693.928> 938 182<386.272 691.826>
VStem: 132 194<237.918 882.409> 760 192<240.686 401 694 876.883>
LayerCount: 2
Fore
SplineSet
760 401 m 1,0,-1
 952 488 l 1,1,-1
 954 232 l 1,2,3
 954 232 954 232 954 231 c 0,4,5
 954 158 954 158 822 82 c 0,6,7
 680 0 680 0 541 0 c 0,8,9
 404 0 404 0 278 74 c 0,10,11
 132 160 132 160 132 237 c 0,12,13
 132 238 132 238 132 240 c 2,14,-1
 130 880 l 2,15,16
 130 957 130 957 280 1044 c 0,17,18
 411 1120 411 1120 541 1120 c 0,19,20
 548 1120 548 1120 554 1120 c 0,21,22
 680 1120 680 1120 820 1038 c 0,23,24
 952 960 952 960 952 888 c 2,25,-1
 952 694 l 1,26,-1
 756 606 l 1,27,-1
 758 826 l 2,28,29
 758 850 758 850 695 892 c 0,30,31
 626 938 626 938 544 938 c 0,32,33
 454 938 454 938 390 897 c 0,34,35
 324 855 324 855 324 828 c 2,36,-1
 326 292 l 2,37,38
 326 264 326 264 392 223 c 128,-1,39
 458 182 458 182 542 182 c 0,40,41
 544 182 544 182 546 182 c 0,42,43
 628 182 628 182 697 228 c 0,44,45
 760 270 760 270 760 294 c 2,46,-1
 760 401 l 1,0,-1
EndSplineSet
Validated: 16385
EndChar

StartChar: d
Encoding: 100 100 71
Width: 1105
GlyphClass: 2
Flags: W
HStem: 0 182<389.576 697.73> 938 182<391.676 699.227> 1491 20G<910 954.953>
VStem: 130 194<240.686 876.883> 758 194<237.918 884.241 1069 1423>
LayerCount: 2
Fore
SplineSet
955 1511 m 1,0,-1
 952 240 l 1,1,-1
 952 237 l 2,2,3
 952 160 952 160 806 74 c 0,4,5
 680 0 680 0 543 0 c 0,6,7
 403 0 403 0 262 82 c 0,8,9
 130 159 130 159 130 232 c 1,10,11
 132 232 132 232 132 888 c 0,12,13
 132 960 132 960 264 1038 c 0,14,15
 403 1120 403 1120 530 1120 c 2,16,-1
 543 1120 l 2,17,18
 649 1120 649 1120 756 1069 c 1,19,-1
 757 1423 l 1,20,-1
 955 1511 l 1,0,-1
540 938 m 0,21,22
 458 938 458 938 389 892 c 0,23,24
 326 850 326 850 326 826 c 2,25,-1
 324 294 l 2,26,27
 324 270 324 270 387 228 c 0,28,29
 456 182 456 182 538 182 c 2,30,-1
 542 182 l 2,31,32
 626 182 626 182 692 223 c 128,-1,33
 758 264 758 264 758 292 c 2,34,-1
 760 828 l 2,35,36
 760 855 760 855 694 897 c 0,37,38
 630 938 630 938 540 938 c 0,21,22
EndSplineSet
Validated: 16385
EndChar

StartChar: e
Encoding: 101 101 72
Width: 1084
GlyphClass: 2
Flags: W
HStem: 0 182<386.27 693.928> 938 182<386.272 691.826>
VStem: 132 194<237.918 410 600 882.409> 760 192<240.686 401 799 876.883>
DStem2: 325 600 326 410 0.910665 0.413145<0 476.534>
LayerCount: 2
Fore
SplineSet
326 410 m 1,0,-1
 326 292 l 2,1,2
 326 264 326 264 392 223 c 128,-1,3
 458 182 458 182 542 182 c 2,4,-1
 546 182 l 2,5,6
 628 182 628 182 697 228 c 0,7,8
 760 270 760 270 760 294 c 2,9,-1
 760 401 l 1,10,-1
 952 488 l 1,11,-1
 954 232 l 1,12,13
 954 232 954 232 954 231 c 0,14,15
 954 158 954 158 822 82 c 0,16,17
 680 0 680 0 541 0 c 0,18,19
 404 0 404 0 278 74 c 0,20,21
 132 160 132 160 132 237 c 2,22,-1
 132 240 l 1,23,-1
 130 880 l 2,24,25
 130 957 130 957 280 1044 c 0,26,27
 411 1120 411 1120 541 1120 c 2,28,-1
 554 1120 l 2,29,30
 680 1120 680 1120 820 1038 c 0,31,32
 952 960 952 960 952 888 c 2,33,-1
 952 694 l 1,34,-1
 326 410 l 1,0,-1
325 600 m 1,35,-1
 758 799 l 1,36,-1
 758 826 l 2,37,38
 758 850 758 850 695 892 c 0,39,40
 626 938 626 938 544 938 c 0,41,42
 454 938 454 938 390 897 c 0,43,44
 324 855 324 855 324 828 c 2,45,-1
 325 600 l 1,35,-1
EndSplineSet
Validated: 16385
EndChar

StartChar: f
Encoding: 102 102 73
Width: 746
GlyphClass: 2
Flags: W
HStem: 0 21G<150 189.794> 923 175<345 626> 1306 185<403.958 647>
VStem: 150 194<97 923 1098 1250.78>
LayerCount: 2
Fore
SplineSet
150 0 m 1,0,-1
 150 1249 l 2,1,2
 150 1326 150 1326 300 1413 c 0,3,4
 434 1491 434 1491 583 1491 c 2,5,-1
 596 1491 l 1,6,-1
 736 1491 l 1,7,-1
 647 1306 l 1,8,-1
 581 1306 l 2,9,10
 473 1306 473 1306 410 1266 c 0,11,12
 344 1224 344 1224 344 1197 c 2,13,-1
 344 1098 l 1,14,-1
 709 1098 l 1,15,-1
 626 922 l 1,16,-1
 345 923 l 1,17,-1
 343 97 l 1,18,-1
 150 0 l 1,0,-1
EndSplineSet
Validated: 1
EndChar

StartChar: g
Encoding: 103 103 74
Width: 1102
GlyphClass: 2
Flags: W
HStem: -404 185<301 698.042> 0 182<386.27 693.369> 938 182<386.272 691.826>
VStem: 132 194<237.918 882.409> 758 194<-163.777 49 239.457 879.314>
LayerCount: 2
Fore
SplineSet
952 -162 m 2,0,1
 952 -239 952 -239 802 -326 c 0,2,3
 667 -404 667 -404 519 -404 c 2,4,-1
 506 -404 l 1,5,-1
 212 -404 l 1,6,-1
 301 -219 l 1,7,-1
 521 -219 l 2,8,9
 629 -219 629 -219 692 -179 c 0,10,11
 758 -137 758 -137 758 -110 c 2,12,-1
 758 49 l 1,13,14
 649 0 649 0 541 0 c 0,15,16
 404 0 404 0 278 74 c 0,17,18
 132 160 132 160 132 237 c 2,19,-1
 132 240 l 1,20,-1
 130 880 l 2,21,22
 130 957 130 957 280 1044 c 0,23,24
 411 1120 411 1120 541 1120 c 2,25,-1
 554 1120 l 2,26,27
 680 1120 680 1120 820 1038 c 0,28,29
 952 960 952 960 952 888 c 2,30,-1
 952 -162 l 2,0,1
544 938 m 0,31,32
 454 938 454 938 390 897 c 0,33,34
 324 855 324 855 324 828 c 2,35,-1
 326 292 l 2,36,37
 326 264 326 264 392 223 c 128,-1,38
 458 182 458 182 542 182 c 2,39,-1
 546 182 l 2,40,41
 628 182 628 182 697 228 c 0,42,43
 760 270 760 270 760 294 c 2,44,-1
 758 826 l 2,45,46
 758 850 758 850 695 892 c 0,47,48
 626 938 626 938 544 938 c 0,31,32
EndSplineSet
Validated: 16385
EndChar

StartChar: h
Encoding: 104 104 75
Width: 1105
GlyphClass: 2
Flags: W
HStem: 0 21G<150.014 191.25 782.903 823.851> 938 182<405.773 712.826> 1491 20G<305 349>
VStem: 151 198<96 884.266 1069 1421> 783 192<94 875.68>
LayerCount: 2
Fore
SplineSet
349 1069 m 1,0,1
 456 1120 456 1120 562 1120 c 2,2,-1
 575 1120 l 2,3,4
 701 1120 701 1120 841 1038 c 0,5,6
 973 960 973 960 973 888 c 2,7,-1
 975 94 l 1,8,-1
 783 0 l 1,9,-1
 779 826 l 2,10,11
 779 850 779 850 716 892 c 0,12,13
 647 938 647 938 565 938 c 0,14,15
 472 938 472 938 411 897 c 0,16,17
 349 855 349 855 349 829 c 2,18,-1
 348 96 l 1,19,-1
 150 0 l 1,20,-1
 151 1421 l 1,21,-1
 349 1511 l 1,22,-1
 349 1069 l 1,0,1
EndSplineSet
Validated: 16385
EndChar

StartChar: i
Encoding: 105 105 76
Width: 496
GlyphClass: 2
Flags: W
HStem: 0 21G<150 194.545> 1100 20G<299.333 346> 1248 264<157.191 338.809>
VStem: 118 260<1287.71 1472.29> 150 196<88 1036>
LayerCount: 2
Fore
SplineSet
346 88 m 1,0,-1
 150 0 l 1,1,-1
 150 1036 l 1,2,-1
 346 1120 l 1,3,-1
 346 88 l 1,0,-1
118 1380 m 128,-1,5
 118 1435 118 1435 156 1473.5 c 128,-1,6
 194 1512 194 1512 248 1512 c 128,-1,7
 302 1512 302 1512 340 1473.5 c 128,-1,8
 378 1435 378 1435 378 1380 c 128,-1,9
 378 1325 378 1325 340 1286.5 c 128,-1,10
 302 1248 302 1248 248 1248 c 128,-1,11
 194 1248 194 1248 156 1286.5 c 128,-1,4
 118 1325 118 1325 118 1380 c 128,-1,5
EndSplineSet
Validated: 16385
EndChar

StartChar: j
Encoding: 106 106 77
Width: 496
GlyphClass: 2
Flags: W
HStem: 1100 20G<300.943 346> 1248 264<157.191 338.809>
VStem: 118 260<1287.71 1472.29> 152 194<-157.387 1033>
LayerCount: 2
Fore
SplineSet
5 -388 m 9,0,-1
 65 -181 l 17,1,2
 76 -178 76 -178 86 -172 c 0,3,4
 152 -132 152 -132 152 -103 c 2,5,-1
 150 1033 l 1,6,-1
 346 1120 l 1,7,-1
 346 -155 l 2,8,9
 346 -232 346 -232 196 -319 c 0,10,11
 104 -372 104 -372 5 -388 c 9,0,-1
118 1380 m 128,-1,13
 118 1435 118 1435 156 1473.5 c 128,-1,14
 194 1512 194 1512 248 1512 c 128,-1,15
 302 1512 302 1512 340 1473.5 c 128,-1,16
 378 1435 378 1435 378 1380 c 128,-1,17
 378 1325 378 1325 340 1286.5 c 128,-1,18
 302 1248 302 1248 248 1248 c 128,-1,19
 194 1248 194 1248 156 1286.5 c 128,-1,12
 118 1325 118 1325 118 1380 c 128,-1,13
EndSplineSet
Validated: 1
EndChar

StartChar: k
Encoding: 107 107 78
Width: 1110
GlyphClass: 2
Flags: W
HStem: 0 21G<150 190.851 782.103 826> 498 182<576 713.826> 1100 20G<821.873 861.133> 1491 20G<307.447 350.051>
VStem: 150 200<94 444.529 726 1417> 782 198<90 437.839>
DStem2: 352 726 576 680 0.782408 0.622766<146.612 622.182>
LayerCount: 2
Fore
SplineSet
576 680 m 1,0,1
 702 680 702 680 842 598 c 1,2,3
 973 520 973 520 974 448 c 2,4,-1
 980 90 l 1,5,-1
 782 0 l 1,6,-1
 784 387 l 2,7,8
 784 409 784 409 717 452 c 0,9,10
 645 498 645 498 566 498 c 0,11,12
 473 498 473 498 412 457 c 128,-1,13
 351 416 351 416 350 389 c 2,14,-1
 342 94 l 1,15,-1
 150 0 l 1,16,-1
 150 1417 l 1,17,-1
 350 1511 l 1,18,-1
 352 726 l 1,19,-1
 847 1120 l 1,20,-1
 953 970 l 1,21,-1
 576 680 l 1,0,1
EndSplineSet
Validated: 16385
EndChar

StartChar: l
Encoding: 108 108 79
Width: 499
GlyphClass: 2
Flags: W
HStem: 0 21G<150.014 191.25> 1491 20G<305 348.986>
VStem: 150 198<96 1421>
LayerCount: 2
Fore
SplineSet
348 96 m 1,0,-1
 150 0 l 1,1,-1
 151 1421 l 1,2,-1
 349 1511 l 1,3,-1
 348 96 l 1,0,-1
EndSplineSet
Validated: 1
EndChar

StartChar: m
Encoding: 109 109 80
Width: 1708
GlyphClass: 2
Flags: W
HStem: 0 21G<130 171.72 756 797.702 1382.05 1423.7> 938 182<387.237 692.81 1010.83 1320.99>
VStem: 130 194<93 881.777> 756 196<94 880.183> 1382 196<94 882.543>
LayerCount: 2
Fore
SplineSet
130 880 m 2,0,1
 130 958 130 958 280 1044 c 0,2,3
 413 1120 413 1120 541 1120 c 2,4,-1
 554 1120 l 2,5,6
 683 1120 683 1120 820 1038 c 0,7,8
 840 1026 840 1026 857 1015 c 1,9,10
 879 1030 879 1030 906 1046 c 0,11,12
 1034 1122 1034 1122 1167 1122 c 2,13,-1
 1180 1122 l 2,14,15
 1306 1122 1306 1122 1446 1040 c 0,16,17
 1578 962 1578 962 1578 890 c 2,18,-1
 1578 94 l 1,19,-1
 1382 0 l 1,20,-1
 1384 828 l 2,21,22
 1384 852 1384 852 1321 894 c 0,23,24
 1252 940 1252 940 1170 940 c 0,25,26
 1079 940 1079 940 1016 899 c 0,27,28
 962 864 962 864 952 840 c 1,29,-1
 952 94 l 1,30,-1
 756 0 l 1,31,-1
 756 834 l 1,32,33
 748 857 748 857 695 892 c 0,34,35
 625 938 625 938 544 938 c 0,36,37
 454 938 454 938 390 897 c 0,38,39
 324 855 324 855 324 828 c 2,40,-1
 324 93 l 1,41,-1
 130 0 l 1,42,-1
 130 880 l 2,0,1
EndSplineSet
Validated: 16385
EndChar

StartChar: n
Encoding: 110 110 81
Width: 1082
GlyphClass: 2
Flags: W
HStem: 0 21G<130 171.72 756.048 797.702> 938 182<387.237 691.826>
VStem: 130 194<93 881.777> 756 196<94 880.543>
LayerCount: 2
Fore
SplineSet
130 880 m 2,0,1
 130 958 130 958 280 1044 c 0,2,3
 413 1120 413 1120 541 1120 c 0,4,5
 548 1120 548 1120 554 1120 c 0,6,7
 680 1120 680 1120 820 1038 c 0,8,9
 952 960 952 960 952 888 c 2,10,-1
 952 94 l 1,11,-1
 756 0 l 1,12,-1
 758 826 l 2,13,14
 758 850 758 850 695 892 c 0,15,16
 626 938 626 938 544 938 c 0,17,18
 454 938 454 938 390 897 c 0,19,20
 324 855 324 855 324 828 c 2,21,-1
 324 93 l 1,22,-1
 130 0 l 1,23,-1
 130 880 l 2,0,1
EndSplineSet
Validated: 16385
EndChar

StartChar: o
Encoding: 111 111 82
Width: 1084
GlyphClass: 2
Flags: W
HStem: 0 182<386.27 694.424> 938 182<386.272 691.826>
VStem: 132 194<237.918 882.409> 760 194<240.686 876.883>
LayerCount: 2
Fore
SplineSet
544 938 m 0,0,1
 454 938 454 938 390 897 c 0,2,3
 324 855 324 855 324 828 c 2,4,-1
 326 292 l 2,5,6
 326 264 326 264 392 223 c 128,-1,7
 458 182 458 182 542 182 c 0,8,9
 544 182 544 182 546 182 c 0,10,11
 628 182 628 182 697 228 c 0,12,13
 760 270 760 270 760 294 c 2,14,-1
 758 826 l 2,15,16
 758 850 758 850 695 892 c 0,17,18
 626 938 626 938 544 938 c 0,0,1
541 0 m 0,19,20
 404 0 404 0 278 74 c 0,21,22
 132 160 132 160 132 237 c 0,23,24
 132 238 132 238 132 240 c 2,25,-1
 130 880 l 2,26,27
 130 957 130 957 280 1044 c 0,28,29
 411 1120 411 1120 541 1120 c 0,30,31
 548 1120 548 1120 554 1120 c 0,32,33
 680 1120 680 1120 820 1038 c 0,34,35
 952 960 952 960 952 888 c 2,36,-1
 954 232 l 2,37,38
 954 159 954 159 822 82 c 0,39,40
 681 0 681 0 541 0 c 0,19,20
EndSplineSet
Validated: 16385
EndChar

StartChar: p
Encoding: 112 112 83
Width: 1104
GlyphClass: 2
Flags: W
HStem: -398 21G<150.031 195> 0 182<404.773 712.324> 938 182<406.27 714.424>
VStem: 150 198<-310 51 234.516 884.505> 778 194<240.686 880.543>
LayerCount: 2
Fore
SplineSet
150 -398 m 1,0,-1
 152 880 l 1,1,-1
 152 883 l 2,2,3
 152 960 152 960 298 1046 c 0,4,5
 424 1120 424 1120 561 1120 c 0,6,7
 701 1120 701 1120 842 1038 c 0,8,9
 974 961 974 961 974 888 c 1,10,11
 972 888 972 888 972 232 c 0,12,13
 972 160 972 160 840 82 c 0,14,15
 701 0 701 0 574 0 c 2,16,-1
 561 0 l 2,17,18
 455 0 455 0 348 51 c 1,19,-1
 348 -310 l 1,20,-1
 150 -398 l 1,0,-1
564 182 m 0,21,22
 646 182 646 182 715 228 c 0,23,24
 778 270 778 270 778 294 c 2,25,-1
 780 826 l 2,26,27
 780 850 780 850 717 892 c 0,28,29
 648 938 648 938 566 938 c 2,30,-1
 562 938 l 2,31,32
 478 938 478 938 412 897 c 128,-1,33
 346 856 346 856 346 828 c 2,34,-1
 344 292 l 2,35,36
 344 265 344 265 410 223 c 0,37,38
 474 182 474 182 564 182 c 0,21,22
EndSplineSet
Validated: 16385
EndChar

StartChar: q
Encoding: 113 113 84
Width: 1105
GlyphClass: 2
Flags: W
HStem: -398 21G<756.955 796.425> 0 182<392.174 699.227> 938 182<389.576 697.73>
VStem: 132 194<240.686 880.543> 758 194<-94 51 235.759 882.082>
LayerCount: 2
Fore
SplineSet
540 182 m 0,0,1
 630 182 630 182 694 223 c 0,2,3
 760 265 760 265 760 292 c 2,4,-1
 758 828 l 2,5,6
 758 856 758 856 692 897 c 128,-1,7
 626 938 626 938 542 938 c 2,8,-1
 538 938 l 2,9,10
 456 938 456 938 387 892 c 0,11,12
 324 850 324 850 324 826 c 2,13,-1
 326 294 l 2,14,15
 326 270 326 270 389 228 c 0,16,17
 458 182 458 182 540 182 c 0,0,1
757 -398 m 1,18,-1
 756 51 l 1,19,20
 649 0 649 0 543 0 c 2,21,-1
 530 0 l 2,22,23
 404 0 404 0 264 82 c 0,24,25
 132 160 132 160 132 232 c 2,26,-1
 130 888 l 2,27,28
 130 961 130 961 262 1038 c 0,29,30
 403 1120 403 1120 543 1120 c 0,31,32
 680 1120 680 1120 806 1046 c 0,33,34
 952 960 952 960 952 883 c 2,35,-1
 952 880 l 1,36,-1
 955 -94 l 1,37,-1
 1100 -26 l 1,38,-1
 1100 -224 l 1,39,-1
 757 -398 l 1,18,-1
EndSplineSet
Validated: 1
EndChar

StartChar: r
Encoding: 114 114 85
Width: 666
GlyphClass: 2
Flags: W
HStem: 0 21G<154.886 194.794> 935 185<403.958 572>
VStem: 155 193<97 882.822>
LayerCount: 2
Fore
SplineSet
155 0 m 1,0,-1
 150 878 l 2,1,2
 150 955 150 955 300 1042 c 0,3,4
 434 1120 434 1120 583 1120 c 0,5,6
 590 1120 590 1120 596 1120 c 2,7,-1
 661 1120 l 1,8,-1
 572 935 l 1,9,-1
 556 935 l 2,10,11
 472 935 472 935 410 895 c 0,12,13
 344 852 344 852 344 826 c 2,14,-1
 348 97 l 1,15,-1
 155 0 l 1,0,-1
EndSplineSet
Validated: 1
EndChar

StartChar: s
Encoding: 115 115 86
Width: 1069
GlyphClass: 2
Flags: W
HStem: 0 182<384.174 689.08> 938 182<405.838 667.852>
VStem: 124 194<240.422 356> 170 194<716.69 894.608> 702 196<806 903.438> 752 194<238.527 452.188>
DStem2: 440 706 332 544 0.974284 -0.225323<-88.9775 372.595>
LayerCount: 2
Fore
SplineSet
752 405 m 2,0,1
 752 449 752 449 639 473 c 1,2,-1
 332 544 l 1,3,4
 171 594 171 594 171 685 c 2,5,-1
 170 888 l 1,6,-1
 170 891 l 1,7,8
 229 1007 229 1007 316 1054 c 0,9,10
 439 1120 439 1120 521 1120 c 0,11,12
 524 1120 524 1120 528 1120 c 0,13,14
 653 1120 653 1120 764 1059 c 0,15,16
 896 986 896 986 896 909 c 1,17,-1
 898 806 l 1,18,-1
 702 719 l 1,19,-1
 702 847 l 2,20,21
 702 874 702 874 644 913 c 0,22,23
 607 938 607 938 533 938 c 0,24,25
 531 938 531 938 529 938 c 0,26,27
 469 938 469 938 424 907 c 0,28,29
 365 866 365 866 364 836 c 2,30,-1
 362 783 l 1,31,32
 362 724 362 724 440 706 c 0,33,34
 622 664 622 664 809 611 c 0,35,36
 937 575 937 575 949 452 c 1,37,-1
 946 240 l 1,38,39
 946 162 946 162 796 76 c 0,40,41
 664 0 664 0 534 0 c 0,42,43
 528 0 528 0 522 0 c 0,44,45
 396 0 396 0 256 82 c 0,46,47
 126 158 126 158 124 232 c 2,48,-1
 120 356 l 1,49,-1
 316 444 l 1,50,-1
 318 294 l 2,51,52
 318 269 318 269 380 228 c 0,53,54
 450 182 450 182 532 182 c 0,55,56
 623 182 623 182 686 223 c 0,57,58
 752 266 752 266 752 292 c 2,59,-1
 752 405 l 2,0,1
EndSplineSet
Validated: 16385
EndChar

StartChar: t
Encoding: 116 116 87
Width: 794
GlyphClass: 2
Flags: W
HStem: 0 21G<291.087 332.263> 918 182<83 292 492 707> 1491 20G<444.909 488.951>
VStem: 295 197<95 918 1100 1423>
LayerCount: 2
Fore
SplineSet
487 95 m 1,0,-1
 291 0 l 1,1,-1
 295 918 l 1,2,-1
 5 918 l 1,3,-1
 83 1100 l 1,4,-1
 292 1100 l 1,5,-1
 295 1423 l 1,6,-1
 489 1511 l 1,7,-1
 488 1100 l 1,8,-1
 789 1100 l 1,9,-1
 707 918 l 1,10,-1
 492 918 l 1,11,-1
 487 95 l 1,0,-1
EndSplineSet
Validated: 1
EndChar

StartChar: u
Encoding: 117 117 88
Width: 1082
GlyphClass: 2
Flags: W
HStem: 0 182<390.174 694.763> 1100 20G<284.298 325.952 910.28 952>
VStem: 130 194<240.686 1026> 758 194<238.223 1027>
LayerCount: 2
Fore
SplineSet
952 240 m 2,0,1
 952 162 952 162 802 76 c 0,2,3
 669 0 669 0 541 0 c 0,4,5
 534 0 534 0 528 0 c 0,6,7
 402 0 402 0 262 82 c 0,8,9
 130 160 130 160 130 232 c 2,10,-1
 130 1026 l 1,11,-1
 326 1120 l 1,12,-1
 324 294 l 2,13,14
 324 270 324 270 387 228 c 0,15,16
 456 182 456 182 538 182 c 0,17,18
 628 182 628 182 692 223 c 0,19,20
 758 265 758 265 758 292 c 2,21,-1
 758 1027 l 1,22,-1
 952 1120 l 1,23,-1
 952 240 l 2,0,1
EndSplineSet
Validated: 16385
EndChar

StartChar: v
Encoding: 118 118 89
Width: 1106
GlyphClass: 2
Flags: W
HStem: 0 21G<445.815 497.415> 1100 20G<173.238 225.98 897.034 951.333>
DStem2: 218 1120 30 1036 0.378772 -0.92549<6.53203 874.22> 542 308 632 82 0.418699 0.908125<0 889.804>
LayerCount: 2
Fore
SplineSet
632 82 m 1,0,-1
 454 0 l 1,1,-1
 30 1036 l 1,2,-1
 218 1120 l 1,3,-1
 542 308 l 1,4,-1
 906 1120 l 1,5,-1
 1076 1045 l 1,6,-1
 632 82 l 1,0,-1
EndSplineSet
Validated: 16385
EndChar

StartChar: w
Encoding: 119 119 90
Width: 1708
GlyphClass: 2
Flags: W
HStem: 0 182<390.174 696.966 1019.59 1320.05> 1102 20G<284.298 325.952 910.298 952 1536.28 1578>
VStem: 130 194<240.686 1028> 756 196<241.817 1028> 1384 194<240.223 1029>
CounterMasks: 1 38
LayerCount: 2
Fore
SplineSet
1578 242 m 2,0,1
 1578 164 1578 164 1428 78 c 0,2,3
 1295 2 1295 2 1167 2 c 2,4,-1
 1154 2 l 2,5,6
 1025 2 1025 2 888 84 c 0,7,8
 868 96 868 96 851 107 c 1,9,10
 829 92 829 92 802 76 c 0,11,12
 674 0 674 0 541 0 c 2,13,-1
 528 0 l 2,14,15
 402 0 402 0 262 82 c 0,16,17
 130 160 130 160 130 232 c 2,18,-1
 130 1028 l 1,19,-1
 326 1122 l 1,20,-1
 324 294 l 2,21,22
 324 270 324 270 387 228 c 0,23,24
 456 182 456 182 538 182 c 0,25,26
 629 182 629 182 692 223 c 0,27,28
 746 258 746 258 756 282 c 1,29,-1
 756 1028 l 1,30,-1
 952 1122 l 1,31,-1
 952 288 l 1,32,33
 960 265 960 265 1013 230 c 0,34,35
 1083 184 1083 184 1164 184 c 0,36,37
 1254 184 1254 184 1318 225 c 0,38,39
 1384 267 1384 267 1384 294 c 2,40,-1
 1384 1029 l 1,41,-1
 1578 1122 l 1,42,-1
 1578 242 l 2,0,1
EndSplineSet
Validated: 16385
EndChar

StartChar: x
Encoding: 120 120 91
Width: 990
GlyphClass: 2
Flags: W
HStem: 0 21G<155.263 214.564 767.536 824.927> 1100 20G<172.146 232.015 767.166 824.381>
DStem2: 218 1120 30 1038 0.586686 -0.809814<0 477.389 743.009 1237.88> 30 76 200 0 0.584468 0.811416<37.692 533.735 799.879 1286.64>
LayerCount: 2
Fore
SplineSet
30 1038 m 1,0,-1
 218 1120 l 1,1,-1
 492 729 l 1,2,-1
 782 1120 l 1,3,-1
 960 1036 l 1,4,-1
 606 580 l 1,5,-1
 958 82 l 1,6,-1
 782 0 l 1,7,-1
 492 401 l 1,8,-1
 200 0 l 1,9,-1
 30 76 l 1,10,-1
 377 556 l 1,11,-1
 30 1038 l 1,0,-1
EndSplineSet
Validated: 16385
EndChar

StartChar: y
Encoding: 121 121 92
Width: 1102
GlyphClass: 2
Flags: W
HStem: -404 185<301 698.042> 0 182<391.174 697.25> 1100 20G<273.659 320.121 901.659 948.062>
VStem: 131 194<240.686 1038> 758 194<-163.777 52 236.994 1038>
LayerCount: 2
Fore
SplineSet
948 1120 m 1,0,-1
 952 -162 l 2,1,2
 952 -239 952 -239 802 -326 c 0,3,4
 668 -404 668 -404 519 -404 c 2,5,-1
 506 -404 l 1,6,-1
 212 -404 l 1,7,-1
 301 -219 l 1,8,-1
 521 -219 l 2,9,10
 629 -219 629 -219 692 -179 c 0,11,12
 758 -137 758 -137 758 -110 c 2,13,-1
 758 52 l 1,14,15
 650 0 650 0 542 0 c 2,16,-1
 529 0 l 2,17,18
 403 0 403 0 263 82 c 0,19,20
 131 160 131 160 131 232 c 2,21,-1
 130 1038 l 1,22,-1
 320 1120 l 1,23,-1
 325 294 l 2,24,25
 325 270 325 270 388 228 c 0,26,27
 457 182 457 182 539 182 c 0,28,29
 629 182 629 182 693 223 c 0,30,31
 759 265 759 265 759 292 c 2,32,-1
 758 1038 l 1,33,-1
 948 1120 l 1,0,-1
EndSplineSet
Validated: 16385
EndChar

StartChar: z
Encoding: 122 122 93
Width: 1025
GlyphClass: 2
Flags: W
HStem: 20 172<402 844> 934 166<209 625>
DStem2: 100 20 402 192 0.498079 0.867132<299.566 1054.05>
LayerCount: 2
Fore
SplineSet
402 192 m 1,0,-1
 923 192 l 1,1,-1
 844 20 l 1,2,-1
 100 20 l 1,3,-1
 625 934 l 1,4,-1
 131 934 l 1,5,-1
 209 1100 l 1,6,-1
 925 1100 l 1,7,-1
 402 192 l 1,0,-1
EndSplineSet
Validated: 19457
EndChar

StartChar: braceleft
Encoding: 123 123 94
Width: 788
GlyphClass: 2
Flags: W
HStem: -336 182<528.962 694> 612 198<99 246> 1587 183<525.437 691>
VStem: 246 195<-69.6123 612 808 1503.48>
LayerCount: 2
Fore
SplineSet
694 -336 m 1,0,-1
 659 -336 l 2,1,2
 489 -336 489 -336 368 -213 c 128,-1,3
 247 -90 247 -90 247 78 c 2,4,-1
 247 199 l 1,5,-1
 246 612 l 1,6,-1
 10 612 l 1,7,-1
 99 810 l 1,8,-1
 246 808 l 1,9,-1
 246 1332 l 1,10,-1
 247 1357 l 2,11,12
 254 1532 254 1532 368 1648 c 0,13,14
 489 1771 489 1771 649 1771 c 0,15,16
 654 1771 654 1771 659 1771 c 2,17,-1
 696 1770 l 1,18,-1
 776 1770 l 1,19,-1
 691 1587 l 1,20,-1
 675 1587 l 1,21,-1
 659 1589 l 1,22,23
 575 1589 575 1589 511 1533 c 0,24,25
 441 1472 441 1472 441 1372 c 2,26,-1
 441 1349 l 1,27,-1
 441 86 l 1,28,-1
 441 63 l 2,29,30
 441 -37 441 -37 511 -98 c 0,31,32
 575 -154 575 -154 659 -154 c 2,33,-1
 688 -154 l 1,34,-1
 778 -152 l 1,35,-1
 694 -336 l 1,0,-1
EndSplineSet
Validated: 1
EndChar

StartChar: bar
Encoding: 124 124 95
Width: 537
GlyphClass: 2
Flags: W
VStem: 170 197<-140 1560>
LayerCount: 2
Fore
SplineSet
367 -140 m 1,0,-1
 170 -232 l 1,1,-1
 170 1560 l 1,2,-1
 368 1649 l 1,3,-1
 367 -140 l 1,0,-1
EndSplineSet
Validated: 1
EndChar

StartChar: braceright
Encoding: 125 125 96
Width: 788
GlyphClass: 2
Flags: W
HStem: -335 183<97 262.563> 627 196<542 689> 1589 182<94 259.038>
VStem: 347 195<-68.4797 627 823 1504.61>
LayerCount: 2
Fore
SplineSet
94 1771 m 1,0,-1
 129 1771 l 2,1,2
 299 1771 299 1771 420 1648 c 128,-1,3
 541 1525 541 1525 541 1357 c 2,4,-1
 541 1236 l 1,5,-1
 542 823 l 1,6,-1
 778 823 l 1,7,-1
 689 625 l 1,8,-1
 542 627 l 1,9,-1
 542 103 l 1,10,-1
 541 78 l 2,11,12
 534 -97 534 -97 420 -213 c 0,13,14
 299 -336 299 -336 139 -336 c 0,15,16
 134 -336 134 -336 129 -336 c 2,17,-1
 92 -335 l 1,18,-1
 12 -335 l 1,19,-1
 97 -152 l 1,20,-1
 113 -152 l 1,21,-1
 129 -154 l 1,22,23
 213 -154 213 -154 277 -98 c 0,24,25
 347 -37 347 -37 347 63 c 2,26,-1
 347 86 l 1,27,-1
 347 1349 l 1,28,-1
 347 1372 l 2,29,30
 347 1472 347 1472 277 1533 c 0,31,32
 213 1589 213 1589 129 1589 c 2,33,-1
 100 1589 l 1,34,-1
 10 1587 l 1,35,-1
 94 1771 l 1,0,-1
EndSplineSet
Validated: 1
EndChar

StartChar: asciitilde
Encoding: 126 126 97
Width: 1116
GlyphClass: 2
Flags: W
HStem: 527 184<659.36 828.277> 676 183<307.308 474>
DStem2: 416 846 379 670 0.930468 -0.366372<4.91525 387.713>
LayerCount: 2
Fore
SplineSet
379 670 m 2,0,1
 365 676 365 676 354 676 c 0,2,3
 305 674 305 674 285 580 c 1,4,-1
 80 506 l 1,5,-1
 83 541 l 1,6,-1
 86 571 l 1,7,8
 112 846 112 846 342 859 c 0,9,10
 360 860 360 860 373 858 c 0,11,12
 388 856 388 856 416 846 c 0,13,14
 609 777 609 777 746 719 c 0,15,16
 765 711 765 711 780 711 c 0,17,18
 828 712 828 712 833 787 c 0,19,20
 834 802 834 802 834 808 c 1,21,-1
 1036 880 l 1,22,-1
 1035 845 l 1,23,-1
 1031 795 l 2,24,25
 1010 527 1010 527 796 527 c 0,26,27
 779 527 779 527 760 529 c 0,28,29
 727 532 727 532 699 544 c 2,30,-1
 379 670 l 2,0,1
EndSplineSet
Validated: 16385
EndChar

StartChar: exclamdown
Encoding: 161 161 99
Width: 600
GlyphClass: 2
Flags: W
HStem: 0 21G<202 246.444> 1247 264<209.191 390.809>
VStem: 170 260<1286.71 1471.29> 202 200<90 1107>
LayerCount: 2
Fore
SplineSet
430 1379 m 128,-1,1
 430 1324 430 1324 392 1285.5 c 128,-1,2
 354 1247 354 1247 300 1247 c 128,-1,3
 246 1247 246 1247 208 1285.5 c 128,-1,4
 170 1324 170 1324 170 1379 c 128,-1,5
 170 1434 170 1434 208 1472.5 c 128,-1,6
 246 1511 246 1511 300 1511 c 128,-1,7
 354 1511 354 1511 392 1472.5 c 128,-1,0
 430 1434 430 1434 430 1379 c 128,-1,1
402 90 m 1,8,-1
 202 0 l 1,9,-1
 202 1107 l 1,10,-1
 400 1199 l 1,11,-1
 402 90 l 1,8,-1
EndSplineSet
Validated: 16385
EndChar

StartChar: cent
Encoding: 162 162 100
Width: 1124
GlyphClass: 2
Flags: W
VStem: 152 194<237.918 880.378> 466 197<-138 19.5977 199 917 1096.71 1241> 780 192<240.949 401 692 874.578>
LayerCount: 2
Fore
SplineSet
780 401 m 1,0,-1
 972 488 l 1,1,-1
 974 232 l 2,2,3
 974 159 974 159 842 82 c 0,4,5
 749 28 749 28 657 10 c 1,6,-1
 656 -138 l 1,7,-1
 459 -230 l 1,8,-1
 460 10 l 1,9,10
 377 28 377 28 298 74 c 0,11,12
 152 159 152 159 152 237 c 2,13,-1
 152 240 l 1,14,-1
 150 878 l 2,15,16
 150 954 150 954 300 1042 c 0,17,18
 384 1091 384 1091 467 1108 c 1,19,-1
 468 1241 l 1,20,-1
 666 1330 l 1,21,-1
 664 1108 l 1,22,23
 749 1089 749 1089 840 1036 c 0,24,25
 972 959 972 959 972 886 c 2,26,-1
 972 692 l 1,27,-1
 776 604 l 1,28,-1
 778 824 l 2,29,30
 778 847 778 847 715 890 c 0,31,32
 690 907 690 907 663 917 c 1,33,-1
 658 198 l 1,34,35
 689 209 689 209 717 228 c 0,36,37
 780 271 780 271 780 294 c 2,38,-1
 780 401 l 1,0,-1
462 199 m 1,39,-1
 466 921 l 1,40,41
 436 912 436 912 410 895 c 0,42,43
 344 852 344 852 344 826 c 2,44,-1
 346 292 l 2,45,46
 346 264 346 264 412 223 c 0,47,48
 436 208 436 208 462 199 c 1,39,-1
EndSplineSet
Validated: 16385
EndChar

StartChar: sterling
Encoding: 163 163 101
Width: 1168
GlyphClass: 2
Flags: W
HStem: 20 196<158 217 416 1039> 572 195<159 219 419 734> 1330 183<477.715 780.5>
VStem: 219 199<216 572 769 1275.38> 854 196<1091 1266.49>
LayerCount: 2
Fore
SplineSet
221 768 m 1,0,-1
 226 1273 l 2,1,2
 227 1349 227 1349 376 1437 c 0,3,4
 506 1513 506 1513 637 1513 c 0,5,6
 644 1513 644 1513 650 1513 c 0,7,8
 778 1513 778 1513 916 1431 c 0,9,10
 1047 1353 1047 1353 1048 1281 c 2,11,-1
 1050 1091 l 1,12,-1
 854 1015 l 1,13,-1
 849 1218 l 2,14,15
 848 1242 848 1242 786 1284 c 0,16,17
 718 1330 718 1330 635 1330 c 0,18,19
 545 1330 545 1330 481 1289 c 0,20,21
 415 1247 415 1247 415 1220 c 2,22,-1
 419 769 l 1,23,-1
 843 773 l 1,24,-1
 734 577 l 1,25,-1
 418 574 l 1,26,-1
 416 216 l 1,27,-1
 1148 216 l 1,28,-1
 1039 20 l 1,29,-1
 50 20 l 1,30,-1
 158 216 l 1,31,-1
 217 216 l 1,32,-1
 219 572 l 1,33,-1
 51 571 l 1,34,-1
 159 767 l 1,35,-1
 221 768 l 1,0,-1
EndSplineSet
Validated: 16385
EndChar

StartChar: currency
Encoding: 164 164 102
Width: 1542
GlyphClass: 2
Flags: W
HStem: 267 207<614.555 910.607> 1044 207<614.677 911.907>
VStem: 280 204<606.116 912.648> 1042 203<604.671 911.734>
DStem2: 354 1256 150 1179 0.744078 -0.668093<0 159.658 1104.95 1292.59> 150 336 354 259 0.741942 0.670464<99.7304 262.081 1214.01 1396.95>
LayerCount: 2
Fore
SplineSet
484 759 m 128,-1,1
 484 642 484 642 566 558 c 128,-1,2
 648 474 648 474 762 474 c 0,3,4
 878 474 878 474 960 558 c 128,-1,5
 1042 642 1042 642 1042 755 c 2,6,-1
 1042 758 l 1,7,8
 1041 878 1041 878 960 960 c 0,9,10
 877 1044 877 1044 763 1044 c 0,11,12
 648 1044 648 1044 566 960 c 128,-1,0
 484 876 484 876 484 759 c 128,-1,1
280 759 m 0,13,14
 280 942 280 942 344 1006 c 2,15,-1
 345 1007 l 1,16,-1
 150 1179 l 1,17,-1
 354 1256 l 1,18,-1
 473 1153 l 1,19,20
 495 1170 495 1170 520 1185 c 0,21,22
 633 1251 633 1251 763 1251 c 0,23,24
 890 1251 890 1251 1004 1185 c 0,25,26
 1030 1170 1030 1170 1053 1153 c 1,27,-1
 1187 1272 l 1,28,-1
 1392 1197 l 1,29,-1
 1179 1008 l 1,30,-1
 1180 1006 l 2,31,32
 1244 879 1244 879 1245 759 c 1,33,-1
 1245 755 l 2,34,35
 1245 626 1245 626 1181 513 c 1,36,-1
 1392 324 l 1,37,-1
 1187 249 l 1,38,-1
 1054 366 l 1,39,40
 1030 348 1030 348 1004 333 c 0,41,42
 892 267 892 267 762 267 c 0,43,44
 633 267 633 267 520 333 c 0,45,46
 496 347 496 347 474 364 c 1,47,-1
 354 259 l 1,48,-1
 150 336 l 1,49,-1
 346 510 l 1,50,-1
 344 512 l 1,51,52
 280 625 280 625 280 759 c 0,13,14
EndSplineSet
Validated: 16385
EndChar

StartChar: yen
Encoding: 165 165 103
Width: 1118
GlyphClass: 2
Flags: W
HStem: 0 21G<452 501> 393 196<159 376 698 872> 720 196<199 251 527 563 842 912> 1493 20G<182.255 225.886 904.995 944.196>
VStem: 452 196<80 395>
DStem2: 218 1513 50 1419 0.364062 -0.931375<26.3867 568.045 849.213 895.451> 544 679 698 592 0.406342 0.913721<0 47.0105 340.383 879.94>
LayerCount: 2
Fore
SplineSet
648 80 m 1,0,-1
 452 0 l 1,1,-1
 452 394 l 1,2,-1
 452 395 l 1,3,-1
 51 393 l 1,4,-1
 159 589 l 1,5,-1
 376 590 l 1,6,-1
 326 721 l 1,7,-1
 91 720 l 1,8,-1
 199 916 l 1,9,-1
 251 916 l 1,10,-1
 50 1419 l 1,11,-1
 218 1513 l 1,12,-1
 453 917 l 1,13,-1
 647 918 l 1,14,-1
 914 1511 l 1,15,-1
 1068 1409 l 1,16,-1
 842 919 l 1,17,-1
 1021 920 l 1,18,-1
 912 724 l 1,19,-1
 756 723 l 1,20,-1
 698 592 l 1,21,-1
 981 593 l 1,22,-1
 872 397 l 1,23,-1
 648 396 l 1,24,-1
 648 80 l 1,0,-1
563 722 m 1,25,-1
 527 722 l 1,26,-1
 544 679 l 1,27,-1
 563 722 l 1,25,-1
EndSplineSet
Validated: 16385
EndChar

StartChar: brokenbar
Encoding: 166 166 104
Width: 536
GlyphClass: 2
Flags: W
VStem: 170 196<-171 555 879 1580>
LayerCount: 2
Fore
SplineSet
171 786 m 1,0,-1
 172 1580 l 1,1,-1
 366 1668 l 1,2,-1
 366 879 l 1,3,-1
 171 786 l 1,0,-1
366 648 m 1,4,-1
 366 -171 l 1,5,-1
 170 -262 l 1,6,-1
 170 555 l 1,7,-1
 366 648 l 1,4,-1
EndSplineSet
Validated: 1
EndChar

StartChar: section
Encoding: 167 167 105
Width: 1122
GlyphClass: 2
Flags: W
HStem: -15 182<427.636 689.638> 1308 182<430.362 693.34>
VStem: 150 196<643.756 823.473> 195 194<205.052 270 1108.42 1264.61> 731 194<210.392 360.252 1198 1269.66> 777 194<644.527 823.392>
LayerCount: 2
Fore
SplineSet
777 762 m 2,0,1
 777 796 777 796 718 834 c 0,2,3
 646 880 646 880 566 880 c 0,4,5
 475 880 475 880 412 839 c 0,6,7
 346 796 346 796 346 770 c 2,8,-1
 346 688 l 1,9,10
 357 666 357 666 405 634 c 0,11,12
 474 588 474 588 557 588 c 0,13,14
 648 588 648 588 711 629 c 0,15,16
 777 672 777 672 777 698 c 2,17,-1
 777 762 l 2,0,1
393 258 m 2,18,19
 393 231 393 231 451 192 c 0,20,21
 488 167 488 167 562 167 c 2,22,-1
 566 167 l 2,23,24
 626 167 626 167 671 198 c 0,25,26
 731 239 731 239 731 269 c 2,27,-1
 731 302 l 2,28,29
 731 351 731 351 658 370 c 2,30,-1
 289 465 l 1,31,32
 166 499 166 499 150 614 c 1,33,-1
 152 822 l 2,34,35
 152 892 152 892 275 970 c 1,36,37
 196 1013 196 1013 196 1077 c 2,38,-1
 195 1258 l 1,39,-1
 195 1261 l 1,40,41
 254 1377 254 1377 341 1424 c 0,42,43
 463 1490 463 1490 546 1490 c 2,44,-1
 553 1490 l 2,45,46
 679 1490 679 1490 789 1429 c 0,47,48
 921 1356 921 1356 921 1279 c 1,49,-1
 923 1198 l 1,50,-1
 727 1111 l 1,51,-1
 727 1217 l 2,52,53
 727 1243 727 1243 669 1283 c 0,54,55
 633 1308 633 1308 558 1308 c 2,56,-1
 554 1308 l 2,57,58
 494 1308 494 1308 449 1277 c 0,59,60
 389 1236 389 1236 389 1206 c 2,61,-1
 389 1170 l 2,62,63
 389 1116 389 1116 465 1098 c 1,64,-1
 834 1003 l 2,65,66
 956 972 956 972 973 855 c 1,67,-1
 971 646 l 2,68,69
 971 576 971 576 848 498 c 1,70,71
 927 455 927 455 927 393 c 2,72,-1
 927 391 l 1,73,-1
 925 217 l 1,74,-1
 925 214 l 1,75,76
 866 98 866 98 779 51 c 0,77,78
 657 -15 657 -15 574 -15 c 2,79,-1
 567 -15 l 2,80,81
 443 -15 443 -15 331 46 c 0,82,83
 199 118 199 118 199 196 c 1,84,-1
 200 270 l 1,85,-1
 396 357 l 1,86,-1
 393 258 l 2,18,19
EndSplineSet
Validated: 16385
EndChar

StartChar: dieresis
Encoding: 168 168 106
Width: 996
GlyphClass: 2
Flags: W
HStem: 1218 294<166.411 379.589 616.411 829.589>
VStem: 120 306<1262.35 1467.65> 570 306<1265.35 1470.65>
LayerCount: 2
Fore
SplineSet
570 1368 m 128,-1,1
 570 1429 570 1429 615 1472 c 128,-1,2
 660 1515 660 1515 723 1515 c 128,-1,3
 786 1515 786 1515 831 1472 c 128,-1,4
 876 1429 876 1429 876 1368 c 128,-1,5
 876 1307 876 1307 831 1264 c 128,-1,6
 786 1221 786 1221 723 1221 c 128,-1,7
 660 1221 660 1221 615 1264 c 128,-1,0
 570 1307 570 1307 570 1368 c 128,-1,1
120 1365 m 128,-1,9
 120 1426 120 1426 165 1469 c 128,-1,10
 210 1512 210 1512 273 1512 c 128,-1,11
 336 1512 336 1512 381 1469 c 128,-1,12
 426 1426 426 1426 426 1365 c 128,-1,13
 426 1304 426 1304 381 1261 c 128,-1,14
 336 1218 336 1218 273 1218 c 128,-1,15
 210 1218 210 1218 165 1261 c 128,-1,8
 120 1304 120 1304 120 1365 c 128,-1,9
EndSplineSet
Validated: 16385
EndChar

StartChar: copyright
Encoding: 169 169 107
Width: 1261
GlyphClass: 2
Flags: W
HStem: 180 79<444.499 817.229> 345 131<477.125 774.275> 1038 131<477.576 776.883> 1251 80<441.931 819.969>
VStem: 80 74<566.018 943.982> 304 153<507.004 1007> 795 154<504.539 616 907 1009.14> 1106 75<560.265 949.908>
LayerCount: 2
Fore
SplineSet
631 1331 m 0,0,1
 741 1331 741 1331 841 1288 c 0,2,3
 937 1247 937 1247 1020 1161 c 0,4,5
 1100 1078 1100 1078 1141 975 c 0,6,7
 1181 874 1181 874 1181 754 c 0,8,9
 1181 638 1181 638 1141 535 c 0,10,11
 1103 437 1103 437 1020 350 c 0,12,13
 941 267 941 267 841 223 c 0,14,15
 743 180 743 180 631 180 c 0,16,17
 520 180 520 180 420 223 c 0,18,19
 324 264 324 264 241 350 c 0,20,21
 160 434 160 434 120 535 c 128,-1,22
 80 636 80 636 80 754 c 0,23,24
 80 873 80 873 120 975 c 128,-1,25
 160 1077 160 1077 241 1161 c 0,26,27
 322 1246 322 1246 420 1288.5 c 128,-1,28
 518 1331 518 1331 631 1331 c 0,0,1
631 1251 m 0,29,30
 533 1251 533 1251 450 1215 c 128,-1,31
 367 1179 367 1179 296 1105 c 0,32,33
 226 1032 226 1032 190 944 c 128,-1,34
 154 856 154 856 154 759 c 2,35,-1
 154 754 l 2,36,37
 154 655 154 655 190 566 c 0,38,39
 224 483 224 483 296 406 c 0,40,41
 366 332 366 332 449 296 c 0,42,43
 534 259 534 259 631 259 c 128,-1,44
 728 259 728 259 813 296 c 0,45,46
 896 332 896 332 967 406 c 0,47,48
 1036 478 1036 478 1071 565 c 128,-1,49
 1106 652 1106 652 1106 754 c 0,50,51
 1106 857 1106 857 1071 945 c 0,52,53
 1037 1031 1037 1031 967 1105 c 0,54,55
 898 1178 898 1178 813 1215 c 0,56,57
 728 1251 728 1251 631 1251 c 0,29,30
633 345 m 0,58,59
 517 345 517 345 401 405 c 0,60,61
 319 448 319 448 306 486 c 0,62,63
 304 492 304 492 304 498 c 2,64,-1
 304 1017 l 2,65,66
 304 1023 304 1023 306 1028 c 0,67,68
 322 1069 322 1069 401 1109 c 0,69,70
 519 1169 519 1169 629 1169 c 2,71,-1
 633 1169 l 2,72,73
 740 1169 740 1169 855 1107 c 0,74,75
 934 1065 934 1065 946 1032 c 0,76,77
 949 1024 949 1024 949 1017 c 2,78,-1
 949 907 l 1,79,-1
 795 845 l 1,80,-1
 795 972 l 2,81,82
 795 973 795 973 793 977 c 0,83,84
 788 991 788 991 747 1011 c 0,85,86
 691 1038 691 1038 631 1038 c 2,87,-1
 628 1038 l 2,88,89
 569 1038 569 1038 501 1007 c 0,90,91
 457 987 457 987 457 967 c 2,92,-1
 457 547 l 2,93,94
 457 527 457 527 501 507 c 0,95,96
 568 476 568 476 628 476 c 2,97,-1
 631 476 l 2,98,99
 693 476 693 476 747 503 c 0,100,101
 771 515 771 515 793 537 c 0,102,103
 795 539 795 539 795 542 c 2,104,-1
 795 616 l 1,105,-1
 951 675 l 1,106,-1
 949 498 l 2,107,108
 949 487 949 487 946 482 c 0,109,110
 925 447 925 447 849 398 c 0,111,112
 768 346 768 346 633 345 c 0,58,59
EndSplineSet
Validated: 16385
EndChar

StartChar: ordfeminine
Encoding: 170 170 108
Width: 1083
GlyphClass: 2
Flags: W
HStem: 480 198<170 911> 724 124<400.364 627> 1384 128<402.277 680.109>
VStem: 221 156<880.106 1353.14> 711 155<766 1349.14>
LayerCount: 2
Fore
SplineSet
170 678 m 1,0,-1
 1003 678 l 1,1,-1
 911 480 l 1,2,-1
 80 480 l 1,3,-1
 170 678 l 1,0,-1
540 724 m 0,4,5
 440 724 440 724 342 776 c 0,6,7
 233 834 233 834 224 893 c 0,8,9
 221 912 221 912 221 997 c 2,10,-1
 221 1343 l 2,11,12
 221 1397 221 1397 338 1458 c 0,13,14
 441 1512 441 1512 543 1512 c 2,15,-1
 553 1512 l 2,16,17
 655 1512 655 1512 756 1457 c 0,18,19
 864 1398 864 1398 864 1352 c 2,20,-1
 866 766 l 1,21,-1
 711 701 l 1,22,23
 714 1002 714 1002 714 1004 c 2,24,-1
 713 1305 l 2,25,26
 713 1321 713 1321 663 1351 c 0,27,28
 608 1384 608 1384 548 1384 c 0,29,30
 546 1384 546 1384 545 1384 c 0,31,32
 476 1384 476 1384 425 1355 c 0,33,34
 373 1325 373 1325 373 1306 c 2,35,-1
 377 924 l 2,36,37
 377 903 377 903 425 877 c 0,38,39
 479 848 479 848 543 848 c 0,40,41
 549 848 549 848 554 847 c 0,42,43
 565 845 565 845 581 846 c 0,44,45
 640 849 640 849 699 852 c 1,46,-1
 627 726 l 1,47,48
 579 724 579 724 540 724 c 0,4,5
EndSplineSet
Validated: 16385
EndChar

StartChar: guillemotleft
Encoding: 171 171 109
Width: 1066
GlyphClass: 2
Flags: W
DStem2: 322 702 100 687 0.577331 -0.81651<0 409.443> 100 687 322 702 0.5547 0.83205<135.624 553.313> 682 711 460 696 0.577331 -0.81651<0 409.443> 460 696 682 711 0.5547 0.83205<135.624 553.313>
LayerCount: 2
Fore
SplineSet
810 1221 m 1,0,-1
 904 1065 l 1,1,-1
 682 711 l 1,2,-1
 916 375 l 1,3,-1
 810 201 l 1,4,-1
 460 696 l 1,5,-1
 810 1221 l 1,0,-1
450 1212 m 1,6,-1
 544 1056 l 1,7,-1
 322 702 l 1,8,-1
 556 366 l 1,9,-1
 450 192 l 1,10,-1
 100 687 l 1,11,-1
 450 1212 l 1,6,-1
EndSplineSet
Validated: 16385
EndChar

StartChar: logicalnot
Encoding: 172 172 110
Width: 1083
GlyphClass: 2
Flags: W
HStem: 600 198<170 712>
VStem: 608 206<362 568>
LayerCount: 2
Fore
SplineSet
170 798 m 1,0,-1
 1003 798 l 1,1,-1
 814 362 l 1,2,-1
 608 362 l 1,3,-1
 712 600 l 1,4,-1
 80 600 l 1,5,-1
 170 798 l 1,0,-1
EndSplineSet
Validated: 1
EndChar

StartChar: uni00AD
Encoding: 173 173 111
Width: 1083
GlyphClass: 2
Flags: W
HStem: 600 198<170 911>
LayerCount: 2
Fore
SplineSet
170 798 m 1,0,-1
 1003 798 l 1,1,-1
 911 600 l 1,2,-1
 80 600 l 1,3,-1
 170 798 l 1,0,-1
EndSplineSet
Validated: 1
EndChar

StartChar: registered
Encoding: 174 174 112
Width: 1261
GlyphClass: 2
Flags: W
HStem: 180 79<444.499 817.229> 616 129<503 681> 1034 131<503 789.906> 1251 80<441.931 819.969>
VStem: 80 74<566.018 943.982> 362 141<423 615 745 1034> 808 145<806.063 972.937> 1106 75<560.265 949.908>
DStem2: 818 651 681 616 0.425956 -0.904744<-1.90011 275.065>
LayerCount: 2
Fore
SplineSet
631 1331 m 0,0,1
 741 1331 741 1331 841 1288 c 0,2,3
 937 1247 937 1247 1020 1161 c 0,4,5
 1100 1078 1100 1078 1141 975 c 0,6,7
 1181 874 1181 874 1181 754 c 0,8,9
 1181 638 1181 638 1141 535 c 0,10,11
 1103 437 1103 437 1020 350 c 0,12,13
 941 267 941 267 841 223 c 0,14,15
 743 180 743 180 631 180 c 0,16,17
 520 180 520 180 420 223 c 0,18,19
 324 264 324 264 241 350 c 0,20,21
 160 434 160 434 120 535 c 128,-1,22
 80 636 80 636 80 754 c 0,23,24
 80 873 80 873 120 975 c 128,-1,25
 160 1077 160 1077 241 1161 c 0,26,27
 322 1246 322 1246 420 1288.5 c 128,-1,28
 518 1331 518 1331 631 1331 c 0,0,1
631 1251 m 0,29,30
 533 1251 533 1251 450 1215 c 128,-1,31
 367 1179 367 1179 296 1105 c 0,32,33
 226 1032 226 1032 190 944 c 128,-1,34
 154 856 154 856 154 759 c 2,35,-1
 154 754 l 2,36,37
 154 655 154 655 190 566 c 0,38,39
 224 483 224 483 296 406 c 0,40,41
 366 332 366 332 449 296 c 0,42,43
 534 259 534 259 631 259 c 128,-1,44
 728 259 728 259 813 296 c 0,45,46
 896 332 896 332 967 406 c 0,47,48
 1036 478 1036 478 1071 565 c 128,-1,49
 1106 652 1106 652 1106 754 c 0,50,51
 1106 857 1106 857 1071 945 c 0,52,53
 1037 1031 1037 1031 967 1105 c 0,54,55
 898 1178 898 1178 813 1215 c 0,56,57
 728 1251 728 1251 631 1251 c 0,29,30
662 745 m 2,58,59
 712 745 712 745 765 772 c 0,60,61
 799 789 799 789 807 806 c 0,62,63
 808 808 808 808 808 811 c 2,64,-1
 808 968 l 2,65,66
 808 971 808 971 807 973 c 0,67,68
 801 987 801 987 765 1007 c 0,69,70
 717 1034 717 1034 662 1034 c 2,71,-1
 503 1034 l 1,72,-1
 503 745 l 1,73,-1
 662 745 l 2,58,59
362 1114 m 1,74,-1
 485 1165 l 1,75,-1
 666 1164 l 2,76,77
 762 1163 762 1163 868 1101 c 0,78,79
 947 1054 947 1054 952 1023 c 0,80,81
 953 1017 953 1017 953 1011 c 2,82,-1
 953 768 l 2,83,84
 953 761 953 761 952 757 c 0,85,86
 943 724 943 724 868 678 c 0,87,88
 842 662 842 662 818 651 c 1,89,-1
 937 403 l 1,90,-1
 810 342 l 1,91,-1
 681 616 l 1,92,93
 674 616 674 616 666 616 c 2,94,-1
 503 615 l 1,95,-1
 503 423 l 1,96,-1
 362 362 l 1,97,-1
 362 1114 l 1,74,-1
EndSplineSet
Validated: 16385
EndChar

StartChar: macron
Encoding: 175 175 113
Width: 1083
GlyphClass: 2
Flags: W
HStem: 1314 198<170 911>
LayerCount: 2
Fore
SplineSet
170 1512 m 1,0,-1
 1003 1512 l 1,1,-1
 911 1314 l 1,2,-1
 80 1314 l 1,3,-1
 170 1512 l 1,0,-1
EndSplineSet
Validated: 1
EndChar

StartChar: degree
Encoding: 176 176 114
Width: 918
GlyphClass: 2
Flags: W
HStem: 861 139<316.618 604.777> 1382 130<317.618 600.633>
VStem: 150 147<1030.04 1351.96> 619 149<1055.03 1354.5>
LayerCount: 2
Fore
SplineSet
619 1065 m 2,0,-1
 619 1316 l 2,1,2
 619 1319 619 1319 617 1322 c 0,3,4
 605 1339 605 1339 573 1355 c 0,5,6
 518 1382 518 1382 463 1382 c 2,7,-1
 460 1382 l 2,8,9
 401 1382 401 1382 339 1351 c 0,10,11
 297 1330 297 1330 297 1311 c 2,12,-1
 297 1070 l 2,13,14
 297 1052 297 1052 339 1031 c 0,15,16
 402 1000 402 1000 460 1000 c 2,17,-1
 463 1000 l 2,18,19
 505 1000 505 1000 570 1026 c 0,20,21
 601 1038 601 1038 618 1055 c 0,22,23
 619 1056 619 1056 619 1065 c 2,0,-1
464 861 m 1,24,25
 356 862 356 862 243 921 c 0,26,27
 159 965 159 965 151 1003 c 0,28,29
 150 1008 150 1008 150 1012 c 2,30,-1
 150 1360 l 2,31,32
 150 1366 150 1366 151 1369 c 0,33,34
 163 1411 163 1411 243 1452 c 0,35,36
 359 1512 359 1512 461 1512 c 2,37,-1
 464 1512 l 2,38,39
 570 1512 570 1512 678 1450 c 0,40,41
 747 1410 747 1410 764 1376 c 0,42,43
 768 1368 768 1368 768 1360 c 2,44,-1
 768 1012 l 2,45,46
 768 1002 768 1002 767 999 c 0,47,48
 756 967 756 967 678 920 c 0,49,50
 579 861 579 861 464 861 c 1,24,25
EndSplineSet
Validated: 1
EndChar

StartChar: plusminus
Encoding: 177 177 115
Width: 1084
GlyphClass: 2
Flags: W
HStem: 168 198<171 912> 741 198<170 442 640 911>
VStem: 442 198<468 741 939 1210>
LayerCount: 2
Fore
SplineSet
640 468 m 1,0,-1
 442 378 l 1,1,-1
 442 741 l 1,2,-1
 80 741 l 1,3,-1
 170 939 l 1,4,-1
 442 939 l 1,5,-1
 442 1210 l 1,6,-1
 640 1302 l 1,7,-1
 640 939 l 1,8,-1
 1003 939 l 1,9,-1
 911 741 l 1,10,-1
 640 741 l 1,11,-1
 640 468 l 1,0,-1
171 366 m 1,12,-1
 1004 366 l 1,13,-1
 912 168 l 1,14,-1
 81 168 l 1,15,-1
 171 366 l 1,12,-1
EndSplineSet
Validated: 16385
EndChar

StartChar: uni00B2
Encoding: 178 178 116
Width: 998
GlyphClass: 2
Flags: W
HStem: 684 135<333 774> 1380 131<325.673 620.629>
VStem: 151 153<1259 1348> 184 148<819 943.905> 640 152<1161.5 1317.94>
DStem2: 295 1073 369 958 0.960375 0.27871<1.66263 372.161>
LayerCount: 2
Fore
SplineSet
303 1308 m 2,0,-1
 304 1259 l 1,1,-1
 151 1204 l 1,2,-1
 150 1356 l 2,3,4
 150 1400 150 1400 248 1450 c 0,5,6
 368 1511 368 1511 478 1511 c 0,7,8
 589 1511 589 1511 701 1449 c 0,9,10
 779 1406 779 1406 791 1373 c 0,11,12
 794 1365 794 1365 794 1358 c 2,13,-1
 792 1152 l 1,14,-1
 792 1151 l 2,15,16
 792 1083 792 1083 696 1055 c 0,17,18
 394 966 394 966 369 958 c 0,19,20
 338 948 338 948 334 944 c 0,21,22
 332 941 332 941 332 932 c 2,23,-1
 333 819 l 1,24,-1
 848 817 l 1,25,-1
 774 684 l 1,26,-1
 182 684 l 1,27,-1
 184 983 l 1,28,-1
 184 984 l 2,29,30
 184 1043 184 1043 295 1073 c 1,31,-1
 581 1156 l 1,32,33
 640 1175 640 1175 640 1202 c 2,34,-1
 640 1314 l 2,35,36
 640 1316 640 1316 639 1318 c 0,37,38
 634 1332 634 1332 592 1352 c 0,39,40
 535 1380 535 1380 477 1380 c 2,41,-1
 474 1380 l 2,42,43
 417 1380 417 1380 347 1348 c 0,44,45
 303 1328 303 1328 303 1308 c 2,0,-1
EndSplineSet
Validated: 16385
EndChar

StartChar: uni00B3
Encoding: 179 179 117
Width: 934
GlyphClass: 2
Flags: W
HStem: 684 132<322.028 612.073> 1386 126<219 501>
VStem: 151 151<846.039 981> 632 152<844.062 1034.96>
LayerCount: 2
Fore
SplineSet
305 1123 m 1,0,-1
 501 1385 l 1,1,-1
 150 1386 l 1,2,-1
 219 1512 l 1,3,-1
 784 1512 l 1,4,-1
 527 1192 l 1,5,-1
 686 1141 l 2,6,7
 775 1113 775 1113 782 1044 c 1,8,-1
 784 838 l 1,9,10
 782 829 782 829 781 824 c 0,11,12
 771 791 771 791 692 747 c 0,13,14
 579 684 579 684 476 684 c 0,15,16
 475 684 475 684 473 684 c 0,17,18
 363 684 363 684 246 745 c 0,19,20
 150 795 150 795 150 840 c 2,21,-1
 151 981 l 1,22,-1
 303 1043 l 1,23,-1
 303 1020 l 2,24,25
 303 1005 303 1005 302 978 c 1,26,27
 302 929 302 929 302 929 c 1,28,29
 301 907 301 907 301 887 c 0,30,31
 301 868 301 868 344 847 c 0,32,33
 407 816 407 816 469 816 c 2,34,-1
 472 816 l 2,35,36
 531 816 531 816 585 843 c 0,37,38
 618 860 618 860 630 877 c 0,39,40
 632 880 632 880 632 882 c 2,41,-1
 632 993 l 1,42,43
 631 1023 631 1023 573 1040 c 2,44,-1
 305 1123 l 1,0,-1
EndSplineSet
Validated: 16385
EndChar

StartChar: acute
Encoding: 180 180 118
Width: 742
GlyphClass: 2
Flags: W
HStem: 1128 384
VStem: 150 442
DStem2: 150 1254 280 1128 0.770645 0.637264<19.8886 404.856>
LayerCount: 2
Fore
SplineSet
462 1512 m 1,0,-1
 592 1386 l 1,1,-1
 280 1128 l 1,2,-1
 150 1254 l 1,3,-1
 462 1512 l 1,0,-1
EndSplineSet
Validated: 16385
EndChar

StartChar: uni00B5
Encoding: 181 181 119
Width: 1082
GlyphClass: 2
Flags: W
HStem: 0 182<389.469 694.763> 1100 20G<284.298 325.952 910.28 952>
VStem: 130 194<-374 49 240.686 1026> 758 194<238.223 1027>
LayerCount: 2
Fore
SplineSet
130 -462 m 1,0,-1
 130 1026 l 1,1,-1
 326 1120 l 1,2,-1
 324 294 l 2,3,4
 324 270 324 270 387 228 c 0,5,6
 456 182 456 182 538 182 c 0,7,8
 628 182 628 182 692 223 c 0,9,10
 758 265 758 265 758 292 c 2,11,-1
 758 1027 l 1,12,-1
 952 1120 l 1,13,-1
 952 240 l 2,14,15
 952 162 952 162 802 76 c 0,16,17
 669 0 669 0 541 0 c 2,18,-1
 528 0 l 2,19,20
 430 0 430 0 324 49 c 1,21,-1
 324 -374 l 1,22,-1
 130 -462 l 1,0,-1
EndSplineSet
Validated: 16385
EndChar

StartChar: paragraph
Encoding: 182 182 120
Width: 1122
GlyphClass: 2
Flags: W
HStem: 0 21G<774.09 816.162> 394 182<412.174 719.227> 1330 182<409.576 717.73>
VStem: 152 194<634.686 1272.54> 774 78<37 445 632.223 1232> 898 74<90 1260>
LayerCount: 2
Fore
SplineSet
898 59 m 1,0,-1
 901 1260 l 1,1,-1
 845 1232 l 1,2,-1
 852 37 l 1,3,-1
 774 0 l 1,4,-1
 776 445 l 1,5,6
 669 394 669 394 563 394 c 2,7,-1
 550 394 l 2,8,9
 424 394 424 394 284 476 c 0,10,11
 152 554 152 554 152 626 c 2,12,-1
 150 1280 l 2,13,14
 150 1353 150 1353 282 1430 c 0,15,16
 423 1512 423 1512 563 1512 c 0,17,18
 700 1512 700 1512 826 1438 c 0,19,20
 972 1352 972 1352 972 1275 c 2,21,-1
 972 1272 l 1,22,-1
 972 90 l 1,23,-1
 898 59 l 1,0,-1
560 576 m 0,24,25
 650 576 650 576 714 617 c 0,26,27
 780 659 780 659 780 686 c 2,28,-1
 778 1220 l 2,29,30
 778 1248 778 1248 712 1289 c 128,-1,31
 646 1330 646 1330 562 1330 c 2,32,-1
 558 1330 l 2,33,34
 476 1330 476 1330 407 1284 c 0,35,36
 344 1242 344 1242 344 1218 c 2,37,-1
 346 688 l 2,38,39
 346 664 346 664 409 622 c 0,40,41
 478 576 478 576 560 576 c 0,24,25
EndSplineSet
Validated: 16385
EndChar

StartChar: periodcentered
Encoding: 183 183 121
Width: 560
GlyphClass: 2
Flags: W
HStem: 562 264<189.191 370.809>
VStem: 150 260<601.707 786.293>
LayerCount: 2
Fore
SplineSet
150 694 m 128,-1,1
 150 749 150 749 188 787.5 c 128,-1,2
 226 826 226 826 280 826 c 128,-1,3
 334 826 334 826 372 787.5 c 128,-1,4
 410 749 410 749 410 694 c 128,-1,5
 410 639 410 639 372 600.5 c 128,-1,6
 334 562 334 562 280 562 c 128,-1,7
 226 562 226 562 188 600.5 c 128,-1,0
 150 639 150 639 150 694 c 128,-1,1
EndSplineSet
Validated: 1
EndChar

StartChar: cedilla
Encoding: 184 184 122
Width: 1222
GlyphClass: 2
Flags: W
HStem: -386 452
VStem: 436 350
LayerCount: 2
Fore
SplineSet
579 66 m 1,0,-1
 786 -142 l 1,1,-1
 562 -386 l 1,2,-1
 436 -256 l 1,3,-1
 552 -142 l 1,4,-1
 462 -50 l 1,5,-1
 579 66 l 1,0,-1
EndSplineSet
Validated: 1
EndChar

StartChar: uni00B9
Encoding: 185 185 123
Width: 480
GlyphClass: 2
Flags: W
VStem: 191 138<788 1299>
LayerCount: 2
Fore
SplineSet
329 788 m 1,0,-1
 191 724 l 1,1,-1
 192 1299 l 1,2,-1
 81 1245 l 1,3,-1
 20 1363 l 1,4,-1
 330 1522 l 1,5,-1
 329 788 l 1,0,-1
EndSplineSet
Validated: 1
EndChar

StartChar: ordmasculine
Encoding: 186 186 124
Width: 1083
GlyphClass: 2
Flags: W
HStem: 480 198<170 911> 693 130<419.618 707.777> 1382 130<420.618 703.633>
VStem: 253 147<853.039 1351.96> 722 149<878.033 1354.5>
LayerCount: 2
Fore
SplineSet
170 678 m 1,0,-1
 1003 678 l 1,1,-1
 911 480 l 1,2,-1
 80 480 l 1,3,-1
 170 678 l 1,0,-1
722 888 m 2,4,-1
 722 1316 l 2,5,6
 722 1319 722 1319 720 1322 c 0,7,8
 708 1339 708 1339 676 1355 c 0,9,10
 621 1382 621 1382 566 1382 c 2,11,-1
 563 1382 l 2,12,13
 504 1382 504 1382 442 1351 c 0,14,15
 400 1330 400 1330 400 1311 c 2,16,-1
 400 893 l 2,17,18
 400 875 400 875 442 854 c 0,19,20
 505 823 505 823 563 823 c 2,21,-1
 566 823 l 2,22,23
 608 823 608 823 673 849 c 0,24,25
 704 861 704 861 721 878 c 0,26,27
 722 879 722 879 722 888 c 2,4,-1
567 693 m 1,28,29
 459 694 459 694 346 753 c 0,30,31
 262 797 262 797 254 835 c 0,32,33
 253 840 253 840 253 844 c 2,34,-1
 253 1360 l 2,35,36
 253 1366 253 1366 254 1369 c 0,37,38
 266 1411 266 1411 346 1452 c 0,39,40
 462 1512 462 1512 564 1512 c 2,41,-1
 567 1512 l 2,42,43
 673 1512 673 1512 781 1450 c 0,44,45
 850 1410 850 1410 867 1376 c 0,46,47
 871 1368 871 1368 871 1360 c 2,48,-1
 871 844 l 2,49,50
 871 834 871 834 870 831 c 0,51,52
 859 799 859 799 781 752 c 0,53,54
 682 693 682 693 567 693 c 1,28,29
EndSplineSet
Validated: 16385
EndChar

StartChar: guillemotright
Encoding: 187 187 125
Width: 1066
GlyphClass: 2
Flags: W
DStem2: 256 1212 150 1038 0.577331 -0.81651<80.8758 490.319> 162 348 256 192 0.5547 0.83205<0 417.689> 616 1221 510 1047 0.577331 -0.81651<80.8758 490.319> 522 357 616 201 0.5547 0.83205<0 417.689>
LayerCount: 2
Fore
SplineSet
256 192 m 1,0,-1
 162 348 l 1,1,-1
 384 702 l 1,2,-1
 150 1038 l 1,3,-1
 256 1212 l 1,4,-1
 606 717 l 1,5,-1
 256 192 l 1,0,-1
616 201 m 1,6,-1
 522 357 l 1,7,-1
 744 711 l 1,8,-1
 510 1047 l 1,9,-1
 616 1221 l 1,10,-1
 966 726 l 1,11,-1
 616 201 l 1,6,-1
EndSplineSet
Validated: 16385
EndChar

StartChar: onequarter
Encoding: 188 188 126
Width: 1327
GlyphClass: 2
Flags: W
HStem: 173 118<807 984 1125 1167>
VStem: 281 138<799 1311> 984 141<0 173 290 486>
DStem2: 80 -132 259 -216 0.435903 0.899994<2.42717 1984.44> 659 285 807 291 0.657801 0.753192<101.874 365.177>
LayerCount: 2
Fore
SplineSet
80 -132 m 1,0,-1
 945 1654 l 1,1,-1
 1125 1572 l 1,2,-1
 259 -216 l 1,3,-1
 80 -132 l 1,0,-1
419 799 m 1,4,-1
 281 734 l 1,5,-1
 279 1311 l 1,6,-1
 168 1258 l 1,7,-1
 110 1374 l 1,8,-1
 420 1533 l 1,9,-1
 419 799 l 1,4,-1
807 291 m 1,10,-1
 984 290 l 1,11,-1
 984 486 l 1,12,-1
 807 291 l 1,10,-1
984 173 m 1,13,-1
 584 173 l 1,14,-1
 658 283 l 1,15,-1
 659 285 l 1,16,-1
 990 664 l 1,17,-1
 1125 725 l 1,18,-1
 1125 290 l 1,19,-1
 1247 291 l 1,20,-1
 1167 174 l 1,21,-1
 1125 174 l 1,22,-1
 1124 0 l 1,23,-1
 983 -64 l 1,24,-1
 984 173 l 1,13,-1
EndSplineSet
Validated: 16385
EndChar

StartChar: onehalf
Encoding: 189 189 127
Width: 1692
GlyphClass: 2
Flags: W
HStem: 0 135<1057 1498> 696 131<1049.67 1344.63>
VStem: 309 138<812 1332> 875 153<575 663.996> 908 148<135 259.905> 1364 152<477.502 633.938>
DStem2: 120 -132 299 -216 0.435903 0.899994<2.42717 1984.44> 1019 389 1093 274 0.960375 0.27871<1.66263 372.161>
LayerCount: 2
Fore
SplineSet
1027 624 m 2,0,-1
 1028 575 l 1,1,-1
 875 520 l 1,2,-1
 874 672 l 2,3,4
 874 716 874 716 972 766 c 0,5,6
 1092 827 1092 827 1202 827 c 0,7,8
 1313 827 1313 827 1425 765 c 0,9,10
 1503 722 1503 722 1515 689 c 0,11,12
 1518 681 1518 681 1518 674 c 2,13,-1
 1516 468 l 1,14,-1
 1516 467 l 2,15,16
 1516 399 1516 399 1420 371 c 0,17,18
 1118 282 1118 282 1093 274 c 0,19,20
 1062 264 1062 264 1058 260 c 0,21,22
 1056 257 1056 257 1056 248 c 2,23,-1
 1057 135 l 1,24,-1
 1572 133 l 1,25,-1
 1498 0 l 1,26,-1
 906 0 l 1,27,-1
 908 299 l 1,28,-1
 908 300 l 2,29,30
 908 359 908 359 1019 389 c 1,31,-1
 1305 472 l 1,32,33
 1364 491 1364 491 1364 518 c 2,34,-1
 1364 630 l 2,35,36
 1364 632 1364 632 1363 634 c 0,37,38
 1358 648 1358 648 1316 668 c 0,39,40
 1259 696 1259 696 1201 696 c 2,41,-1
 1198 696 l 2,42,43
 1141 696 1141 696 1071 664 c 0,44,45
 1027 644 1027 644 1027 624 c 2,0,-1
120 -132 m 1,46,-1
 985 1654 l 1,47,-1
 1165 1572 l 1,48,-1
 299 -216 l 1,49,-1
 120 -132 l 1,46,-1
447 812 m 1,50,-1
 309 748 l 1,51,-1
 310 1332 l 1,52,-1
 199 1278 l 1,53,-1
 138 1387 l 1,54,-1
 448 1546 l 1,55,-1
 447 812 l 1,50,-1
EndSplineSet
Validated: 16385
EndChar

StartChar: threequarters
Encoding: 190 190 128
Width: 1673
GlyphClass: 2
Flags: W
HStem: 173 118<1153 1330 1471 1513> 684 132<322.028 612.073> 1386 126<219 501>
VStem: 151 151<846.039 981> 632 152<844.062 1034.96> 1330 141<0 173 290 486>
DStem2: 442 -133 621 -217 0.435903 0.899994<2.42717 1984.44> 1005 285 1153 291 0.657801 0.753192<101.874 365.177>
LayerCount: 2
Fore
SplineSet
1153 291 m 1,0,-1
 1330 290 l 1,1,-1
 1330 486 l 1,2,-1
 1153 291 l 1,0,-1
1330 173 m 1,3,-1
 930 173 l 1,4,-1
 1004 283 l 1,5,-1
 1005 285 l 1,6,-1
 1336 664 l 1,7,-1
 1471 725 l 1,8,-1
 1471 290 l 1,9,-1
 1593 291 l 1,10,-1
 1513 174 l 1,11,-1
 1471 174 l 1,12,-1
 1470 0 l 1,13,-1
 1329 -64 l 1,14,-1
 1330 173 l 1,3,-1
305 1123 m 1,15,-1
 501 1385 l 1,16,-1
 150 1386 l 1,17,-1
 219 1512 l 1,18,-1
 784 1512 l 1,19,-1
 527 1192 l 1,20,-1
 686 1141 l 2,21,22
 775 1113 775 1113 782 1044 c 1,23,-1
 784 838 l 1,24,25
 782 829 782 829 781 824 c 0,26,27
 771 791 771 791 692 747 c 0,28,29
 579 684 579 684 476 684 c 0,30,31
 475 684 475 684 473 684 c 0,32,33
 363 684 363 684 246 745 c 0,34,35
 150 795 150 795 150 840 c 2,36,-1
 151 981 l 1,37,-1
 303 1043 l 1,38,-1
 303 1020 l 2,39,40
 303 1005 303 1005 302 978 c 1,41,42
 302 929 302 929 302 929 c 1,43,44
 301 907 301 907 301 887 c 0,45,46
 301 868 301 868 344 847 c 0,47,48
 407 816 407 816 469 816 c 2,49,-1
 472 816 l 2,50,51
 531 816 531 816 585 843 c 0,52,53
 618 860 618 860 630 877 c 0,54,55
 632 880 632 880 632 882 c 2,56,-1
 632 993 l 1,57,58
 631 1023 631 1023 573 1040 c 2,59,-1
 305 1123 l 1,15,-1
442 -133 m 1,60,-1
 1307 1653 l 1,61,-1
 1487 1571 l 1,62,-1
 621 -217 l 1,63,-1
 442 -133 l 1,60,-1
EndSplineSet
Validated: 1
EndChar

StartChar: questiondown
Encoding: 191 191 129
Width: 1288
GlyphClass: 2
Flags: W
HStem: 0 192<463.5 820.956> 1250 264<579.191 760.809>
VStem: 150 200<277.434 642.624> 540 260<1289.71 1474.29> 575 191<905 1127> 940 198<281.07 433>
LayerCount: 2
Fore
SplineSet
766 905 m 1,0,1
 766 801 766 801 610 739 c 2,2,-1
 456 677 l 1,3,4
 351 636 351 636 350 557 c 1,5,-1
 350 346 l 2,6,7
 350 299 350 299 440 247 c 0,8,9
 536 192 536 192 636 192 c 0,10,11
 638 192 638 192 641 192 c 0,12,13
 743 192 743 192 856 254 c 0,14,15
 940 301 940 301 940 356 c 2,16,-1
 941 433 l 1,17,-1
 1137 514 l 1,18,-1
 1138 266 l 2,19,20
 1138 198 1138 198 994 112 c 0,21,22
 806 0 806 0 634 0 c 0,23,24
 466 0 466 0 288 115 c 0,25,26
 150 204 150 204 150 262 c 2,27,-1
 153 651 l 1,28,29
 164 765 164 765 293 810 c 0,30,31
 568 906 568 906 572 938 c 0,32,33
 574 956 574 956 575 1002 c 2,34,-1
 577 1127 l 1,35,-1
 770 1221 l 1,36,-1
 766 905 l 1,0,1
800 1382 m 128,-1,38
 800 1327 800 1327 762 1288.5 c 128,-1,39
 724 1250 724 1250 670 1250 c 128,-1,40
 616 1250 616 1250 578 1288.5 c 128,-1,41
 540 1327 540 1327 540 1382 c 128,-1,42
 540 1437 540 1437 578 1475.5 c 128,-1,43
 616 1514 616 1514 670 1514 c 128,-1,44
 724 1514 724 1514 762 1475.5 c 128,-1,37
 800 1437 800 1437 800 1382 c 128,-1,38
EndSplineSet
Validated: 16385
EndChar

StartChar: Agrave
Encoding: 192 192 130
Width: 1390
GlyphClass: 2
Flags: W
HStem: 0 21G<200.016 243.043 992.09 1036.49> 443 190<400 994> 1320 192<519.964 878.531>
VStem: 200 198<92 436 626 1230.93> 994 196<89 443 633 1231.98>
DStem2: 522 1977 392 1851 0.770645 -0.637264<0 384.967>
LayerCount: 2
Fore
SplineSet
522 1977 m 1,0,-1
 834 1719 l 1,1,-1
 704 1593 l 1,2,-1
 392 1851 l 1,3,-1
 522 1977 l 1,0,-1
200 0 m 1,4,-1
 201 1250 l 2,5,6
 201 1314 201 1314 344 1400 c 0,7,8
 530 1512 530 1512 698 1512 c 0,9,10
 701 1512 701 1512 704 1512 c 0,11,12
 871 1512 871 1512 1050 1397 c 0,13,14
 1188 1308 1188 1308 1188 1250 c 2,15,-1
 1190 89 l 1,16,-1
 992 0 l 1,17,-1
 994 443 l 1,18,-1
 400 436 l 1,19,-1
 398 92 l 1,20,-1
 200 0 l 1,4,-1
399 626 m 1,21,-1
 994 633 l 1,22,-1
 994 1163 l 2,23,24
 994 1211 994 1211 904 1262 c 0,25,26
 802 1320 802 1320 702 1320 c 0,27,28
 697 1320 697 1320 697 1320 c 1,29,30
 588 1316 588 1316 482 1258 c 0,31,32
 398 1211 398 1211 398 1156 c 2,33,-1
 399 626 l 1,21,-1
EndSplineSet
Validated: 1
EndChar

StartChar: Aacute
Encoding: 193 193 131
Width: 1390
GlyphClass: 2
Flags: W
HStem: 0 21G<200.016 243.043 992.09 1036.49> 443 190<400 994> 1320 192<519.964 878.531>
VStem: 200 198<92 436 626 1230.93> 994 196<89 443 633 1231.98>
DStem2: 574 1719 704 1593 0.770645 0.637264<19.8886 404.856>
LayerCount: 2
Fore
SplineSet
886 1977 m 1,0,-1
 1016 1851 l 1,1,-1
 704 1593 l 1,2,-1
 574 1719 l 1,3,-1
 886 1977 l 1,0,-1
200 0 m 1,4,-1
 201 1250 l 2,5,6
 201 1314 201 1314 344 1400 c 0,7,8
 530 1512 530 1512 698 1512 c 0,9,10
 701 1512 701 1512 704 1512 c 0,11,12
 871 1512 871 1512 1050 1397 c 0,13,14
 1188 1308 1188 1308 1188 1250 c 2,15,-1
 1190 89 l 1,16,-1
 992 0 l 1,17,-1
 994 443 l 1,18,-1
 400 436 l 1,19,-1
 398 92 l 1,20,-1
 200 0 l 1,4,-1
399 626 m 1,21,-1
 994 633 l 1,22,-1
 994 1163 l 2,23,24
 994 1211 994 1211 904 1262 c 0,25,26
 802 1320 802 1320 702 1320 c 0,27,28
 697 1320 697 1320 697 1320 c 1,29,30
 588 1316 588 1316 482 1258 c 0,31,32
 398 1211 398 1211 398 1156 c 2,33,-1
 399 626 l 1,21,-1
EndSplineSet
Validated: 1
EndChar

StartChar: Acircumflex
Encoding: 194 194 132
Width: 1390
GlyphClass: 2
Flags: W
HStem: 0 21G<200.016 243.043 992.09 1036.49> 443 190<400 994> 1320 192<519.964 878.531> 1752 234<590 824>
VStem: 200 198<92 436 626 1230.93> 994 196<89 443 633 1231.98>
LayerCount: 2
Fore
SplineSet
889 1602 m 1,0,-1
 707 1752 l 1,1,-1
 525 1602 l 1,2,-1
 395 1728 l 1,3,-1
 707 1986 l 1,4,-1
 1019 1728 l 1,5,-1
 889 1602 l 1,0,-1
200 0 m 1,6,-1
 201 1250 l 2,7,8
 201 1314 201 1314 344 1400 c 0,9,10
 530 1512 530 1512 698 1512 c 0,11,12
 701 1512 701 1512 704 1512 c 0,13,14
 871 1512 871 1512 1050 1397 c 0,15,16
 1188 1308 1188 1308 1188 1250 c 2,17,-1
 1190 89 l 1,18,-1
 992 0 l 1,19,-1
 994 443 l 1,20,-1
 400 436 l 1,21,-1
 398 92 l 1,22,-1
 200 0 l 1,6,-1
399 626 m 1,23,-1
 994 633 l 1,24,-1
 994 1163 l 2,25,26
 994 1211 994 1211 904 1262 c 0,27,28
 802 1320 802 1320 702 1320 c 0,29,30
 697 1320 697 1320 697 1320 c 1,31,32
 588 1316 588 1316 482 1258 c 0,33,34
 398 1211 398 1211 398 1156 c 2,35,-1
 399 626 l 1,23,-1
EndSplineSet
Validated: 1
EndChar

StartChar: Atilde
Encoding: 195 195 133
Width: 1390
GlyphClass: 2
Flags: W
HStem: 0 21G<200.016 243.043 992.09 1036.49> 443 190<400 994> 1320 192<519.964 878.531>
VStem: 200 198<92 436 626 1230.93> 994 196<89 443 633 1231.98>
LayerCount: 2
Fore
SplineSet
973 1995 m 1,0,-1
 1103 1869 l 1,1,-1
 791 1611 l 1,2,-1
 609 1762 l 1,3,-1
 427 1611 l 1,4,-1
 297 1737 l 1,5,-1
 609 1995 l 1,6,-1
 791 1844 l 1,7,-1
 973 1995 l 1,0,-1
200 0 m 1,8,-1
 201 1250 l 2,9,10
 201 1314 201 1314 344 1400 c 0,11,12
 530 1512 530 1512 698 1512 c 0,13,14
 701 1512 701 1512 704 1512 c 0,15,16
 871 1512 871 1512 1050 1397 c 0,17,18
 1188 1308 1188 1308 1188 1250 c 2,19,-1
 1190 89 l 1,20,-1
 992 0 l 1,21,-1
 994 443 l 1,22,-1
 400 436 l 1,23,-1
 398 92 l 1,24,-1
 200 0 l 1,8,-1
399 626 m 1,25,-1
 994 633 l 1,26,-1
 994 1163 l 2,27,28
 994 1211 994 1211 904 1262 c 0,29,30
 802 1320 802 1320 702 1320 c 0,31,32
 697 1320 697 1320 697 1320 c 1,33,34
 588 1316 588 1316 482 1258 c 0,35,36
 398 1211 398 1211 398 1156 c 2,37,-1
 399 626 l 1,25,-1
EndSplineSet
Validated: 1
EndChar

StartChar: Adieresis
Encoding: 196 196 134
Width: 1390
GlyphClass: 2
Flags: W
HStem: 0 21G<200.016 243.043 992.09 1036.49> 443 190<400 994> 1320 192<519.964 878.531> 1626 264<385.191 566.809 835.191 1016.81>
VStem: 200 198<92 436 626 1230.93> 346 260<1665.71 1850.29> 796 260<1668.71 1853.29> 994 196<89 443 633 1231.98>
LayerCount: 2
Fore
SplineSet
796 1761 m 128,-1,1
 796 1816 796 1816 834 1854.5 c 128,-1,2
 872 1893 872 1893 926 1893 c 128,-1,3
 980 1893 980 1893 1018 1854.5 c 128,-1,4
 1056 1816 1056 1816 1056 1761 c 128,-1,5
 1056 1706 1056 1706 1018 1667.5 c 128,-1,6
 980 1629 980 1629 926 1629 c 128,-1,7
 872 1629 872 1629 834 1667.5 c 128,-1,0
 796 1706 796 1706 796 1761 c 128,-1,1
346 1758 m 128,-1,9
 346 1813 346 1813 384 1851.5 c 128,-1,10
 422 1890 422 1890 476 1890 c 128,-1,11
 530 1890 530 1890 568 1851.5 c 128,-1,12
 606 1813 606 1813 606 1758 c 128,-1,13
 606 1703 606 1703 568 1664.5 c 128,-1,14
 530 1626 530 1626 476 1626 c 128,-1,15
 422 1626 422 1626 384 1664.5 c 128,-1,8
 346 1703 346 1703 346 1758 c 128,-1,9
200 0 m 1,16,-1
 201 1250 l 2,17,18
 201 1314 201 1314 344 1400 c 0,19,20
 530 1512 530 1512 698 1512 c 0,21,22
 701 1512 701 1512 704 1512 c 0,23,24
 871 1512 871 1512 1050 1397 c 0,25,26
 1188 1308 1188 1308 1188 1250 c 2,27,-1
 1190 89 l 1,28,-1
 992 0 l 1,29,-1
 994 443 l 1,30,-1
 400 436 l 1,31,-1
 398 92 l 1,32,-1
 200 0 l 1,16,-1
399 626 m 1,33,-1
 994 633 l 1,34,-1
 994 1163 l 2,35,36
 994 1211 994 1211 904 1262 c 0,37,38
 802 1320 802 1320 702 1320 c 0,39,40
 697 1320 697 1320 697 1320 c 1,41,42
 588 1316 588 1316 482 1258 c 0,43,44
 398 1211 398 1211 398 1156 c 2,45,-1
 399 626 l 1,33,-1
EndSplineSet
Validated: 1
EndChar

StartChar: Aring
Encoding: 197 197 135
Width: 1390
GlyphClass: 2
Flags: W
HStem: 0 21G<200.016 243.043 992.09 1036.49> 443 190<400 994> 1320 192<519.964 878.531> 1605 141<622.808 775.366> 1935 142<615.25 774.975>
VStem: 200 198<92 436 626 1230.93> 452 148<1768.34 1921.17> 798 152<1767.89 1912.83> 994 196<89 443 633 1231.98>
LayerCount: 2
Fore
SplineSet
691 1935 m 0,0,1
 655 1935 655 1935 628 1907 c 0,2,3
 600 1878 600 1878 600 1841 c 0,4,5
 600 1802 600 1802 629 1774 c 128,-1,6
 658 1746 658 1746 699 1746 c 128,-1,7
 740 1746 740 1746 769 1773.5 c 128,-1,8
 798 1801 798 1801 798 1840 c 0,9,10
 798 1876 798 1876 769 1907 c 0,11,12
 743 1935 743 1935 691 1935 c 0,0,1
452 1848 m 0,13,14
 452 1908 452 1908 485 1959 c 0,15,16
 521 2015 521 2015 576 2045 c 1,17,18
 632 2077 632 2077 701 2077 c 0,19,20
 765 2077 765 2077 826 2045 c 0,21,22
 871 2022 871 2022 913 1958 c 0,23,24
 950 1901 950 1901 950 1835 c 0,25,26
 950 1775 950 1775 917 1723 c 0,27,28
 881 1667 881 1667 826 1636 c 128,-1,29
 771 1605 771 1605 701 1605 c 0,30,31
 640 1605 640 1605 576 1637 c 0,32,33
 513 1669 513 1669 480 1721 c 0,34,35
 452 1766 452 1766 452 1848 c 0,13,14
200 0 m 1,36,-1
 201 1250 l 2,37,38
 201 1314 201 1314 344 1400 c 0,39,40
 530 1512 530 1512 698 1512 c 0,41,42
 701 1512 701 1512 704 1512 c 0,43,44
 871 1512 871 1512 1050 1397 c 0,45,46
 1188 1308 1188 1308 1188 1250 c 2,47,-1
 1190 89 l 1,48,-1
 992 0 l 1,49,-1
 994 443 l 1,50,-1
 400 436 l 1,51,-1
 398 92 l 1,52,-1
 200 0 l 1,36,-1
399 626 m 1,53,-1
 994 633 l 1,54,-1
 994 1163 l 2,55,56
 994 1211 994 1211 904 1262 c 0,57,58
 802 1320 802 1320 702 1320 c 0,59,60
 697 1320 697 1320 697 1320 c 1,61,62
 588 1316 588 1316 482 1258 c 0,63,64
 398 1211 398 1211 398 1156 c 2,65,-1
 399 626 l 1,53,-1
EndSplineSet
Validated: 1
EndChar

StartChar: AE
Encoding: 198 198 136
Width: 1934
GlyphClass: 2
Flags: W
HStem: 0 21G<200.016 243.043 992.09 1036> 20 192<1192 1792> 443 190<400 994> 664 192<1193 1682> 1300 191<1194 1692> 1320 192<519.964 875.727>
VStem: 200 198<92 436 626 1230.93> 994 198<212 443 633 664 856 1231.98>
LayerCount: 2
Fore
SplineSet
399 626 m 1,0,-1
 994 633 l 1,1,-1
 994 1163 l 2,2,3
 994 1211 994 1211 904 1262 c 0,4,5
 802 1320 802 1320 702 1320 c 2,6,-1
 697 1320 l 1,7,8
 585 1316 585 1316 482 1258 c 0,9,10
 398 1211 398 1211 398 1156 c 2,11,-1
 399 626 l 1,0,-1
200 0 m 1,12,-1
 201 1250 l 2,13,14
 201 1314 201 1314 344 1400 c 0,15,16
 530 1512 530 1512 698 1512 c 2,17,-1
 704 1512 l 2,18,19
 858 1512 858 1512 1023 1414 c 1,20,-1
 1194 1491 l 1,21,-1
 1778 1491 l 1,22,-1
 1692 1303 l 1,23,-1
 1192 1300 l 1,24,-1
 1193 856 l 1,25,-1
 1774 856 l 1,26,-1
 1682 666 l 1,27,-1
 1192 664 l 1,28,-1
 1192 212 l 1,29,-1
 1884 212 l 1,30,-1
 1792 20 l 1,31,-1
 1036 20 l 1,32,-1
 992 0 l 1,33,-1
 994 443 l 1,34,-1
 400 436 l 1,35,-1
 398 92 l 1,36,-1
 200 0 l 1,12,-1
EndSplineSet
Validated: 1
EndChar

StartChar: Ccedilla
Encoding: 199 199 137
Width: 1389
GlyphClass: 2
Flags: W
HStem: 1320 192<519.464 876.147>
VStem: 200 197<281.07 1230.93> 987 200<277.434 468 1060 1234.57>
LayerCount: 2
Fore
SplineSet
641 4 m 1,0,1
 497 20 497 20 343 112 c 0,2,3
 200 197 200 197 200 262 c 2,4,-1
 200 1250 l 2,5,6
 200 1314 200 1314 343 1400 c 0,7,8
 530 1512 530 1512 697 1512 c 2,9,-1
 703 1512 l 2,10,11
 870 1512 870 1512 1049 1397 c 0,12,13
 1187 1308 1187 1308 1187 1250 c 2,14,-1
 1187 1060 l 1,15,-1
 987 966 l 1,16,-1
 987 1166 l 2,17,18
 987 1213 987 1213 897 1265 c 0,19,20
 802 1320 802 1320 701 1320 c 2,21,-1
 696 1320 l 2,22,23
 594 1320 594 1320 481 1258 c 0,24,25
 397 1211 397 1211 397 1156 c 2,26,-1
 397 356 l 2,27,28
 397 301 397 301 481 254 c 0,29,30
 594 192 594 192 696 192 c 2,31,-1
 701 192 l 2,32,33
 801 192 801 192 897 247 c 0,34,35
 987 299 987 299 987 346 c 2,36,-1
 987 468 l 1,37,-1
 1189 558 l 1,38,-1
 1187 262 l 2,39,40
 1187 204 1187 204 1049 115 c 0,41,42
 901 20 901 20 760 3 c 1,43,-1
 908 -145 l 1,44,-1
 684 -389 l 1,45,-1
 558 -259 l 1,46,-1
 674 -145 l 1,47,-1
 584 -53 l 1,48,-1
 641 4 l 1,0,1
EndSplineSet
Validated: 1
EndChar

StartChar: Egrave
Encoding: 200 200 138
Width: 1138
GlyphClass: 2
Flags: W
HStem: 20 192<396 996> 664 192<397 886> 1300 191<398 896>
VStem: 200 196<212 664 856 1300>
DStem2: 522 1977 392 1851 0.770645 -0.637264<0 384.967>
LayerCount: 2
Fore
SplineSet
522 1977 m 1,0,-1
 834 1719 l 1,1,-1
 704 1593 l 1,2,-1
 392 1851 l 1,3,-1
 522 1977 l 1,0,-1
396 1300 m 1,4,-1
 397 856 l 1,5,-1
 978 856 l 1,6,-1
 886 666 l 1,7,-1
 396 664 l 1,8,-1
 396 212 l 1,9,-1
 1088 212 l 1,10,-1
 996 20 l 1,11,-1
 200 20 l 1,12,-1
 200 1402 l 1,13,-1
 398 1491 l 1,14,-1
 982 1491 l 1,15,-1
 896 1303 l 1,16,-1
 396 1300 l 1,4,-1
EndSplineSet
Validated: 1
EndChar

StartChar: Eacute
Encoding: 201 201 139
Width: 1138
GlyphClass: 2
Flags: W
HStem: 20 192<396 996> 664 192<397 886> 1300 191<398 896>
VStem: 200 196<212 664 856 1300>
DStem2: 574 1719 704 1593 0.770645 0.637264<19.8886 404.856>
LayerCount: 2
Fore
SplineSet
886 1977 m 1,0,-1
 1016 1851 l 1,1,-1
 704 1593 l 1,2,-1
 574 1719 l 1,3,-1
 886 1977 l 1,0,-1
396 1300 m 1,4,-1
 397 856 l 1,5,-1
 978 856 l 1,6,-1
 886 666 l 1,7,-1
 396 664 l 1,8,-1
 396 212 l 1,9,-1
 1088 212 l 1,10,-1
 996 20 l 1,11,-1
 200 20 l 1,12,-1
 200 1402 l 1,13,-1
 398 1491 l 1,14,-1
 982 1491 l 1,15,-1
 896 1303 l 1,16,-1
 396 1300 l 1,4,-1
EndSplineSet
Validated: 1
EndChar

StartChar: Ecircumflex
Encoding: 202 202 140
Width: 1138
GlyphClass: 2
Flags: W
HStem: 20 192<396 996> 664 192<397 886> 1300 191<398 896> 1752 234<590 824>
VStem: 200 196<212 664 856 1300>
LayerCount: 2
Fore
SplineSet
889 1602 m 1,0,-1
 707 1752 l 1,1,-1
 525 1602 l 1,2,-1
 395 1728 l 1,3,-1
 707 1986 l 1,4,-1
 1019 1728 l 1,5,-1
 889 1602 l 1,0,-1
396 1300 m 1,6,-1
 397 856 l 1,7,-1
 978 856 l 1,8,-1
 886 666 l 1,9,-1
 396 664 l 1,10,-1
 396 212 l 1,11,-1
 1088 212 l 1,12,-1
 996 20 l 1,13,-1
 200 20 l 1,14,-1
 200 1402 l 1,15,-1
 398 1491 l 1,16,-1
 982 1491 l 1,17,-1
 896 1303 l 1,18,-1
 396 1300 l 1,6,-1
EndSplineSet
Validated: 1
EndChar

StartChar: Edieresis
Encoding: 203 203 141
Width: 1138
GlyphClass: 2
Flags: W
HStem: 20 192<396 996> 664 192<397 886> 1300 191<398 896> 1626 264<385.191 566.809 835.191 1016.81>
VStem: 200 196<212 664 856 1300> 346 260<1665.71 1850.29> 796 260<1668.71 1853.29>
LayerCount: 2
Fore
SplineSet
796 1761 m 128,-1,1
 796 1816 796 1816 834 1854.5 c 128,-1,2
 872 1893 872 1893 926 1893 c 128,-1,3
 980 1893 980 1893 1018 1854.5 c 128,-1,4
 1056 1816 1056 1816 1056 1761 c 128,-1,5
 1056 1706 1056 1706 1018 1667.5 c 128,-1,6
 980 1629 980 1629 926 1629 c 128,-1,7
 872 1629 872 1629 834 1667.5 c 128,-1,0
 796 1706 796 1706 796 1761 c 128,-1,1
346 1758 m 128,-1,9
 346 1813 346 1813 384 1851.5 c 128,-1,10
 422 1890 422 1890 476 1890 c 128,-1,11
 530 1890 530 1890 568 1851.5 c 128,-1,12
 606 1813 606 1813 606 1758 c 128,-1,13
 606 1703 606 1703 568 1664.5 c 128,-1,14
 530 1626 530 1626 476 1626 c 128,-1,15
 422 1626 422 1626 384 1664.5 c 128,-1,8
 346 1703 346 1703 346 1758 c 128,-1,9
396 1300 m 1,16,-1
 397 856 l 1,17,-1
 978 856 l 1,18,-1
 886 666 l 1,19,-1
 396 664 l 1,20,-1
 396 212 l 1,21,-1
 1088 212 l 1,22,-1
 996 20 l 1,23,-1
 200 20 l 1,24,-1
 200 1402 l 1,25,-1
 398 1491 l 1,26,-1
 982 1491 l 1,27,-1
 896 1303 l 1,28,-1
 396 1300 l 1,16,-1
EndSplineSet
Validated: 1
EndChar

StartChar: Igrave
Encoding: 204 204 142
Width: 637
GlyphClass: 2
Flags: W
HStem: 0 21G<224 267.043> 1491 20G<377.506 422>
VStem: 224 198<92 1422>
DStem2: 135 1980 5 1854 0.770645 -0.637264<0 384.967>
LayerCount: 2
Fore
SplineSet
135 1980 m 1,0,-1
 447 1722 l 1,1,-1
 317 1596 l 1,2,-1
 5 1854 l 1,3,-1
 135 1980 l 1,0,-1
422 92 m 1,4,-1
 224 0 l 1,5,-1
 224 1422 l 1,6,-1
 422 1511 l 1,7,-1
 422 92 l 1,4,-1
EndSplineSet
Validated: 1
EndChar

StartChar: Iacute
Encoding: 205 205 143
Width: 637
GlyphClass: 2
Flags: W
HStem: 0 21G<221 264.043> 1491 20G<374.506 419>
VStem: 221 198<92 1422>
DStem2: 190 1722 320 1596 0.770645 0.637264<19.8886 404.856>
LayerCount: 2
Fore
SplineSet
502 1980 m 1,0,-1
 632 1854 l 1,1,-1
 320 1596 l 1,2,-1
 190 1722 l 1,3,-1
 502 1980 l 1,0,-1
419 92 m 1,4,-1
 221 0 l 1,5,-1
 221 1422 l 1,6,-1
 419 1511 l 1,7,-1
 419 92 l 1,4,-1
EndSplineSet
Validated: 1
EndChar

StartChar: Icircumflex
Encoding: 206 206 144
Width: 634
GlyphClass: 2
Flags: W
HStem: 0 21G<217 260.043> 1491 20G<370.506 415> 1758 234<200 434>
VStem: 217 198<92 1422>
LayerCount: 2
Fore
SplineSet
499 1608 m 1,0,-1
 317 1758 l 1,1,-1
 135 1608 l 1,2,-1
 5 1734 l 1,3,-1
 317 1992 l 1,4,-1
 629 1734 l 1,5,-1
 499 1608 l 1,0,-1
415 92 m 1,6,-1
 217 0 l 1,7,-1
 217 1422 l 1,8,-1
 415 1511 l 1,9,-1
 415 92 l 1,6,-1
EndSplineSet
Validated: 1
EndChar

StartChar: Idieresis
Encoding: 207 207 145
Width: 720
GlyphClass: 2
Flags: W
HStem: 0 21G<261 304.043> 1491 20G<414.506 459> 1637 264<44.1914 225.809 494.191 675.809>
VStem: 5 260<1676.71 1861.29> 261 198<92 1422> 455 260<1679.71 1864.29>
LayerCount: 2
Fore
SplineSet
455 1772 m 128,-1,1
 455 1827 455 1827 493 1865.5 c 128,-1,2
 531 1904 531 1904 585 1904 c 128,-1,3
 639 1904 639 1904 677 1865.5 c 128,-1,4
 715 1827 715 1827 715 1772 c 128,-1,5
 715 1717 715 1717 677 1678.5 c 128,-1,6
 639 1640 639 1640 585 1640 c 128,-1,7
 531 1640 531 1640 493 1678.5 c 128,-1,0
 455 1717 455 1717 455 1772 c 128,-1,1
5 1769 m 128,-1,9
 5 1824 5 1824 43 1862.5 c 128,-1,10
 81 1901 81 1901 135 1901 c 128,-1,11
 189 1901 189 1901 227 1862.5 c 128,-1,12
 265 1824 265 1824 265 1769 c 128,-1,13
 265 1714 265 1714 227 1675.5 c 128,-1,14
 189 1637 189 1637 135 1637 c 128,-1,15
 81 1637 81 1637 43 1675.5 c 128,-1,8
 5 1714 5 1714 5 1769 c 128,-1,9
459 92 m 1,16,-1
 261 0 l 1,17,-1
 261 1422 l 1,18,-1
 459 1511 l 1,19,-1
 459 92 l 1,16,-1
EndSplineSet
Validated: 1
EndChar

StartChar: Eth
Encoding: 208 208 146
Width: 1399
GlyphClass: 2
Flags: W
HStem: 21 189<396 882.94> 666 198<145 200 396 657> 1298 193<398 878.863>
VStem: 200 196<210 666 864 1298> 994 205<295.434 1217.57>
LayerCount: 2
Fore
SplineSet
398 1491 m 1,0,-1
 715 1491 l 2,1,2
 881 1491 881 1491 1060 1374 c 0,3,4
 1198 1284 1198 1284 1198 1227 c 2,5,-1
 1199 283 l 2,6,7
 1199 229 1199 229 1061 136 c 0,8,9
 890 21 890 21 772 21 c 2,10,-1
 714 21 l 1,11,-1
 200 20 l 1,12,-1
 200 666 l 1,13,-1
 55 666 l 1,14,-1
 145 864 l 1,15,-1
 200 864 l 1,16,-1
 200 1403 l 1,17,-1
 398 1491 l 1,0,-1
707 210 m 2,18,19
 808 210 808 210 904 265 c 0,20,21
 994 317 994 317 994 364 c 2,22,-1
 993 1145 l 2,23,24
 993 1205 993 1205 903 1244 c 0,25,26
 773 1299 773 1299 707 1299 c 2,27,-1
 396 1298 l 1,28,-1
 396 864 l 1,29,-1
 749 864 l 1,30,-1
 657 666 l 1,31,-1
 396 666 l 1,32,-1
 396 210 l 1,33,-1
 707 210 l 2,18,19
EndSplineSet
Validated: 1
EndChar

StartChar: Ntilde
Encoding: 209 209 147
Width: 1387
GlyphClass: 2
Flags: W
HStem: 0 21G<200 243.043 989.949 1034.55> 1320 192<518.964 874.5>
VStem: 200 198<92 1232.47> 990 196<88 1231.85>
LayerCount: 2
Fore
SplineSet
973 1995 m 1,0,-1
 1103 1869 l 1,1,-1
 791 1611 l 1,2,-1
 609 1762 l 1,3,-1
 427 1611 l 1,4,-1
 297 1737 l 1,5,-1
 609 1995 l 1,6,-1
 791 1844 l 1,7,-1
 973 1995 l 1,0,-1
1187 1250 m 2,8,-1
 1186 88 l 1,9,-1
 990 0 l 1,10,-1
 987 1166 l 2,11,12
 987 1214 987 1214 897 1265 c 0,13,14
 800 1320 800 1320 701 1320 c 0,15,16
 698 1320 698 1320 696 1320 c 0,17,18
 594 1320 594 1320 481 1258 c 0,19,20
 397 1211 397 1211 397 1156 c 2,21,-1
 398 92 l 1,22,-1
 200 0 l 1,23,-1
 200 1250 l 2,24,25
 200 1314 200 1314 343 1400 c 0,26,27
 529 1512 529 1512 697 1512 c 0,28,29
 700 1512 700 1512 703 1512 c 0,30,31
 873 1512 873 1512 1049 1397 c 0,32,33
 1187 1307 1187 1307 1187 1250 c 2,8,-1
EndSplineSet
Validated: 1
EndChar

StartChar: Ograve
Encoding: 210 210 148
Width: 1387
GlyphClass: 2
Flags: W
HStem: 0 192<516.044 873.5> 1320 192<519.464 874.5>
VStem: 200 197<281.07 1230.93> 987 200<277.017 1234.98>
DStem2: 522 1977 392 1851 0.770645 -0.637264<0 384.967>
LayerCount: 2
Fore
SplineSet
522 1977 m 1,0,-1
 834 1719 l 1,1,-1
 704 1593 l 1,2,-1
 392 1851 l 1,3,-1
 522 1977 l 1,0,-1
987 346 m 2,4,5
 987 346 987 346 987 1166 c 0,6,7
 987 1214 987 1214 897 1265 c 0,8,9
 800 1320 800 1320 701 1320 c 0,10,11
 698 1320 698 1320 696 1320 c 0,12,13
 594 1320 594 1320 481 1258 c 0,14,15
 397 1211 397 1211 397 1156 c 2,16,-1
 397 356 l 2,17,18
 397 301 397 301 481 254 c 0,19,20
 594 192 594 192 696 192 c 0,21,22
 698 192 698 192 701 192 c 0,23,24
 800 192 800 192 897 247 c 0,25,26
 987 298 987 298 987 346 c 2,4,5
703 0 m 0,27,28
 530 0 530 0 343 112 c 0,29,30
 200 198 200 198 200 262 c 2,31,-1
 200 1250 l 2,32,33
 200 1314 200 1314 343 1400 c 0,34,35
 530 1512 530 1512 697 1512 c 0,36,37
 700 1512 700 1512 703 1512 c 0,38,39
 873 1512 873 1512 1049 1397 c 0,40,41
 1187 1307 1187 1307 1187 1250 c 2,42,-1
 1187 262 l 2,43,44
 1187 204 1187 204 1049 115 c 0,45,46
 871 0 871 0 703 0 c 0,27,28
EndSplineSet
Validated: 1
EndChar

StartChar: Oacute
Encoding: 211 211 149
Width: 1387
GlyphClass: 2
Flags: W
HStem: 0 192<516.044 873.5> 1320 192<519.464 874.5>
VStem: 200 197<281.07 1230.93> 987 200<277.017 1234.98>
DStem2: 574 1719 704 1593 0.770645 0.637264<19.8886 404.856>
LayerCount: 2
Fore
SplineSet
987 346 m 2,0,1
 987 346 987 346 987 1166 c 0,2,3
 987 1214 987 1214 897 1265 c 0,4,5
 800 1320 800 1320 701 1320 c 0,6,7
 698 1320 698 1320 696 1320 c 0,8,9
 594 1320 594 1320 481 1258 c 0,10,11
 397 1211 397 1211 397 1156 c 2,12,-1
 397 356 l 2,13,14
 397 301 397 301 481 254 c 0,15,16
 594 192 594 192 696 192 c 0,17,18
 698 192 698 192 701 192 c 0,19,20
 800 192 800 192 897 247 c 0,21,22
 987 298 987 298 987 346 c 2,0,1
703 0 m 0,23,24
 530 0 530 0 343 112 c 0,25,26
 200 198 200 198 200 262 c 2,27,-1
 200 1250 l 2,28,29
 200 1314 200 1314 343 1400 c 0,30,31
 530 1512 530 1512 697 1512 c 0,32,33
 700 1512 700 1512 703 1512 c 0,34,35
 873 1512 873 1512 1049 1397 c 0,36,37
 1187 1307 1187 1307 1187 1250 c 2,38,-1
 1187 262 l 2,39,40
 1187 204 1187 204 1049 115 c 0,41,42
 871 0 871 0 703 0 c 0,23,24
886 1977 m 1,43,-1
 1016 1851 l 1,44,-1
 704 1593 l 1,45,-1
 574 1719 l 1,46,-1
 886 1977 l 1,43,-1
EndSplineSet
Validated: 1
EndChar

StartChar: Ocircumflex
Encoding: 212 212 150
Width: 1387
GlyphClass: 2
Flags: W
HStem: 0 192<516.044 873.5> 1320 192<519.464 874.5> 1752 234<590 824>
VStem: 200 197<281.07 1230.93> 987 200<277.017 1234.98>
LayerCount: 2
Fore
SplineSet
889 1602 m 1,0,-1
 707 1752 l 1,1,-1
 525 1602 l 1,2,-1
 395 1728 l 1,3,-1
 707 1986 l 1,4,-1
 1019 1728 l 1,5,-1
 889 1602 l 1,0,-1
987 346 m 2,6,7
 987 346 987 346 987 1166 c 0,8,9
 987 1214 987 1214 897 1265 c 0,10,11
 800 1320 800 1320 701 1320 c 0,12,13
 698 1320 698 1320 696 1320 c 0,14,15
 594 1320 594 1320 481 1258 c 0,16,17
 397 1211 397 1211 397 1156 c 2,18,-1
 397 356 l 2,19,20
 397 301 397 301 481 254 c 0,21,22
 594 192 594 192 696 192 c 0,23,24
 698 192 698 192 701 192 c 0,25,26
 800 192 800 192 897 247 c 0,27,28
 987 298 987 298 987 346 c 2,6,7
703 0 m 0,29,30
 530 0 530 0 343 112 c 0,31,32
 200 198 200 198 200 262 c 2,33,-1
 200 1250 l 2,34,35
 200 1314 200 1314 343 1400 c 0,36,37
 530 1512 530 1512 697 1512 c 0,38,39
 700 1512 700 1512 703 1512 c 0,40,41
 873 1512 873 1512 1049 1397 c 0,42,43
 1187 1307 1187 1307 1187 1250 c 2,44,-1
 1187 262 l 2,45,46
 1187 204 1187 204 1049 115 c 0,47,48
 871 0 871 0 703 0 c 0,29,30
EndSplineSet
Validated: 1
EndChar

StartChar: Otilde
Encoding: 213 213 151
Width: 1387
GlyphClass: 2
Flags: W
HStem: 0 192<516.044 873.5> 1320 192<519.464 874.5>
VStem: 200 197<281.07 1230.93> 987 200<277.017 1234.98>
LayerCount: 2
Fore
SplineSet
973 1995 m 1,0,-1
 1103 1869 l 1,1,-1
 791 1611 l 1,2,-1
 609 1762 l 1,3,-1
 427 1611 l 1,4,-1
 297 1737 l 1,5,-1
 609 1995 l 1,6,-1
 791 1844 l 1,7,-1
 973 1995 l 1,0,-1
987 346 m 2,8,9
 987 346 987 346 987 1166 c 0,10,11
 987 1214 987 1214 897 1265 c 0,12,13
 800 1320 800 1320 701 1320 c 0,14,15
 698 1320 698 1320 696 1320 c 0,16,17
 594 1320 594 1320 481 1258 c 0,18,19
 397 1211 397 1211 397 1156 c 2,20,-1
 397 356 l 2,21,22
 397 301 397 301 481 254 c 0,23,24
 594 192 594 192 696 192 c 0,25,26
 698 192 698 192 701 192 c 0,27,28
 800 192 800 192 897 247 c 0,29,30
 987 298 987 298 987 346 c 2,8,9
703 0 m 0,31,32
 530 0 530 0 343 112 c 0,33,34
 200 198 200 198 200 262 c 2,35,-1
 200 1250 l 2,36,37
 200 1314 200 1314 343 1400 c 0,38,39
 530 1512 530 1512 697 1512 c 0,40,41
 700 1512 700 1512 703 1512 c 0,42,43
 873 1512 873 1512 1049 1397 c 0,44,45
 1187 1307 1187 1307 1187 1250 c 2,46,-1
 1187 262 l 2,47,48
 1187 204 1187 204 1049 115 c 0,49,50
 871 0 871 0 703 0 c 0,31,32
EndSplineSet
Validated: 1
EndChar

StartChar: Odieresis
Encoding: 214 214 152
Width: 1387
GlyphClass: 2
Flags: W
HStem: 0 192<516.044 873.5> 1320 192<519.464 874.5> 1626 264<385.191 566.809 835.191 1016.81>
VStem: 200 197<281.07 1230.93> 346 260<1665.71 1850.29> 796 260<1668.71 1853.29> 987 200<277.017 1234.98>
LayerCount: 2
Fore
SplineSet
796 1761 m 128,-1,1
 796 1816 796 1816 834 1854.5 c 128,-1,2
 872 1893 872 1893 926 1893 c 128,-1,3
 980 1893 980 1893 1018 1854.5 c 128,-1,4
 1056 1816 1056 1816 1056 1761 c 128,-1,5
 1056 1706 1056 1706 1018 1667.5 c 128,-1,6
 980 1629 980 1629 926 1629 c 128,-1,7
 872 1629 872 1629 834 1667.5 c 128,-1,0
 796 1706 796 1706 796 1761 c 128,-1,1
346 1758 m 128,-1,9
 346 1813 346 1813 384 1851.5 c 128,-1,10
 422 1890 422 1890 476 1890 c 128,-1,11
 530 1890 530 1890 568 1851.5 c 128,-1,12
 606 1813 606 1813 606 1758 c 128,-1,13
 606 1703 606 1703 568 1664.5 c 128,-1,14
 530 1626 530 1626 476 1626 c 128,-1,15
 422 1626 422 1626 384 1664.5 c 128,-1,8
 346 1703 346 1703 346 1758 c 128,-1,9
987 346 m 2,16,17
 987 346 987 346 987 1166 c 0,18,19
 987 1214 987 1214 897 1265 c 0,20,21
 800 1320 800 1320 701 1320 c 0,22,23
 698 1320 698 1320 696 1320 c 0,24,25
 594 1320 594 1320 481 1258 c 0,26,27
 397 1211 397 1211 397 1156 c 2,28,-1
 397 356 l 2,29,30
 397 301 397 301 481 254 c 0,31,32
 594 192 594 192 696 192 c 0,33,34
 698 192 698 192 701 192 c 0,35,36
 800 192 800 192 897 247 c 0,37,38
 987 298 987 298 987 346 c 2,16,17
703 0 m 0,39,40
 530 0 530 0 343 112 c 0,41,42
 200 198 200 198 200 262 c 2,43,-1
 200 1250 l 2,44,45
 200 1314 200 1314 343 1400 c 0,46,47
 530 1512 530 1512 697 1512 c 0,48,49
 700 1512 700 1512 703 1512 c 0,50,51
 873 1512 873 1512 1049 1397 c 0,52,53
 1187 1307 1187 1307 1187 1250 c 2,54,-1
 1187 262 l 2,55,56
 1187 204 1187 204 1049 115 c 0,57,58
 871 0 871 0 703 0 c 0,39,40
EndSplineSet
Validated: 1
EndChar

StartChar: multiply
Encoding: 215 215 153
Width: 1092
GlyphClass: 2
Flags: W
HStem: 366 666
VStem: 406 280<559 839>
DStem2: 354 1032 150 955 0.707107 -0.707107<0 272.236 470.226 741.048> 150 443 354 366 0.707107 0.707107<89.8026 362.039 560.029 830.85>
LayerCount: 2
Fore
SplineSet
354 366 m 1,0,-1
 150 443 l 1,1,-1
 406 699 l 1,2,-1
 150 955 l 1,3,-1
 354 1032 l 1,4,-1
 546 839 l 1,5,-1
 738 1030 l 1,6,-1
 943 955 l 1,7,-1
 686 699 l 1,8,-1
 943 443 l 1,9,-1
 738 368 l 1,10,-1
 546 559 l 1,11,-1
 354 366 l 1,0,-1
EndSplineSet
Validated: 16385
EndChar

StartChar: Oslash
Encoding: 216 216 154
Width: 1387
GlyphClass: 2
Flags: W
HStem: 0 192<549.405 873.5> 1320 192<519.464 831.711>
VStem: 200 197<368 1230.93> 987 200<277.017 1156>
DStem2: 201 -48 380 -132 0.426208 0.904625<0.30261 205.051 459.861 1424.17 1672.18 1874.78>
LayerCount: 2
Fore
SplineSet
466 50 m 1,0,-1
 380 -132 l 1,1,-1
 201 -48 l 1,2,-1
 292 145 l 1,3,4
 200 211 200 211 200 262 c 2,5,-1
 200 1250 l 2,6,7
 200 1314 200 1314 343 1400 c 0,8,9
 530 1512 530 1512 697 1512 c 2,10,-1
 703 1512 l 2,11,12
 808 1512 808 1512 915 1468 c 1,13,-1
 1000 1648 l 1,14,-1
 1180 1566 l 1,15,-1
 1088 1370 l 1,16,17
 1187 1298 1187 1298 1187 1250 c 2,18,-1
 1187 262 l 2,19,20
 1187 204 1187 204 1049 115 c 0,21,22
 871 0 871 0 703 0 c 0,23,24
 587 0 587 0 466 50 c 1,0,-1
547 223 m 1,25,26
 624 192 624 192 696 192 c 2,27,-1
 701 192 l 2,28,29
 800 192 800 192 897 247 c 0,30,31
 987 298 987 298 987 346 c 2,32,-1
 987 1156 l 1,33,-1
 547 223 l 1,25,26
397 368 m 1,34,-1
 834 1295 l 1,35,36
 768 1320 768 1320 701 1320 c 2,37,-1
 696 1320 l 2,38,39
 594 1320 594 1320 481 1258 c 0,40,41
 397 1211 397 1211 397 1156 c 2,42,-1
 397 368 l 1,34,-1
EndSplineSet
Validated: 1
EndChar

StartChar: Ugrave
Encoding: 217 217 155
Width: 1387
GlyphClass: 2
Flags: W
HStem: 0 192<512.5 868.036> 1491 20G<354.444 398.034 1143.96 1187>
VStem: 200 200<277.017 1421> 990 197<281.07 1419>
DStem2: 522 1977 392 1851 0.770645 -0.637264<0 384.967>
LayerCount: 2
Fore
SplineSet
522 1977 m 1,0,-1
 834 1719 l 1,1,-1
 704 1593 l 1,2,-1
 392 1851 l 1,3,-1
 522 1977 l 1,0,-1
200 262 m 2,4,-1
 202 1421 l 1,5,-1
 398 1511 l 1,6,-1
 400 346 l 2,7,8
 400 298 400 298 490 247 c 0,9,10
 587 192 587 192 686 192 c 0,11,12
 688 192 688 192 691 192 c 0,13,14
 795 192 795 192 906 254 c 0,15,16
 990 301 990 301 990 356 c 2,17,-1
 989 1419 l 1,18,-1
 1187 1511 l 1,19,-1
 1187 262 l 2,20,21
 1187 198 1187 198 1044 112 c 0,22,23
 858 0 858 0 690 0 c 0,24,25
 687 0 687 0 684 0 c 0,26,27
 514 0 514 0 338 115 c 0,28,29
 200 205 200 205 200 262 c 2,4,-1
EndSplineSet
Validated: 1
EndChar

StartChar: Uacute
Encoding: 218 218 156
Width: 1387
GlyphClass: 2
Flags: W
HStem: 0 192<512.5 868.036> 1491 20G<354.444 398.034 1143.96 1187>
VStem: 200 200<277.017 1421> 990 197<281.07 1419>
DStem2: 574 1719 704 1593 0.770645 0.637264<19.8886 404.856>
LayerCount: 2
Fore
SplineSet
886 1977 m 1,0,-1
 1016 1851 l 1,1,-1
 704 1593 l 1,2,-1
 574 1719 l 1,3,-1
 886 1977 l 1,0,-1
200 262 m 2,4,-1
 202 1421 l 1,5,-1
 398 1511 l 1,6,-1
 400 346 l 2,7,8
 400 298 400 298 490 247 c 0,9,10
 587 192 587 192 686 192 c 0,11,12
 688 192 688 192 691 192 c 0,13,14
 795 192 795 192 906 254 c 0,15,16
 990 301 990 301 990 356 c 2,17,-1
 989 1419 l 1,18,-1
 1187 1511 l 1,19,-1
 1187 262 l 2,20,21
 1187 198 1187 198 1044 112 c 0,22,23
 858 0 858 0 690 0 c 0,24,25
 687 0 687 0 684 0 c 0,26,27
 514 0 514 0 338 115 c 0,28,29
 200 205 200 205 200 262 c 2,4,-1
EndSplineSet
Validated: 1
EndChar

StartChar: Ucircumflex
Encoding: 219 219 157
Width: 1387
GlyphClass: 2
Flags: W
HStem: 0 192<512.5 868.036> 1491 20G<354.444 398.034 1143.96 1187> 1752 234<590 824>
VStem: 200 200<277.017 1421> 990 197<281.07 1419>
LayerCount: 2
Fore
SplineSet
889 1602 m 1,0,-1
 707 1752 l 1,1,-1
 525 1602 l 1,2,-1
 395 1728 l 1,3,-1
 707 1986 l 1,4,-1
 1019 1728 l 1,5,-1
 889 1602 l 1,0,-1
200 262 m 2,6,-1
 202 1421 l 1,7,-1
 398 1511 l 1,8,-1
 400 346 l 2,9,10
 400 298 400 298 490 247 c 0,11,12
 587 192 587 192 686 192 c 0,13,14
 688 192 688 192 691 192 c 0,15,16
 795 192 795 192 906 254 c 0,17,18
 990 301 990 301 990 356 c 2,19,-1
 989 1419 l 1,20,-1
 1187 1511 l 1,21,-1
 1187 262 l 2,22,23
 1187 198 1187 198 1044 112 c 0,24,25
 858 0 858 0 690 0 c 0,26,27
 687 0 687 0 684 0 c 0,28,29
 514 0 514 0 338 115 c 0,30,31
 200 205 200 205 200 262 c 2,6,-1
EndSplineSet
Validated: 1
EndChar

StartChar: Udieresis
Encoding: 220 220 158
Width: 1387
GlyphClass: 2
Flags: W
HStem: 0 192<512.5 868.036> 1491 20G<354.444 398.034 1143.96 1187> 1626 264<385.191 566.809 835.191 1016.81>
VStem: 200 200<277.017 1421> 346 260<1665.71 1850.29> 796 260<1668.71 1853.29> 990 197<281.07 1419>
LayerCount: 2
Fore
SplineSet
796 1761 m 128,-1,1
 796 1816 796 1816 834 1854.5 c 128,-1,2
 872 1893 872 1893 926 1893 c 128,-1,3
 980 1893 980 1893 1018 1854.5 c 128,-1,4
 1056 1816 1056 1816 1056 1761 c 128,-1,5
 1056 1706 1056 1706 1018 1667.5 c 128,-1,6
 980 1629 980 1629 926 1629 c 128,-1,7
 872 1629 872 1629 834 1667.5 c 128,-1,0
 796 1706 796 1706 796 1761 c 128,-1,1
346 1758 m 128,-1,9
 346 1813 346 1813 384 1851.5 c 128,-1,10
 422 1890 422 1890 476 1890 c 128,-1,11
 530 1890 530 1890 568 1851.5 c 128,-1,12
 606 1813 606 1813 606 1758 c 128,-1,13
 606 1703 606 1703 568 1664.5 c 128,-1,14
 530 1626 530 1626 476 1626 c 128,-1,15
 422 1626 422 1626 384 1664.5 c 128,-1,8
 346 1703 346 1703 346 1758 c 128,-1,9
200 262 m 2,16,-1
 202 1421 l 1,17,-1
 398 1511 l 1,18,-1
 400 346 l 2,19,20
 400 298 400 298 490 247 c 0,21,22
 587 192 587 192 686 192 c 0,23,24
 688 192 688 192 691 192 c 0,25,26
 795 192 795 192 906 254 c 0,27,28
 990 301 990 301 990 356 c 2,29,-1
 989 1419 l 1,30,-1
 1187 1511 l 1,31,-1
 1187 262 l 2,32,33
 1187 198 1187 198 1044 112 c 0,34,35
 858 0 858 0 690 0 c 0,36,37
 687 0 687 0 684 0 c 0,38,39
 514 0 514 0 338 115 c 0,40,41
 200 205 200 205 200 262 c 2,16,-1
EndSplineSet
Validated: 1
EndChar

StartChar: Yacute
Encoding: 221 221 159
Width: 1388
GlyphClass: 2
Flags: W
HStem: 0 21G<598.957 642.043> 1491 20G<352.444 396.114 1142.96 1186.05>
VStem: 200 200<739.599 1421> 599 198<92 478.438> 990 198<743.183 1419>
DStem2: 574 1719 704 1593 0.770645 0.637264<19.8886 404.856>
LayerCount: 2
Fore
SplineSet
886 1977 m 1,0,-1
 1016 1851 l 1,1,-1
 704 1593 l 1,2,-1
 574 1719 l 1,3,-1
 886 1977 l 1,0,-1
598 470 m 1,4,5
 470 492 470 492 338 578 c 0,6,7
 200 667 200 667 200 725 c 2,8,-1
 200 1421 l 1,9,-1
 396 1511 l 1,10,-1
 400 809 l 2,11,12
 400 760 400 760 490 710 c 0,13,14
 589 655 589 655 686 655 c 2,15,-1
 692 655 l 2,16,17
 790 655 790 655 906 717 c 0,18,19
 990 762 990 762 990 818 c 2,20,-1
 990 819 l 1,21,-1
 988 1419 l 1,22,-1
 1186 1511 l 1,23,-1
 1188 725 l 2,24,25
 1188 658 1188 658 1044 575 c 0,26,27
 903 494 903 494 796 471 c 1,28,-1
 797 92 l 1,29,-1
 599 0 l 1,30,-1
 598 470 l 1,4,5
EndSplineSet
Validated: 1
EndChar

StartChar: Thorn
Encoding: 222 222 160
Width: 1233
GlyphClass: 2
Flags: W
HStem: 0 21G<200.014 243.043> 278 190<397 795.095> 1057 190<398 787.701> 1491 20G<355 398.924>
VStem: 200 198<92 278 468 1054 1247 1421> 908 205<553.017 973.74>
LayerCount: 2
Fore
SplineSet
622 468 m 2,0,1
 719 468 719 468 818 523 c 0,2,3
 908 574 908 574 908 622 c 2,4,-1
 908 901 l 2,5,6
 908 958 908 958 818 1000 c 0,7,8
 696 1057 696 1057 624 1057 c 2,9,-1
 622 1057 l 1,10,-1
 398 1054 l 1,11,-1
 397 468 l 1,12,-1
 622 468 l 2,0,1
200 0 m 1,13,-1
 201 1421 l 1,14,-1
 399 1511 l 1,15,-1
 398 1247 l 1,16,-1
 629 1247 l 2,17,18
 795 1247 795 1247 975 1130 c 0,19,20
 1113 1040 1113 1040 1113 983 c 2,21,-1
 1113 541 l 2,22,23
 1113 483 1113 483 975 394 c 0,24,25
 799 281 799 281 629 279 c 1,26,-1
 397 278 l 1,27,-1
 398 92 l 1,28,-1
 200 0 l 1,13,-1
EndSplineSet
Validated: 1
EndChar

StartChar: germandbls
Encoding: 223 223 161
Width: 1317
GlyphClass: 2
Flags: W
HStem: 0 21G<200.016 243.011> 20 190<546 879.095> 743 191<584 764.757> 1300 188<475.45 768.945>
VStem: 200 200<93 1233.99> 876 205<1018.93 1214.85> 992 205<295.434 666.915>
LayerCount: 2
Fore
SplineSet
614 1488 m 0,0,1
 654 1488 654 1488 657 1488 c 0,2,3
 774 1488 774 1488 941 1378 c 0,4,5
 1078 1287 1078 1287 1079 1231 c 2,6,-1
 1081 1007 l 2,7,8
 1081 953 1081 953 962 872 c 1,9,10
 1010 849 1010 849 1059 818 c 0,11,12
 1197 731 1197 731 1197 671 c 2,13,-1
 1197 282 l 2,14,15
 1197 225 1197 225 1059 135 c 0,16,17
 883 20 883 20 713 20 c 2,18,-1
 431 20 l 1,19,-1
 546 210 l 1,20,-1
 706 210 l 2,21,22
 806 210 806 210 902 265 c 0,23,24
 992 317 992 317 992 364 c 2,25,-1
 992 590 l 2,26,27
 992 657 992 657 902 689 c 0,28,29
 743 744 743 744 706 744 c 2,30,-1
 494 743 l 1,31,-1
 584 934 l 1,32,-1
 590 934 l 2,33,34
 689 934 689 934 786 989 c 0,35,36
 876 1040 876 1040 876 1087 c 2,37,-1
 876 1088 l 1,38,-1
 874 1149 l 2,39,40
 872 1197 872 1197 784 1248 c 0,41,42
 695 1300 695 1300 642 1300 c 2,43,-1
 621 1300 l 1,44,-1
 617 1300 l 2,45,46
 547 1300 547 1300 490 1266 c 0,47,48
 402 1214 402 1214 400 1167 c 1,49,-1
 400 93 l 1,50,-1
 200 0 l 1,51,-1
 201 1248 l 2,52,53
 202 1307 202 1307 339 1395 c 0,54,55
 483 1488 483 1488 614 1488 c 0,0,1
EndSplineSet
Validated: 1
EndChar

StartChar: agrave
Encoding: 224 224 162
Width: 1084
GlyphClass: 2
Flags: W
HStem: 0 176<385.324 648> 938 182<386.272 691.826>
VStem: 130 199<229.391 884.822> 760 194<92 876.883>
DStem2: 367 1577 237 1451 0.770645 -0.637264<0 384.967>
LayerCount: 2
Fore
SplineSet
367 1577 m 1,0,-1
 679 1319 l 1,1,-1
 549 1193 l 1,2,-1
 237 1451 l 1,3,-1
 367 1577 l 1,0,-1
951 893 m 1,4,5
 952 892 952 892 954 92 c 1,6,-1
 756 0 l 1,7,8
 760 207 760 207 760 345 c 0,9,10
 760 368 760 368 760 397 c 2,11,-1
 758 826 l 2,12,13
 758 850 758 850 695 892 c 0,14,15
 626 938 626 938 544 938 c 0,16,17
 454 938 454 938 390 897 c 0,18,19
 324 855 324 855 324 828 c 2,20,-1
 329 284 l 2,21,22
 329 255 329 255 391 217 c 0,23,24
 458 176 458 176 541 176 c 0,25,26
 545 176 545 176 555 175 c 0,27,28
 576 173 576 173 590 174 c 0,29,30
 665 178 665 178 740 182 c 1,31,-1
 648 4 l 1,32,33
 604 0 604 0 548 0 c 0,34,35
 411 0 411 0 285 74 c 0,36,37
 149 155 149 155 134 240 c 0,38,39
 130 263 130 263 130 388 c 2,40,-1
 130 880 l 2,41,42
 130 957 130 957 280 1044 c 0,43,44
 411 1120 411 1120 541 1120 c 0,45,46
 548 1120 548 1120 554 1120 c 0,47,48
 680 1120 680 1120 820 1038 c 0,49,50
 951 961 951 961 951 893 c 1,4,5
EndSplineSet
Validated: 16385
EndChar

StartChar: aacute
Encoding: 225 225 163
Width: 1084
GlyphClass: 2
Flags: W
HStem: 0 176<385.324 648> 938 182<386.272 691.826>
VStem: 130 199<229.391 884.822> 760 194<92 876.883>
DStem2: 419 1319 549 1193 0.770645 0.637264<19.8886 404.856>
LayerCount: 2
Fore
SplineSet
731 1577 m 1,0,-1
 861 1451 l 1,1,-1
 549 1193 l 1,2,-1
 419 1319 l 1,3,-1
 731 1577 l 1,0,-1
951 893 m 1,4,5
 952 892 952 892 954 92 c 1,6,-1
 756 0 l 1,7,8
 760 207 760 207 760 345 c 0,9,10
 760 368 760 368 760 397 c 2,11,-1
 758 826 l 2,12,13
 758 850 758 850 695 892 c 0,14,15
 626 938 626 938 544 938 c 0,16,17
 454 938 454 938 390 897 c 0,18,19
 324 855 324 855 324 828 c 2,20,-1
 329 284 l 2,21,22
 329 255 329 255 391 217 c 0,23,24
 458 176 458 176 541 176 c 0,25,26
 545 176 545 176 555 175 c 0,27,28
 576 173 576 173 590 174 c 0,29,30
 665 178 665 178 740 182 c 1,31,-1
 648 4 l 1,32,33
 604 0 604 0 548 0 c 0,34,35
 411 0 411 0 285 74 c 0,36,37
 149 155 149 155 134 240 c 0,38,39
 130 263 130 263 130 388 c 2,40,-1
 130 880 l 2,41,42
 130 957 130 957 280 1044 c 0,43,44
 411 1120 411 1120 541 1120 c 0,45,46
 548 1120 548 1120 554 1120 c 0,47,48
 680 1120 680 1120 820 1038 c 0,49,50
 951 961 951 961 951 893 c 1,4,5
EndSplineSet
Validated: 16385
EndChar

StartChar: acircumflex
Encoding: 226 226 164
Width: 1084
GlyphClass: 2
Flags: W
HStem: 0 176<385.324 648> 938 182<386.272 691.826> 1344 233<432.5 665.5>
VStem: 130 199<229.391 884.822> 760 194<92 876.883>
LayerCount: 2
Fore
SplineSet
731 1193 m 1,0,-1
 549 1344 l 1,1,-1
 367 1193 l 1,2,-1
 237 1319 l 1,3,-1
 549 1577 l 1,4,-1
 861 1319 l 1,5,-1
 731 1193 l 1,0,-1
951 893 m 1,6,7
 952 892 952 892 954 92 c 1,8,-1
 756 0 l 1,9,10
 760 207 760 207 760 345 c 0,11,12
 760 368 760 368 760 397 c 2,13,-1
 758 826 l 2,14,15
 758 850 758 850 695 892 c 0,16,17
 626 938 626 938 544 938 c 0,18,19
 454 938 454 938 390 897 c 0,20,21
 324 855 324 855 324 828 c 2,22,-1
 329 284 l 2,23,24
 329 255 329 255 391 217 c 0,25,26
 458 176 458 176 541 176 c 0,27,28
 545 176 545 176 555 175 c 0,29,30
 576 173 576 173 590 174 c 0,31,32
 665 178 665 178 740 182 c 1,33,-1
 648 4 l 1,34,35
 604 0 604 0 548 0 c 0,36,37
 411 0 411 0 285 74 c 0,38,39
 149 155 149 155 134 240 c 0,40,41
 130 263 130 263 130 388 c 2,42,-1
 130 880 l 2,43,44
 130 957 130 957 280 1044 c 0,45,46
 411 1120 411 1120 541 1120 c 0,47,48
 548 1120 548 1120 554 1120 c 0,49,50
 680 1120 680 1120 820 1038 c 0,51,52
 951 961 951 961 951 893 c 1,6,7
EndSplineSet
Validated: 16385
EndChar

StartChar: atilde
Encoding: 227 227 165
Width: 1084
GlyphClass: 2
Flags: W
HStem: 0 176<385.324 648> 938 182<386.272 691.826>
VStem: 130 199<229.391 884.822> 760 194<92 876.883>
LayerCount: 2
Fore
SplineSet
842 1575 m 1,0,-1
 972 1449 l 1,1,-1
 660 1191 l 1,2,-1
 478 1342 l 1,3,-1
 296 1191 l 1,4,-1
 166 1317 l 1,5,-1
 478 1575 l 1,6,-1
 660 1424 l 1,7,-1
 842 1575 l 1,0,-1
951 893 m 1,8,9
 952 892 952 892 954 92 c 1,10,-1
 756 0 l 1,11,12
 760 207 760 207 760 345 c 0,13,14
 760 368 760 368 760 397 c 2,15,-1
 758 826 l 2,16,17
 758 850 758 850 695 892 c 0,18,19
 626 938 626 938 544 938 c 0,20,21
 454 938 454 938 390 897 c 0,22,23
 324 855 324 855 324 828 c 2,24,-1
 329 284 l 2,25,26
 329 255 329 255 391 217 c 0,27,28
 458 176 458 176 541 176 c 0,29,30
 545 176 545 176 555 175 c 0,31,32
 576 173 576 173 590 174 c 0,33,34
 665 178 665 178 740 182 c 1,35,-1
 648 4 l 1,36,37
 604 0 604 0 548 0 c 0,38,39
 411 0 411 0 285 74 c 0,40,41
 149 155 149 155 134 240 c 0,42,43
 130 263 130 263 130 388 c 2,44,-1
 130 880 l 2,45,46
 130 957 130 957 280 1044 c 0,47,48
 411 1120 411 1120 541 1120 c 0,49,50
 548 1120 548 1120 554 1120 c 0,51,52
 680 1120 680 1120 820 1038 c 0,53,54
 951 961 951 961 951 893 c 1,8,9
EndSplineSet
Validated: 16385
EndChar

StartChar: adieresis
Encoding: 228 228 166
Width: 1084
GlyphClass: 2
Flags: W
HStem: 0 176<385.324 648> 938 182<386.272 691.826> 1248 264<235.191 416.809 685.191 866.809>
VStem: 130 199<229.391 884.822> 196 260<1287.71 1472.29> 646 260<1290.71 1475.29> 760 194<92 876.883>
LayerCount: 2
Fore
SplineSet
646 1383 m 128,-1,1
 646 1438 646 1438 684 1476.5 c 128,-1,2
 722 1515 722 1515 776 1515 c 128,-1,3
 830 1515 830 1515 868 1476.5 c 128,-1,4
 906 1438 906 1438 906 1383 c 128,-1,5
 906 1328 906 1328 868 1289.5 c 128,-1,6
 830 1251 830 1251 776 1251 c 128,-1,7
 722 1251 722 1251 684 1289.5 c 128,-1,0
 646 1328 646 1328 646 1383 c 128,-1,1
196 1380 m 128,-1,9
 196 1435 196 1435 234 1473.5 c 128,-1,10
 272 1512 272 1512 326 1512 c 128,-1,11
 380 1512 380 1512 418 1473.5 c 128,-1,12
 456 1435 456 1435 456 1380 c 128,-1,13
 456 1325 456 1325 418 1286.5 c 128,-1,14
 380 1248 380 1248 326 1248 c 128,-1,15
 272 1248 272 1248 234 1286.5 c 128,-1,8
 196 1325 196 1325 196 1380 c 128,-1,9
951 893 m 1,16,17
 952 892 952 892 954 92 c 1,18,-1
 756 0 l 1,19,20
 760 207 760 207 760 345 c 0,21,22
 760 368 760 368 760 397 c 2,23,-1
 758 826 l 2,24,25
 758 850 758 850 695 892 c 0,26,27
 626 938 626 938 544 938 c 0,28,29
 454 938 454 938 390 897 c 0,30,31
 324 855 324 855 324 828 c 2,32,-1
 329 284 l 2,33,34
 329 255 329 255 391 217 c 0,35,36
 458 176 458 176 541 176 c 0,37,38
 545 176 545 176 555 175 c 0,39,40
 576 173 576 173 590 174 c 0,41,42
 665 178 665 178 740 182 c 1,43,-1
 648 4 l 1,44,45
 604 0 604 0 548 0 c 0,46,47
 411 0 411 0 285 74 c 0,48,49
 149 155 149 155 134 240 c 0,50,51
 130 263 130 263 130 388 c 2,52,-1
 130 880 l 2,53,54
 130 957 130 957 280 1044 c 0,55,56
 411 1120 411 1120 541 1120 c 0,57,58
 548 1120 548 1120 554 1120 c 0,59,60
 680 1120 680 1120 820 1038 c 0,61,62
 951 961 951 961 951 893 c 1,16,17
EndSplineSet
Validated: 16385
EndChar

StartChar: aring
Encoding: 229 229 167
Width: 1084
GlyphClass: 2
Flags: W
HStem: 0 176<385.324 648> 938 182<386.272 691.826> 1218 141<464.808 617.366> 1548 142<457.25 616.975>
VStem: 130 199<229.391 884.822> 294 148<1381.34 1534.17> 640 152<1380.89 1525.83> 760 194<92 876.883>
LayerCount: 2
Fore
SplineSet
533 1548 m 0,0,1
 497 1548 497 1548 470 1520 c 0,2,3
 442 1491 442 1491 442 1454 c 0,4,5
 442 1415 442 1415 471 1387 c 128,-1,6
 500 1359 500 1359 541 1359 c 128,-1,7
 582 1359 582 1359 611 1386.5 c 128,-1,8
 640 1414 640 1414 640 1453 c 0,9,10
 640 1489 640 1489 611 1520 c 0,11,12
 585 1548 585 1548 533 1548 c 0,0,1
294 1461 m 0,13,14
 294 1521 294 1521 327 1572 c 0,15,16
 363 1628 363 1628 418 1658 c 1,17,18
 474 1690 474 1690 543 1690 c 0,19,20
 607 1690 607 1690 668 1658 c 0,21,22
 713 1635 713 1635 755 1571 c 0,23,24
 792 1514 792 1514 792 1448 c 0,25,26
 792 1388 792 1388 759 1336 c 0,27,28
 723 1280 723 1280 668 1249 c 128,-1,29
 613 1218 613 1218 543 1218 c 0,30,31
 482 1218 482 1218 418 1250 c 0,32,33
 355 1282 355 1282 322 1334 c 0,34,35
 294 1379 294 1379 294 1461 c 0,13,14
951 893 m 1,36,37
 952 892 952 892 954 92 c 1,38,-1
 756 0 l 1,39,40
 760 207 760 207 760 345 c 0,41,42
 760 368 760 368 760 397 c 2,43,-1
 758 826 l 2,44,45
 758 850 758 850 695 892 c 0,46,47
 626 938 626 938 544 938 c 0,48,49
 454 938 454 938 390 897 c 0,50,51
 324 855 324 855 324 828 c 2,52,-1
 329 284 l 2,53,54
 329 255 329 255 391 217 c 0,55,56
 458 176 458 176 541 176 c 0,57,58
 545 176 545 176 555 175 c 0,59,60
 576 173 576 173 590 174 c 0,61,62
 665 178 665 178 740 182 c 1,63,-1
 648 4 l 1,64,65
 604 0 604 0 548 0 c 0,66,67
 411 0 411 0 285 74 c 0,68,69
 149 155 149 155 134 240 c 0,70,71
 130 263 130 263 130 388 c 2,72,-1
 130 880 l 2,73,74
 130 957 130 957 280 1044 c 0,75,76
 411 1120 411 1120 541 1120 c 0,77,78
 548 1120 548 1120 554 1120 c 0,79,80
 680 1120 680 1120 820 1038 c 0,81,82
 951 961 951 961 951 893 c 1,36,37
EndSplineSet
Validated: 16385
EndChar

StartChar: ae
Encoding: 230 230 168
Width: 1715
GlyphClass: 2
Flags: W
HStem: 0 182<376.983 646.622 1019.25 1324.93> 938 182<386.272 692.324 1018.24 1322.83>
VStem: 130 199<229.391 884.822> 756 201<237.918 410 600 880.543> 1391 192<240.686 401 799 876.883>
DStem2: 956 600 957 410 0.910665 0.413145<0 476.534>
LayerCount: 2
Fore
SplineSet
956 600 m 1,0,-1
 1389 799 l 1,1,-1
 1389 826 l 2,2,3
 1389 850 1389 850 1326 892 c 0,4,5
 1257 938 1257 938 1175 938 c 0,6,7
 1085 938 1085 938 1021 897 c 0,8,9
 955 855 955 855 955 828 c 2,10,-1
 956 600 l 1,0,-1
756 0 m 1,11,-1
 758 826 l 2,12,13
 758 850 758 850 695 892 c 0,14,15
 626 938 626 938 544 938 c 0,16,17
 454 938 454 938 390 897 c 0,18,19
 324 855 324 855 324 828 c 2,20,-1
 329 284 l 2,21,22
 329 255 329 255 391 217 c 0,23,24
 458 176 458 176 541 176 c 0,25,26
 544 176 544 176 555 175 c 0,27,28
 572 173 572 173 590 174 c 2,29,-1
 740 182 l 1,30,-1
 648 4 l 1,31,32
 604 0 604 0 548 0 c 0,33,34
 411 0 411 0 285 74 c 0,35,36
 149 155 149 155 134 240 c 0,37,38
 130 263 130 263 130 388 c 2,39,-1
 130 880 l 2,40,41
 130 957 130 957 280 1044 c 0,42,43
 411 1120 411 1120 541 1120 c 2,44,-1
 554 1120 l 2,45,46
 681 1120 681 1120 820 1038 c 0,47,48
 842 1025 842 1025 861 1012 c 1,49,50
 883 1028 883 1028 911 1044 c 0,51,52
 1044 1120 1044 1120 1172 1120 c 2,53,-1
 1185 1120 l 2,54,55
 1311 1120 1311 1120 1451 1038 c 0,56,57
 1583 960 1583 960 1583 888 c 2,58,-1
 1583 694 l 1,59,-1
 957 410 l 1,60,-1
 957 292 l 2,61,62
 957 264 957 264 1023 223 c 128,-1,63
 1089 182 1089 182 1173 182 c 2,64,-1
 1177 182 l 2,65,66
 1259 182 1259 182 1328 228 c 0,67,68
 1391 270 1391 270 1391 294 c 2,69,-1
 1391 401 l 1,70,-1
 1583 488 l 1,71,-1
 1585 232 l 1,72,-1
 1585 231 l 2,73,74
 1585 158 1585 158 1453 82 c 0,75,76
 1311 0 1311 0 1172 0 c 0,77,78
 1037 0 1037 0 912 72 c 1,79,-1
 756 0 l 1,11,-1
EndSplineSet
Validated: 16385
EndChar

StartChar: ccedilla
Encoding: 231 231 169
Width: 1084
GlyphClass: 2
Flags: W
HStem: 938 182<386.272 691.826>
VStem: 132 194<237.918 882.409> 760 192<240.686 401 694 876.883>
LayerCount: 2
Fore
SplineSet
760 401 m 1,0,-1
 952 488 l 1,1,-1
 954 232 l 1,2,-1
 954 231 l 2,3,4
 954 159 954 159 822 82 c 0,5,6
 712 18 712 18 604 4 c 1,7,-1
 749 -142 l 1,8,-1
 525 -386 l 1,9,-1
 399 -256 l 1,10,-1
 515 -142 l 1,11,-1
 425 -50 l 1,12,-1
 479 4 l 1,13,14
 375 17 375 17 278 74 c 0,15,16
 132 160 132 160 132 237 c 2,17,-1
 132 240 l 1,18,-1
 130 880 l 2,19,20
 130 957 130 957 280 1044 c 0,21,22
 411 1120 411 1120 541 1120 c 2,23,-1
 554 1120 l 2,24,25
 680 1120 680 1120 820 1038 c 0,26,27
 952 960 952 960 952 888 c 2,28,-1
 952 694 l 1,29,-1
 756 606 l 1,30,-1
 758 826 l 2,31,32
 758 850 758 850 695 892 c 0,33,34
 626 938 626 938 544 938 c 0,35,36
 454 938 454 938 390 897 c 0,37,38
 324 855 324 855 324 828 c 2,39,-1
 326 292 l 2,40,41
 326 264 326 264 392 223 c 128,-1,42
 458 182 458 182 542 182 c 2,43,-1
 546 182 l 2,44,45
 628 182 628 182 697 228 c 0,46,47
 760 270 760 270 760 294 c 2,48,-1
 760 401 l 1,0,-1
EndSplineSet
Validated: 16385
EndChar

StartChar: egrave
Encoding: 232 232 170
Width: 1084
GlyphClass: 2
Flags: W
HStem: 0 182<386.27 693.928> 938 182<386.272 691.826>
VStem: 132 194<237.918 410 600 882.409> 760 192<240.686 401 799 876.883>
DStem2: 367 1577 237 1451 0.770645 -0.637264<0 384.967> 325 600 326 410 0.910665 0.413145<0 476.534>
LayerCount: 2
Fore
SplineSet
367 1577 m 1,0,-1
 679 1319 l 1,1,-1
 549 1193 l 1,2,-1
 237 1451 l 1,3,-1
 367 1577 l 1,0,-1
326 410 m 1,4,-1
 326 292 l 2,5,6
 326 264 326 264 392 223 c 128,-1,7
 458 182 458 182 542 182 c 2,8,-1
 546 182 l 2,9,10
 628 182 628 182 697 228 c 0,11,12
 760 270 760 270 760 294 c 2,13,-1
 760 401 l 1,14,-1
 952 488 l 1,15,-1
 954 232 l 1,16,-1
 954 231 l 2,17,18
 954 158 954 158 822 82 c 0,19,20
 680 0 680 0 541 0 c 0,21,22
 404 0 404 0 278 74 c 0,23,24
 132 160 132 160 132 237 c 2,25,-1
 132 240 l 1,26,-1
 130 880 l 2,27,28
 130 957 130 957 280 1044 c 0,29,30
 411 1120 411 1120 541 1120 c 2,31,-1
 554 1120 l 2,32,33
 680 1120 680 1120 820 1038 c 0,34,35
 952 960 952 960 952 888 c 2,36,-1
 952 694 l 1,37,-1
 326 410 l 1,4,-1
325 600 m 1,38,-1
 758 799 l 1,39,-1
 758 826 l 2,40,41
 758 850 758 850 695 892 c 0,42,43
 626 938 626 938 544 938 c 0,44,45
 454 938 454 938 390 897 c 0,46,47
 324 855 324 855 324 828 c 2,48,-1
 325 600 l 1,38,-1
EndSplineSet
Validated: 16385
EndChar

StartChar: eacute
Encoding: 233 233 171
Width: 1084
GlyphClass: 2
Flags: W
HStem: 0 182<386.27 693.928> 938 182<386.272 691.826>
VStem: 132 194<237.918 410 600 882.409> 760 192<240.686 401 799 876.883>
DStem2: 325 600 326 410 0.910665 0.413145<0 476.534> 419 1319 549 1193 0.770645 0.637264<19.8886 404.856>
LayerCount: 2
Fore
SplineSet
731 1577 m 1,0,-1
 861 1451 l 1,1,-1
 549 1193 l 1,2,-1
 419 1319 l 1,3,-1
 731 1577 l 1,0,-1
326 410 m 1,4,-1
 326 292 l 2,5,6
 326 264 326 264 392 223 c 128,-1,7
 458 182 458 182 542 182 c 2,8,-1
 546 182 l 2,9,10
 628 182 628 182 697 228 c 0,11,12
 760 270 760 270 760 294 c 2,13,-1
 760 401 l 1,14,-1
 952 488 l 1,15,-1
 954 232 l 1,16,-1
 954 231 l 2,17,18
 954 158 954 158 822 82 c 0,19,20
 680 0 680 0 541 0 c 0,21,22
 404 0 404 0 278 74 c 0,23,24
 132 160 132 160 132 237 c 2,25,-1
 132 240 l 1,26,-1
 130 880 l 2,27,28
 130 957 130 957 280 1044 c 0,29,30
 411 1120 411 1120 541 1120 c 2,31,-1
 554 1120 l 2,32,33
 680 1120 680 1120 820 1038 c 0,34,35
 952 960 952 960 952 888 c 2,36,-1
 952 694 l 1,37,-1
 326 410 l 1,4,-1
325 600 m 1,38,-1
 758 799 l 1,39,-1
 758 826 l 2,40,41
 758 850 758 850 695 892 c 0,42,43
 626 938 626 938 544 938 c 0,44,45
 454 938 454 938 390 897 c 0,46,47
 324 855 324 855 324 828 c 2,48,-1
 325 600 l 1,38,-1
EndSplineSet
Validated: 16385
EndChar

StartChar: ecircumflex
Encoding: 234 234 172
Width: 1084
GlyphClass: 2
Flags: W
HStem: 0 182<386.27 693.928> 938 182<386.272 691.826> 1344 233<432.5 665.5>
VStem: 132 194<237.918 410 600 882.409> 760 192<240.686 401 799 876.883>
DStem2: 325 600 326 410 0.910665 0.413145<0 476.534>
LayerCount: 2
Fore
SplineSet
731 1193 m 1,0,-1
 549 1344 l 1,1,-1
 367 1193 l 1,2,-1
 237 1319 l 1,3,-1
 549 1577 l 1,4,-1
 861 1319 l 1,5,-1
 731 1193 l 1,0,-1
326 410 m 1,6,-1
 326 292 l 2,7,8
 326 264 326 264 392 223 c 128,-1,9
 458 182 458 182 542 182 c 2,10,-1
 546 182 l 2,11,12
 628 182 628 182 697 228 c 0,13,14
 760 270 760 270 760 294 c 2,15,-1
 760 401 l 1,16,-1
 952 488 l 1,17,-1
 954 232 l 1,18,-1
 954 231 l 2,19,20
 954 158 954 158 822 82 c 0,21,22
 680 0 680 0 541 0 c 0,23,24
 404 0 404 0 278 74 c 0,25,26
 132 160 132 160 132 237 c 2,27,-1
 132 240 l 1,28,-1
 130 880 l 2,29,30
 130 957 130 957 280 1044 c 0,31,32
 411 1120 411 1120 541 1120 c 2,33,-1
 554 1120 l 2,34,35
 680 1120 680 1120 820 1038 c 0,36,37
 952 960 952 960 952 888 c 2,38,-1
 952 694 l 1,39,-1
 326 410 l 1,6,-1
325 600 m 1,40,-1
 758 799 l 1,41,-1
 758 826 l 2,42,43
 758 850 758 850 695 892 c 0,44,45
 626 938 626 938 544 938 c 0,46,47
 454 938 454 938 390 897 c 0,48,49
 324 855 324 855 324 828 c 2,50,-1
 325 600 l 1,40,-1
EndSplineSet
Validated: 16385
EndChar

StartChar: edieresis
Encoding: 235 235 173
Width: 1084
GlyphClass: 2
Flags: W
HStem: 0 182<386.27 693.928> 938 182<386.272 691.826> 1248 264<235.191 416.809 685.191 866.809>
VStem: 132 194<237.918 410 600 882.409> 196 260<1287.71 1472.29> 646 260<1290.71 1475.29> 760 192<240.686 401 799 876.883>
DStem2: 325 600 326 410 0.910665 0.413145<0 476.534>
LayerCount: 2
Fore
SplineSet
646 1383 m 128,-1,1
 646 1438 646 1438 684 1476.5 c 128,-1,2
 722 1515 722 1515 776 1515 c 128,-1,3
 830 1515 830 1515 868 1476.5 c 128,-1,4
 906 1438 906 1438 906 1383 c 128,-1,5
 906 1328 906 1328 868 1289.5 c 128,-1,6
 830 1251 830 1251 776 1251 c 128,-1,7
 722 1251 722 1251 684 1289.5 c 128,-1,0
 646 1328 646 1328 646 1383 c 128,-1,1
196 1380 m 128,-1,9
 196 1435 196 1435 234 1473.5 c 128,-1,10
 272 1512 272 1512 326 1512 c 128,-1,11
 380 1512 380 1512 418 1473.5 c 128,-1,12
 456 1435 456 1435 456 1380 c 128,-1,13
 456 1325 456 1325 418 1286.5 c 128,-1,14
 380 1248 380 1248 326 1248 c 128,-1,15
 272 1248 272 1248 234 1286.5 c 128,-1,8
 196 1325 196 1325 196 1380 c 128,-1,9
326 410 m 1,16,-1
 326 292 l 2,17,18
 326 264 326 264 392 223 c 128,-1,19
 458 182 458 182 542 182 c 2,20,-1
 546 182 l 2,21,22
 628 182 628 182 697 228 c 0,23,24
 760 270 760 270 760 294 c 2,25,-1
 760 401 l 1,26,-1
 952 488 l 1,27,-1
 954 232 l 1,28,-1
 954 231 l 2,29,30
 954 158 954 158 822 82 c 0,31,32
 680 0 680 0 541 0 c 0,33,34
 404 0 404 0 278 74 c 0,35,36
 132 160 132 160 132 237 c 2,37,-1
 132 240 l 1,38,-1
 130 880 l 2,39,40
 130 957 130 957 280 1044 c 0,41,42
 411 1120 411 1120 541 1120 c 2,43,-1
 554 1120 l 2,44,45
 680 1120 680 1120 820 1038 c 0,46,47
 952 960 952 960 952 888 c 2,48,-1
 952 694 l 1,49,-1
 326 410 l 1,16,-1
325 600 m 1,50,-1
 758 799 l 1,51,-1
 758 826 l 2,52,53
 758 850 758 850 695 892 c 0,54,55
 626 938 626 938 544 938 c 0,56,57
 454 938 454 938 390 897 c 0,58,59
 324 855 324 855 324 828 c 2,60,-1
 325 600 l 1,50,-1
EndSplineSet
Validated: 16385
EndChar

StartChar: igrave
Encoding: 236 236 174
Width: 496
GlyphClass: 2
Flags: W
HStem: 0 21G<150 194.545> 1100 20G<299.333 346>
VStem: 150 196<88 1036>
DStem2: 136 1578 6 1452 0.770645 -0.637264<0 384.967>
LayerCount: 2
Fore
SplineSet
136 1578 m 1,0,-1
 448 1320 l 1,1,-1
 318 1194 l 1,2,-1
 6 1452 l 1,3,-1
 136 1578 l 1,0,-1
346 88 m 1,4,-1
 150 0 l 1,5,-1
 150 1036 l 1,6,-1
 346 1120 l 1,7,-1
 346 88 l 1,4,-1
EndSplineSet
Validated: 19457
EndChar

StartChar: iacute
Encoding: 237 237 175
Width: 496
GlyphClass: 2
Flags: W
HStem: 0 21G<150 194.545> 1100 20G<299.333 346>
VStem: 150 196<88 1036>
DStem2: 49 1320 179 1194 0.770645 0.637264<19.8886 404.856>
LayerCount: 2
Fore
SplineSet
361 1578 m 1,0,-1
 491 1452 l 1,1,-1
 179 1194 l 1,2,-1
 49 1320 l 1,3,-1
 361 1578 l 1,0,-1
346 88 m 1,4,-1
 150 0 l 1,5,-1
 150 1036 l 1,6,-1
 346 1120 l 1,7,-1
 346 88 l 1,4,-1
EndSplineSet
Validated: 19457
EndChar

StartChar: icircumflex
Encoding: 238 238 176
Width: 634
GlyphClass: 2
Flags: W
HStem: 0 21G<220 264.545> 1100 20G<369.333 416> 1348 233<200.5 433.5>
VStem: 220 196<88 1036>
LayerCount: 2
Fore
SplineSet
499 1197 m 1,0,-1
 317 1348 l 1,1,-1
 135 1197 l 1,2,-1
 5 1323 l 1,3,-1
 317 1581 l 1,4,-1
 629 1323 l 1,5,-1
 499 1197 l 1,0,-1
416 88 m 1,6,-1
 220 0 l 1,7,-1
 220 1036 l 1,8,-1
 416 1120 l 1,9,-1
 416 88 l 1,6,-1
EndSplineSet
Validated: 19457
EndChar

StartChar: idieresis
Encoding: 239 239 177
Width: 720
GlyphClass: 2
Flags: W
HStem: 0 21G<262 306.545> 1100 20G<411.333 458> 1248 264<44.1914 225.809 494.191 675.809>
VStem: 5 260<1287.71 1472.29> 262 196<88 1036> 455 260<1290.71 1475.29>
LayerCount: 2
Fore
SplineSet
455 1383 m 128,-1,1
 455 1438 455 1438 493 1476.5 c 128,-1,2
 531 1515 531 1515 585 1515 c 128,-1,3
 639 1515 639 1515 677 1476.5 c 128,-1,4
 715 1438 715 1438 715 1383 c 128,-1,5
 715 1328 715 1328 677 1289.5 c 128,-1,6
 639 1251 639 1251 585 1251 c 128,-1,7
 531 1251 531 1251 493 1289.5 c 128,-1,0
 455 1328 455 1328 455 1383 c 128,-1,1
5 1380 m 128,-1,9
 5 1435 5 1435 43 1473.5 c 128,-1,10
 81 1512 81 1512 135 1512 c 128,-1,11
 189 1512 189 1512 227 1473.5 c 128,-1,12
 265 1435 265 1435 265 1380 c 128,-1,13
 265 1325 265 1325 227 1286.5 c 128,-1,14
 189 1248 189 1248 135 1248 c 128,-1,15
 81 1248 81 1248 43 1286.5 c 128,-1,8
 5 1325 5 1325 5 1380 c 128,-1,9
458 88 m 1,16,-1
 262 0 l 1,17,-1
 262 1036 l 1,18,-1
 458 1120 l 1,19,-1
 458 88 l 1,16,-1
EndSplineSet
Validated: 19457
EndChar

StartChar: eth
Encoding: 240 240 178
Width: 1105
GlyphClass: 2
Flags: W
HStem: 0 182<386.27 694.424> 938 182<386.272 690.643> 1310 185<538 645.716> 1494 20G<885.824 930.635>
VStem: 132 194<237.918 882.409> 760 194<240.686 876.883 1070 1156>
LayerCount: 2
Fore
SplineSet
544 938 m 0,0,1
 454 938 454 938 390 897 c 0,2,3
 324 855 324 855 324 828 c 2,4,-1
 326 292 l 2,5,6
 326 264 326 264 392 223 c 128,-1,7
 458 182 458 182 542 182 c 2,8,-1
 546 182 l 2,9,10
 628 182 628 182 697 228 c 0,11,12
 760 270 760 270 760 294 c 2,13,-1
 758 826 l 2,14,15
 758 850 758 850 695 892 c 0,16,17
 626 938 626 938 544 938 c 0,0,1
541 0 m 0,18,19
 404 0 404 0 278 74 c 0,20,21
 132 160 132 160 132 237 c 2,22,-1
 132 240 l 1,23,-1
 130 880 l 2,24,25
 130 957 130 957 280 1044 c 0,26,27
 411 1120 411 1120 541 1120 c 2,28,-1
 554 1120 l 2,29,30
 653 1120 653 1120 760 1070 c 1,31,-1
 760 1156 l 1,32,-1
 728 1130 l 1,33,-1
 598 1256 l 1,34,-1
 647 1296 l 1,35,36
 606 1310 606 1310 554 1310 c 2,37,-1
 538 1310 l 1,38,-1
 449 1495 l 1,39,-1
 539 1495 l 1,40,-1
 552 1495 l 2,41,42
 678 1495 678 1495 800 1423 c 1,43,-1
 910 1514 l 1,44,-1
 1040 1388 l 1,45,-1
 939 1305 l 1,46,47
 954 1280 954 1280 954 1257 c 2,48,-1
 954 232 l 1,49,-1
 954 224 l 1,50,51
 947 155 947 155 822 82 c 0,52,53
 681 0 681 0 541 0 c 0,18,19
EndSplineSet
Validated: 16385
EndChar

StartChar: ntilde
Encoding: 241 241 179
Width: 1082
GlyphClass: 2
Flags: W
HStem: 0 21G<130 171.72 756.048 797.702> 938 182<387.237 691.826>
VStem: 130 194<93 881.777> 756 196<94 880.543>
LayerCount: 2
Fore
SplineSet
842 1575 m 1,0,-1
 972 1449 l 1,1,-1
 660 1191 l 1,2,-1
 478 1342 l 1,3,-1
 296 1191 l 1,4,-1
 166 1317 l 1,5,-1
 478 1575 l 1,6,-1
 660 1424 l 1,7,-1
 842 1575 l 1,0,-1
130 880 m 2,8,9
 130 958 130 958 280 1044 c 0,10,11
 413 1120 413 1120 541 1120 c 0,12,13
 548 1120 548 1120 554 1120 c 0,14,15
 680 1120 680 1120 820 1038 c 0,16,17
 952 960 952 960 952 888 c 2,18,-1
 952 94 l 1,19,-1
 756 0 l 1,20,-1
 758 826 l 2,21,22
 758 850 758 850 695 892 c 0,23,24
 626 938 626 938 544 938 c 0,25,26
 454 938 454 938 390 897 c 0,27,28
 324 855 324 855 324 828 c 2,29,-1
 324 93 l 1,30,-1
 130 0 l 1,31,-1
 130 880 l 2,8,9
EndSplineSet
Validated: 16385
EndChar

StartChar: ograve
Encoding: 242 242 180
Width: 1084
GlyphClass: 2
Flags: W
HStem: 0 182<386.27 694.424> 938 182<386.272 691.826>
VStem: 132 194<237.918 882.409> 760 194<240.686 876.883>
DStem2: 367 1577 237 1451 0.770645 -0.637264<0 384.967>
LayerCount: 2
Fore
SplineSet
367 1577 m 1,0,-1
 679 1319 l 1,1,-1
 549 1193 l 1,2,-1
 237 1451 l 1,3,-1
 367 1577 l 1,0,-1
544 938 m 0,4,5
 454 938 454 938 390 897 c 0,6,7
 324 855 324 855 324 828 c 2,8,-1
 326 292 l 2,9,10
 326 264 326 264 392 223 c 128,-1,11
 458 182 458 182 542 182 c 0,12,13
 544 182 544 182 546 182 c 0,14,15
 628 182 628 182 697 228 c 0,16,17
 760 270 760 270 760 294 c 2,18,-1
 758 826 l 2,19,20
 758 850 758 850 695 892 c 0,21,22
 626 938 626 938 544 938 c 0,4,5
541 0 m 0,23,24
 404 0 404 0 278 74 c 0,25,26
 132 160 132 160 132 237 c 0,27,28
 132 238 132 238 132 240 c 2,29,-1
 130 880 l 2,30,31
 130 957 130 957 280 1044 c 0,32,33
 411 1120 411 1120 541 1120 c 0,34,35
 548 1120 548 1120 554 1120 c 0,36,37
 680 1120 680 1120 820 1038 c 0,38,39
 952 960 952 960 952 888 c 2,40,-1
 954 232 l 2,41,42
 954 159 954 159 822 82 c 0,43,44
 681 0 681 0 541 0 c 0,23,24
EndSplineSet
Validated: 16385
EndChar

StartChar: oacute
Encoding: 243 243 181
Width: 1084
GlyphClass: 2
Flags: W
HStem: 0 182<386.27 694.424> 938 182<386.272 691.826>
VStem: 132 194<237.918 882.409> 760 194<240.686 876.883>
DStem2: 419 1319 549 1193 0.770645 0.637264<19.8886 404.856>
LayerCount: 2
Fore
SplineSet
544 938 m 0,0,1
 454 938 454 938 390 897 c 0,2,3
 324 855 324 855 324 828 c 2,4,-1
 326 292 l 2,5,6
 326 264 326 264 392 223 c 128,-1,7
 458 182 458 182 542 182 c 0,8,9
 544 182 544 182 546 182 c 0,10,11
 628 182 628 182 697 228 c 0,12,13
 760 270 760 270 760 294 c 2,14,-1
 758 826 l 2,15,16
 758 850 758 850 695 892 c 0,17,18
 626 938 626 938 544 938 c 0,0,1
541 0 m 0,19,20
 404 0 404 0 278 74 c 0,21,22
 132 160 132 160 132 237 c 0,23,24
 132 238 132 238 132 240 c 2,25,-1
 130 880 l 2,26,27
 130 957 130 957 280 1044 c 0,28,29
 411 1120 411 1120 541 1120 c 0,30,31
 548 1120 548 1120 554 1120 c 0,32,33
 680 1120 680 1120 820 1038 c 0,34,35
 952 960 952 960 952 888 c 2,36,-1
 954 232 l 2,37,38
 954 159 954 159 822 82 c 0,39,40
 681 0 681 0 541 0 c 0,19,20
731 1577 m 1,41,-1
 861 1451 l 1,42,-1
 549 1193 l 1,43,-1
 419 1319 l 1,44,-1
 731 1577 l 1,41,-1
EndSplineSet
Validated: 16385
EndChar

StartChar: ocircumflex
Encoding: 244 244 182
Width: 1084
GlyphClass: 2
Flags: W
HStem: 0 182<386.27 694.424> 938 182<386.272 691.826> 1344 233<432.5 665.5>
VStem: 132 194<237.918 882.409> 760 194<240.686 876.883>
LayerCount: 2
Fore
SplineSet
731 1193 m 1,0,-1
 549 1344 l 1,1,-1
 367 1193 l 1,2,-1
 237 1319 l 1,3,-1
 549 1577 l 1,4,-1
 861 1319 l 1,5,-1
 731 1193 l 1,0,-1
544 938 m 0,6,7
 454 938 454 938 390 897 c 0,8,9
 324 855 324 855 324 828 c 2,10,-1
 326 292 l 2,11,12
 326 264 326 264 392 223 c 128,-1,13
 458 182 458 182 542 182 c 0,14,15
 544 182 544 182 546 182 c 0,16,17
 628 182 628 182 697 228 c 0,18,19
 760 270 760 270 760 294 c 2,20,-1
 758 826 l 2,21,22
 758 850 758 850 695 892 c 0,23,24
 626 938 626 938 544 938 c 0,6,7
541 0 m 0,25,26
 404 0 404 0 278 74 c 0,27,28
 132 160 132 160 132 237 c 0,29,30
 132 238 132 238 132 240 c 2,31,-1
 130 880 l 2,32,33
 130 957 130 957 280 1044 c 0,34,35
 411 1120 411 1120 541 1120 c 0,36,37
 548 1120 548 1120 554 1120 c 0,38,39
 680 1120 680 1120 820 1038 c 0,40,41
 952 960 952 960 952 888 c 2,42,-1
 954 232 l 2,43,44
 954 159 954 159 822 82 c 0,45,46
 681 0 681 0 541 0 c 0,25,26
EndSplineSet
Validated: 16385
EndChar

StartChar: otilde
Encoding: 245 245 183
Width: 1084
GlyphClass: 2
Flags: W
HStem: 0 182<386.27 694.424> 938 182<386.272 691.826>
VStem: 132 194<237.918 882.409> 760 194<240.686 876.883>
LayerCount: 2
Fore
SplineSet
842 1575 m 1,0,-1
 972 1449 l 1,1,-1
 660 1191 l 1,2,-1
 478 1342 l 1,3,-1
 296 1191 l 1,4,-1
 166 1317 l 1,5,-1
 478 1575 l 1,6,-1
 660 1424 l 1,7,-1
 842 1575 l 1,0,-1
544 938 m 0,8,9
 454 938 454 938 390 897 c 0,10,11
 324 855 324 855 324 828 c 2,12,-1
 326 292 l 2,13,14
 326 264 326 264 392 223 c 128,-1,15
 458 182 458 182 542 182 c 0,16,17
 544 182 544 182 546 182 c 0,18,19
 628 182 628 182 697 228 c 0,20,21
 760 270 760 270 760 294 c 2,22,-1
 758 826 l 2,23,24
 758 850 758 850 695 892 c 0,25,26
 626 938 626 938 544 938 c 0,8,9
541 0 m 0,27,28
 404 0 404 0 278 74 c 0,29,30
 132 160 132 160 132 237 c 0,31,32
 132 238 132 238 132 240 c 2,33,-1
 130 880 l 2,34,35
 130 957 130 957 280 1044 c 0,36,37
 411 1120 411 1120 541 1120 c 0,38,39
 548 1120 548 1120 554 1120 c 0,40,41
 680 1120 680 1120 820 1038 c 0,42,43
 952 960 952 960 952 888 c 2,44,-1
 954 232 l 2,45,46
 954 159 954 159 822 82 c 0,47,48
 681 0 681 0 541 0 c 0,27,28
EndSplineSet
Validated: 16385
EndChar

StartChar: odieresis
Encoding: 246 246 184
Width: 1084
GlyphClass: 2
Flags: W
HStem: 0 182<386.27 694.424> 938 182<386.272 691.826> 1248 264<235.191 416.809 685.191 866.809>
VStem: 132 194<237.918 882.409> 196 260<1287.71 1472.29> 646 260<1290.71 1475.29> 760 194<240.686 876.883>
LayerCount: 2
Fore
SplineSet
646 1383 m 128,-1,1
 646 1438 646 1438 684 1476.5 c 128,-1,2
 722 1515 722 1515 776 1515 c 128,-1,3
 830 1515 830 1515 868 1476.5 c 128,-1,4
 906 1438 906 1438 906 1383 c 128,-1,5
 906 1328 906 1328 868 1289.5 c 128,-1,6
 830 1251 830 1251 776 1251 c 128,-1,7
 722 1251 722 1251 684 1289.5 c 128,-1,0
 646 1328 646 1328 646 1383 c 128,-1,1
196 1380 m 128,-1,9
 196 1435 196 1435 234 1473.5 c 128,-1,10
 272 1512 272 1512 326 1512 c 128,-1,11
 380 1512 380 1512 418 1473.5 c 128,-1,12
 456 1435 456 1435 456 1380 c 128,-1,13
 456 1325 456 1325 418 1286.5 c 128,-1,14
 380 1248 380 1248 326 1248 c 128,-1,15
 272 1248 272 1248 234 1286.5 c 128,-1,8
 196 1325 196 1325 196 1380 c 128,-1,9
544 938 m 0,16,17
 454 938 454 938 390 897 c 0,18,19
 324 855 324 855 324 828 c 2,20,-1
 326 292 l 2,21,22
 326 264 326 264 392 223 c 128,-1,23
 458 182 458 182 542 182 c 0,24,25
 544 182 544 182 546 182 c 0,26,27
 628 182 628 182 697 228 c 0,28,29
 760 270 760 270 760 294 c 2,30,-1
 758 826 l 2,31,32
 758 850 758 850 695 892 c 0,33,34
 626 938 626 938 544 938 c 0,16,17
541 0 m 0,35,36
 404 0 404 0 278 74 c 0,37,38
 132 160 132 160 132 237 c 0,39,40
 132 238 132 238 132 240 c 2,41,-1
 130 880 l 2,42,43
 130 957 130 957 280 1044 c 0,44,45
 411 1120 411 1120 541 1120 c 0,46,47
 548 1120 548 1120 554 1120 c 0,48,49
 680 1120 680 1120 820 1038 c 0,50,51
 952 960 952 960 952 888 c 2,52,-1
 954 232 l 2,53,54
 954 159 954 159 822 82 c 0,55,56
 681 0 681 0 541 0 c 0,35,36
EndSplineSet
Validated: 16385
EndChar

StartChar: divide
Encoding: 247 247 185
Width: 1083
GlyphClass: 2
Flags: W
HStem: 153 264<437.191 618.809> 600 198<170 911> 996 264<452.191 633.809>
VStem: 398 260<192.707 377.293> 413 260<1035.71 1220.29>
LayerCount: 2
Fore
SplineSet
170 798 m 1,0,-1
 1003 798 l 1,1,-1
 911 600 l 1,2,-1
 80 600 l 1,3,-1
 170 798 l 1,0,-1
398 285 m 128,-1,5
 398 340 398 340 436 378.5 c 128,-1,6
 474 417 474 417 528 417 c 128,-1,7
 582 417 582 417 620 378.5 c 128,-1,8
 658 340 658 340 658 285 c 128,-1,9
 658 230 658 230 620 191.5 c 128,-1,10
 582 153 582 153 528 153 c 128,-1,11
 474 153 474 153 436 191.5 c 128,-1,4
 398 230 398 230 398 285 c 128,-1,5
413 1128 m 128,-1,13
 413 1183 413 1183 451 1221.5 c 128,-1,14
 489 1260 489 1260 543 1260 c 128,-1,15
 597 1260 597 1260 635 1221.5 c 128,-1,16
 673 1183 673 1183 673 1128 c 128,-1,17
 673 1073 673 1073 635 1034.5 c 128,-1,18
 597 996 597 996 543 996 c 128,-1,19
 489 996 489 996 451 1034.5 c 128,-1,12
 413 1073 413 1073 413 1128 c 128,-1,13
EndSplineSet
Validated: 16385
EndChar

StartChar: oslash
Encoding: 248 248 186
Width: 1084
GlyphClass: 2
Flags: W
HStem: 0 182<481.45 694.424> 930 168<545.062 610> 938 182<386.272 608.12>
VStem: 132 194<324 882.409> 760 194<240.686 780>
DStem2: 225 109 401 20 0.425049 0.90517<-173.516 2.77281 237.542 833.92 1084.95 1240.51>
LayerCount: 2
Fore
SplineSet
544 938 m 0,0,1
 454 938 454 938 390 897 c 0,2,3
 324 855 324 855 324 828 c 2,4,-1
 326 324 l 1,5,-1
 610 930 l 1,6,7
 578 938 578 938 544 938 c 0,0,1
401 20 m 1,8,-1
 330 -132 l 1,9,-1
 151 -48 l 1,10,-1
 225 109 l 1,11,12
 132 176 132 176 132 237 c 2,13,-1
 132 240 l 1,14,-1
 130 880 l 2,15,16
 130 957 130 957 280 1044 c 0,17,18
 411 1120 411 1120 541 1120 c 2,19,-1
 554 1120 l 2,20,21
 620 1120 620 1120 689 1098 c 1,22,-1
 752 1232 l 1,23,-1
 932 1150 l 1,24,-1
 866 1008 l 1,25,26
 952 946 952 946 952 888 c 2,27,-1
 954 232 l 2,28,29
 954 159 954 159 822 82 c 0,30,31
 681 0 681 0 541 0 c 0,32,33
 470 0 470 0 401 20 c 1,8,-1
758 780 m 1,34,-1
 480 188 l 1,35,36
 510 182 510 182 542 182 c 2,37,-1
 546 182 l 2,38,39
 628 182 628 182 697 228 c 0,40,41
 760 270 760 270 760 294 c 2,42,-1
 758 780 l 1,34,-1
EndSplineSet
Validated: 16385
EndChar

StartChar: ugrave
Encoding: 249 249 187
Width: 1082
GlyphClass: 2
Flags: W
HStem: 0 182<390.174 694.763> 1100 20G<284.298 325.952 910.28 952>
VStem: 130 194<240.686 1026> 758 194<238.223 1027>
DStem2: 367 1577 237 1451 0.770645 -0.637264<0 384.967>
LayerCount: 2
Fore
SplineSet
367 1577 m 1,0,-1
 679 1319 l 1,1,-1
 549 1193 l 1,2,-1
 237 1451 l 1,3,-1
 367 1577 l 1,0,-1
952 240 m 2,4,5
 952 162 952 162 802 76 c 0,6,7
 669 0 669 0 541 0 c 0,8,9
 534 0 534 0 528 0 c 0,10,11
 402 0 402 0 262 82 c 0,12,13
 130 160 130 160 130 232 c 2,14,-1
 130 1026 l 1,15,-1
 326 1120 l 1,16,-1
 324 294 l 2,17,18
 324 270 324 270 387 228 c 0,19,20
 456 182 456 182 538 182 c 0,21,22
 628 182 628 182 692 223 c 0,23,24
 758 265 758 265 758 292 c 2,25,-1
 758 1027 l 1,26,-1
 952 1120 l 1,27,-1
 952 240 l 2,4,5
EndSplineSet
Validated: 16385
EndChar

StartChar: uacute
Encoding: 250 250 188
Width: 1082
GlyphClass: 2
Flags: W
HStem: 0 182<390.174 694.763> 1100 20G<284.298 325.952 910.28 952>
VStem: 130 194<240.686 1026> 758 194<238.223 1027>
DStem2: 419 1319 549 1193 0.770645 0.637264<19.8886 404.856>
LayerCount: 2
Fore
SplineSet
731 1577 m 1,0,-1
 861 1451 l 1,1,-1
 549 1193 l 1,2,-1
 419 1319 l 1,3,-1
 731 1577 l 1,0,-1
952 240 m 2,4,5
 952 162 952 162 802 76 c 0,6,7
 669 0 669 0 541 0 c 0,8,9
 534 0 534 0 528 0 c 0,10,11
 402 0 402 0 262 82 c 0,12,13
 130 160 130 160 130 232 c 2,14,-1
 130 1026 l 1,15,-1
 326 1120 l 1,16,-1
 324 294 l 2,17,18
 324 270 324 270 387 228 c 0,19,20
 456 182 456 182 538 182 c 0,21,22
 628 182 628 182 692 223 c 0,23,24
 758 265 758 265 758 292 c 2,25,-1
 758 1027 l 1,26,-1
 952 1120 l 1,27,-1
 952 240 l 2,4,5
EndSplineSet
Validated: 16385
EndChar

StartChar: ucircumflex
Encoding: 251 251 189
Width: 1082
GlyphClass: 2
Flags: W
HStem: 0 182<390.174 694.763> 1100 20G<284.298 325.952 910.28 952> 1344 233<432.5 665.5>
VStem: 130 194<240.686 1026> 758 194<238.223 1027>
LayerCount: 2
Fore
SplineSet
731 1193 m 1,0,-1
 549 1344 l 1,1,-1
 367 1193 l 1,2,-1
 237 1319 l 1,3,-1
 549 1577 l 1,4,-1
 861 1319 l 1,5,-1
 731 1193 l 1,0,-1
952 240 m 2,6,7
 952 162 952 162 802 76 c 0,8,9
 669 0 669 0 541 0 c 0,10,11
 534 0 534 0 528 0 c 0,12,13
 402 0 402 0 262 82 c 0,14,15
 130 160 130 160 130 232 c 2,16,-1
 130 1026 l 1,17,-1
 326 1120 l 1,18,-1
 324 294 l 2,19,20
 324 270 324 270 387 228 c 0,21,22
 456 182 456 182 538 182 c 0,23,24
 628 182 628 182 692 223 c 0,25,26
 758 265 758 265 758 292 c 2,27,-1
 758 1027 l 1,28,-1
 952 1120 l 1,29,-1
 952 240 l 2,6,7
EndSplineSet
Validated: 16385
EndChar

StartChar: udieresis
Encoding: 252 252 190
Width: 1082
GlyphClass: 2
Flags: W
HStem: 0 182<390.174 694.763> 1100 20G<284.298 325.952 910.28 952> 1248 264<235.191 416.809 685.191 866.809>
VStem: 130 194<240.686 1026> 196 260<1287.71 1472.29> 646 260<1290.71 1475.29> 758 194<238.223 1027>
LayerCount: 2
Fore
SplineSet
646 1383 m 128,-1,1
 646 1438 646 1438 684 1476.5 c 128,-1,2
 722 1515 722 1515 776 1515 c 128,-1,3
 830 1515 830 1515 868 1476.5 c 128,-1,4
 906 1438 906 1438 906 1383 c 128,-1,5
 906 1328 906 1328 868 1289.5 c 128,-1,6
 830 1251 830 1251 776 1251 c 128,-1,7
 722 1251 722 1251 684 1289.5 c 128,-1,0
 646 1328 646 1328 646 1383 c 128,-1,1
196 1380 m 128,-1,9
 196 1435 196 1435 234 1473.5 c 128,-1,10
 272 1512 272 1512 326 1512 c 128,-1,11
 380 1512 380 1512 418 1473.5 c 128,-1,12
 456 1435 456 1435 456 1380 c 128,-1,13
 456 1325 456 1325 418 1286.5 c 128,-1,14
 380 1248 380 1248 326 1248 c 128,-1,15
 272 1248 272 1248 234 1286.5 c 128,-1,8
 196 1325 196 1325 196 1380 c 128,-1,9
952 240 m 2,16,17
 952 162 952 162 802 76 c 0,18,19
 669 0 669 0 541 0 c 0,20,21
 534 0 534 0 528 0 c 0,22,23
 402 0 402 0 262 82 c 0,24,25
 130 160 130 160 130 232 c 2,26,-1
 130 1026 l 1,27,-1
 326 1120 l 1,28,-1
 324 294 l 2,29,30
 324 270 324 270 387 228 c 0,31,32
 456 182 456 182 538 182 c 0,33,34
 628 182 628 182 692 223 c 0,35,36
 758 265 758 265 758 292 c 2,37,-1
 758 1027 l 1,38,-1
 952 1120 l 1,39,-1
 952 240 l 2,16,17
EndSplineSet
Validated: 16385
EndChar

StartChar: yacute
Encoding: 253 253 191
Width: 1102
GlyphClass: 2
Flags: W
HStem: -404 185<301 698.042> 0 182<391.174 697.25> 1100 20G<273.659 320.121 901.659 948.062>
VStem: 131 194<240.686 1038> 758 194<-163.777 52 236.994 1038>
DStem2: 419 1319 549 1193 0.770645 0.637264<19.8886 404.856>
LayerCount: 2
Fore
SplineSet
948 1120 m 1,0,-1
 952 -162 l 2,1,2
 952 -239 952 -239 802 -326 c 0,3,4
 668 -404 668 -404 519 -404 c 2,5,-1
 506 -404 l 1,6,-1
 212 -404 l 1,7,-1
 301 -219 l 1,8,-1
 521 -219 l 2,9,10
 629 -219 629 -219 692 -179 c 0,11,12
 758 -137 758 -137 758 -110 c 2,13,-1
 758 52 l 1,14,15
 650 0 650 0 542 0 c 2,16,-1
 529 0 l 2,17,18
 403 0 403 0 263 82 c 0,19,20
 131 160 131 160 131 232 c 2,21,-1
 130 1038 l 1,22,-1
 320 1120 l 1,23,-1
 325 294 l 2,24,25
 325 270 325 270 388 228 c 0,26,27
 457 182 457 182 539 182 c 0,28,29
 629 182 629 182 693 223 c 0,30,31
 759 265 759 265 759 292 c 2,32,-1
 758 1038 l 1,33,-1
 948 1120 l 1,0,-1
731 1577 m 1,34,-1
 861 1451 l 1,35,-1
 549 1193 l 1,36,-1
 419 1319 l 1,37,-1
 731 1577 l 1,34,-1
EndSplineSet
Validated: 16385
EndChar

StartChar: thorn
Encoding: 254 254 192
Width: 1104
GlyphClass: 2
Flags: W
HStem: -398 21G<150.011 195> 0 182<404.773 712.324> 938 182<407.126 714.424> 1491 20G<305 349>
VStem: 151 198<-310 51 233.734 884.906 1073 1421> 778 194<240.686 880.543>
LayerCount: 2
Fore
SplineSet
564 182 m 0,0,1
 646 182 646 182 715 228 c 0,2,3
 778 270 778 270 778 294 c 2,4,-1
 780 826 l 2,5,6
 780 850 780 850 717 892 c 0,7,8
 648 938 648 938 566 938 c 2,9,-1
 562 938 l 2,10,11
 478 938 478 938 412 897 c 0,12,13
 359 864 359 864 349 839 c 1,14,-1
 348 278 l 1,15,16
 360 255 360 255 410 223 c 0,17,18
 474 182 474 182 564 182 c 0,0,1
150 -398 m 1,19,-1
 151 1421 l 1,20,-1
 349 1511 l 1,21,-1
 349 1073 l 1,22,23
 451 1120 451 1120 561 1120 c 0,24,25
 701 1120 701 1120 842 1038 c 0,26,27
 974 961 974 961 974 888 c 1,28,29
 972 888 972 888 972 232 c 0,30,31
 972 160 972 160 840 82 c 0,32,33
 701 0 701 0 574 0 c 2,34,-1
 561 0 l 2,35,36
 455 0 455 0 348 51 c 1,37,-1
 348 -310 l 1,38,-1
 150 -398 l 1,19,-1
EndSplineSet
Validated: 16385
EndChar

StartChar: ydieresis
Encoding: 255 255 193
Width: 1102
GlyphClass: 2
Flags: W
HStem: -404 185<301 698.042> 0 182<391.174 697.25> 1100 20G<273.659 320.121 901.659 948.062> 1248 264<235.191 416.809 685.191 866.809>
VStem: 131 194<240.686 1038> 196 260<1287.71 1472.29> 646 260<1290.71 1475.29> 758 194<-163.777 52 236.994 1038>
LayerCount: 2
Fore
SplineSet
646 1383 m 128,-1,1
 646 1438 646 1438 684 1476.5 c 128,-1,2
 722 1515 722 1515 776 1515 c 128,-1,3
 830 1515 830 1515 868 1476.5 c 128,-1,4
 906 1438 906 1438 906 1383 c 128,-1,5
 906 1328 906 1328 868 1289.5 c 128,-1,6
 830 1251 830 1251 776 1251 c 128,-1,7
 722 1251 722 1251 684 1289.5 c 128,-1,0
 646 1328 646 1328 646 1383 c 128,-1,1
196 1380 m 128,-1,9
 196 1435 196 1435 234 1473.5 c 128,-1,10
 272 1512 272 1512 326 1512 c 128,-1,11
 380 1512 380 1512 418 1473.5 c 128,-1,12
 456 1435 456 1435 456 1380 c 128,-1,13
 456 1325 456 1325 418 1286.5 c 128,-1,14
 380 1248 380 1248 326 1248 c 128,-1,15
 272 1248 272 1248 234 1286.5 c 128,-1,8
 196 1325 196 1325 196 1380 c 128,-1,9
948 1120 m 1,16,-1
 952 -162 l 2,17,18
 952 -239 952 -239 802 -326 c 0,19,20
 668 -404 668 -404 519 -404 c 2,21,-1
 506 -404 l 1,22,-1
 212 -404 l 1,23,-1
 301 -219 l 1,24,-1
 521 -219 l 2,25,26
 629 -219 629 -219 692 -179 c 0,27,28
 758 -137 758 -137 758 -110 c 2,29,-1
 758 52 l 1,30,31
 650 0 650 0 542 0 c 2,32,-1
 529 0 l 2,33,34
 403 0 403 0 263 82 c 0,35,36
 131 160 131 160 131 232 c 2,37,-1
 130 1038 l 1,38,-1
 320 1120 l 1,39,-1
 325 294 l 2,40,41
 325 270 325 270 388 228 c 0,42,43
 457 182 457 182 539 182 c 0,44,45
 629 182 629 182 693 223 c 0,46,47
 759 265 759 265 759 292 c 2,48,-1
 758 1038 l 1,49,-1
 948 1120 l 1,16,-1
EndSplineSet
Validated: 16385
EndChar

StartChar: Amacron
Encoding: 256 256 194
Width: 1390
GlyphClass: 2
Flags: W
HStem: 0 21G<200.016 243.043 992.09 1036.49> 443 190<400 994> 1320 192<519.964 878.531> 1704 187<459 930>
VStem: 200 198<92 436 626 1230.93> 994 196<89 443 633 1231.98>
LayerCount: 2
Fore
SplineSet
459 1891 m 1,0,-1
 1019 1891 l 1,1,-1
 930 1704 l 1,2,-1
 372 1704 l 1,3,-1
 459 1891 l 1,0,-1
200 0 m 1,4,-1
 201 1250 l 2,5,6
 201 1314 201 1314 344 1400 c 0,7,8
 530 1512 530 1512 698 1512 c 0,9,10
 701 1512 701 1512 704 1512 c 0,11,12
 871 1512 871 1512 1050 1397 c 0,13,14
 1188 1308 1188 1308 1188 1250 c 2,15,-1
 1190 89 l 1,16,-1
 992 0 l 1,17,-1
 994 443 l 1,18,-1
 400 436 l 1,19,-1
 398 92 l 1,20,-1
 200 0 l 1,4,-1
399 626 m 1,21,-1
 994 633 l 1,22,-1
 994 1163 l 2,23,24
 994 1211 994 1211 904 1262 c 0,25,26
 802 1320 802 1320 702 1320 c 0,27,28
 697 1320 697 1320 697 1320 c 1,29,30
 588 1316 588 1316 482 1258 c 0,31,32
 398 1211 398 1211 398 1156 c 2,33,-1
 399 626 l 1,21,-1
EndSplineSet
Validated: 1
EndChar

StartChar: amacron
Encoding: 257 257 195
Width: 1084
GlyphClass: 2
Flags: W
HStem: 0 176<385.324 648> 938 182<386.272 691.826> 1326 187<333 804>
VStem: 130 199<229.391 884.822> 760 194<92 876.883>
LayerCount: 2
Fore
SplineSet
333 1513 m 1,0,-1
 893 1513 l 1,1,-1
 804 1326 l 1,2,-1
 246 1326 l 1,3,-1
 333 1513 l 1,0,-1
951 893 m 1,4,5
 952 892 952 892 954 92 c 1,6,-1
 756 0 l 1,7,8
 760 207 760 207 760 345 c 0,9,10
 760 368 760 368 760 397 c 2,11,-1
 758 826 l 2,12,13
 758 850 758 850 695 892 c 0,14,15
 626 938 626 938 544 938 c 0,16,17
 454 938 454 938 390 897 c 0,18,19
 324 855 324 855 324 828 c 2,20,-1
 329 284 l 2,21,22
 329 255 329 255 391 217 c 0,23,24
 458 176 458 176 541 176 c 0,25,26
 545 176 545 176 555 175 c 0,27,28
 576 173 576 173 590 174 c 0,29,30
 665 178 665 178 740 182 c 1,31,-1
 648 4 l 1,32,33
 604 0 604 0 548 0 c 0,34,35
 411 0 411 0 285 74 c 0,36,37
 149 155 149 155 134 240 c 0,38,39
 130 263 130 263 130 388 c 2,40,-1
 130 880 l 2,41,42
 130 957 130 957 280 1044 c 0,43,44
 411 1120 411 1120 541 1120 c 0,45,46
 548 1120 548 1120 554 1120 c 0,47,48
 680 1120 680 1120 820 1038 c 0,49,50
 951 961 951 961 951 893 c 1,4,5
EndSplineSet
Validated: 16385
EndChar

StartChar: Abreve
Encoding: 258 258 196
Width: 1390
GlyphClass: 2
Flags: W
HStem: 0 21G<200.016 243.043 992.09 1036.49> 443 190<400 994> 1320 192<519.964 878.531> 1650 194<560.029 835.45>
VStem: 200 198<92 436 626 1230.93> 994 196<89 443 633 1231.98>
LayerCount: 2
Fore
SplineSet
1033 1812 m 1,0,1
 974 1750 974 1750 906 1710 c 0,2,3
 804 1650 804 1650 692 1650 c 0,4,5
 577 1650 577 1650 478 1710 c 0,6,7
 415 1748 415 1748 362 1800 c 1,8,-1
 500 1938 l 1,9,10
 508 1930 508 1930 519 1920 c 0,11,12
 603 1844 603 1844 698 1844 c 0,13,14
 794 1844 794 1844 875 1919 c 2,15,-1
 887 1930 l 1,16,-1
 1033 1812 l 1,0,1
200 0 m 1,17,-1
 201 1250 l 2,18,19
 201 1314 201 1314 344 1400 c 0,20,21
 530 1512 530 1512 698 1512 c 0,22,23
 701 1512 701 1512 704 1512 c 0,24,25
 871 1512 871 1512 1050 1397 c 0,26,27
 1188 1308 1188 1308 1188 1250 c 2,28,-1
 1190 89 l 1,29,-1
 992 0 l 1,30,-1
 994 443 l 1,31,-1
 400 436 l 1,32,-1
 398 92 l 1,33,-1
 200 0 l 1,17,-1
399 626 m 1,34,-1
 994 633 l 1,35,-1
 994 1163 l 2,36,37
 994 1211 994 1211 904 1262 c 0,38,39
 802 1320 802 1320 702 1320 c 0,40,41
 697 1320 697 1320 697 1320 c 1,42,43
 588 1316 588 1316 482 1258 c 0,44,45
 398 1211 398 1211 398 1156 c 2,46,-1
 399 626 l 1,34,-1
EndSplineSet
Validated: 1
EndChar

StartChar: abreve
Encoding: 259 259 197
Width: 1084
GlyphClass: 2
Flags: W
HStem: 0 176<385.324 648> 938 182<386.272 691.826> 1281 194<429.029 704.45>
VStem: 130 199<229.391 884.822> 760 194<92 876.883>
LayerCount: 2
Fore
SplineSet
902 1443 m 1,0,1
 843 1381 843 1381 775 1341 c 0,2,3
 673 1281 673 1281 561 1281 c 0,4,5
 446 1281 446 1281 347 1341 c 0,6,7
 284 1379 284 1379 231 1431 c 1,8,-1
 369 1569 l 1,9,10
 377 1561 377 1561 388 1551 c 0,11,12
 472 1475 472 1475 567 1475 c 0,13,14
 663 1475 663 1475 744 1550 c 2,15,-1
 756 1561 l 1,16,-1
 902 1443 l 1,0,1
951 893 m 1,17,18
 952 892 952 892 954 92 c 1,19,-1
 756 0 l 1,20,21
 760 207 760 207 760 345 c 0,22,23
 760 368 760 368 760 397 c 2,24,-1
 758 826 l 2,25,26
 758 850 758 850 695 892 c 0,27,28
 626 938 626 938 544 938 c 0,29,30
 454 938 454 938 390 897 c 0,31,32
 324 855 324 855 324 828 c 2,33,-1
 329 284 l 2,34,35
 329 255 329 255 391 217 c 0,36,37
 458 176 458 176 541 176 c 0,38,39
 545 176 545 176 555 175 c 0,40,41
 576 173 576 173 590 174 c 0,42,43
 665 178 665 178 740 182 c 1,44,-1
 648 4 l 1,45,46
 604 0 604 0 548 0 c 0,47,48
 411 0 411 0 285 74 c 0,49,50
 149 155 149 155 134 240 c 0,51,52
 130 263 130 263 130 388 c 2,53,-1
 130 880 l 2,54,55
 130 957 130 957 280 1044 c 0,56,57
 411 1120 411 1120 541 1120 c 0,58,59
 548 1120 548 1120 554 1120 c 0,60,61
 680 1120 680 1120 820 1038 c 0,62,63
 951 961 951 961 951 893 c 1,17,18
EndSplineSet
Validated: 16385
EndChar

StartChar: Aogonek
Encoding: 260 260 198
Width: 1390
GlyphClass: 2
Flags: W
HStem: 0 21G<200.016 243.043 992.09 1036> 443 190<400 994> 1320 192<519.964 878.531>
VStem: 200 198<92 436 626 1230.93> 994 196<89 443 633 1231.98>
LayerCount: 2
Fore
SplineSet
399 626 m 1,0,-1
 994 633 l 1,1,-1
 994 1163 l 2,2,3
 994 1211 994 1211 904 1262 c 0,4,5
 802 1320 802 1320 702 1320 c 2,6,-1
 697 1320 l 1,7,8
 588 1316 588 1316 482 1258 c 0,9,10
 398 1211 398 1211 398 1156 c 2,11,-1
 399 626 l 1,0,-1
200 0 m 1,12,-1
 201 1250 l 2,13,14
 201 1314 201 1314 344 1400 c 0,15,16
 530 1512 530 1512 698 1512 c 2,17,-1
 704 1512 l 2,18,19
 871 1512 871 1512 1050 1397 c 0,20,21
 1188 1308 1188 1308 1188 1250 c 2,22,-1
 1190 89 l 1,23,-1
 1108 52 l 1,24,-1
 1211 -50 l 1,25,-1
 1121 -142 l 1,26,-1
 1237 -256 l 1,27,-1
 1111 -386 l 1,28,-1
 887 -142 l 1,29,-1
 1058 30 l 1,30,-1
 992 0 l 1,31,-1
 994 443 l 1,32,-1
 400 436 l 1,33,-1
 398 92 l 1,34,-1
 200 0 l 1,12,-1
EndSplineSet
Validated: 1
EndChar

StartChar: aogonek
Encoding: 261 261 199
Width: 1084
GlyphClass: 2
Flags: W
HStem: 0 176<385.324 648> 938 182<386.272 691.826>
VStem: 130 199<229.391 884.822> 760 194<92 876.883>
LayerCount: 2
Fore
SplineSet
951 893 m 1,0,1
 952 892 952 892 954 92 c 1,2,-1
 865 50 l 1,3,-1
 969 -53 l 1,4,-1
 879 -145 l 1,5,-1
 995 -259 l 1,6,-1
 869 -389 l 1,7,-1
 645 -145 l 1,8,-1
 818 29 l 1,9,-1
 756 0 l 1,10,11
 760 207 760 207 760 345 c 2,12,-1
 760 397 l 1,13,-1
 758 826 l 2,14,15
 758 850 758 850 695 892 c 0,16,17
 626 938 626 938 544 938 c 0,18,19
 454 938 454 938 390 897 c 0,20,21
 324 855 324 855 324 828 c 2,22,-1
 329 284 l 2,23,24
 329 255 329 255 391 217 c 0,25,26
 458 176 458 176 541 176 c 0,27,28
 544 176 544 176 555 175 c 0,29,30
 576 173 576 173 590 174 c 2,31,-1
 740 182 l 1,32,-1
 648 4 l 1,33,34
 604 0 604 0 548 0 c 0,35,36
 411 0 411 0 285 74 c 0,37,38
 149 155 149 155 134 240 c 0,39,40
 130 263 130 263 130 388 c 2,41,-1
 130 880 l 2,42,43
 130 957 130 957 280 1044 c 0,44,45
 411 1120 411 1120 541 1120 c 2,46,-1
 554 1120 l 2,47,48
 680 1120 680 1120 820 1038 c 0,49,50
 951 961 951 961 951 893 c 1,0,1
EndSplineSet
Validated: 16385
EndChar

StartChar: Cacute
Encoding: 262 262 200
Width: 1389
GlyphClass: 2
Flags: W
HStem: 0 192<516.044 873.5> 1320 192<519.464 876.147>
VStem: 200 197<281.07 1230.93> 987 200<277.434 468 1060 1234.57>
DStem2: 574 1719 704 1593 0.770645 0.637264<19.8886 404.856>
LayerCount: 2
Fore
SplineSet
886 1977 m 1,0,-1
 1016 1851 l 1,1,-1
 704 1593 l 1,2,-1
 574 1719 l 1,3,-1
 886 1977 l 1,0,-1
703 0 m 0,4,5
 530 0 530 0 343 112 c 0,6,7
 200 198 200 198 200 262 c 2,8,-1
 200 1250 l 2,9,10
 200 1314 200 1314 343 1400 c 0,11,12
 530 1512 530 1512 697 1512 c 0,13,14
 700 1512 700 1512 703 1512 c 0,15,16
 870 1512 870 1512 1049 1397 c 0,17,18
 1187 1308 1187 1308 1187 1250 c 2,19,-1
 1187 1060 l 1,20,-1
 987 966 l 1,21,-1
 987 1166 l 2,22,23
 987 1213 987 1213 897 1265 c 0,24,25
 802 1320 802 1320 701 1320 c 0,26,27
 698 1320 698 1320 696 1320 c 0,28,29
 594 1320 594 1320 481 1258 c 0,30,31
 397 1211 397 1211 397 1156 c 2,32,-1
 397 356 l 2,33,34
 397 301 397 301 481 254 c 0,35,36
 594 192 594 192 696 192 c 0,37,38
 698 192 698 192 701 192 c 0,39,40
 801 192 801 192 897 247 c 0,41,42
 987 299 987 299 987 346 c 2,43,-1
 987 468 l 1,44,-1
 1189 558 l 1,45,-1
 1187 262 l 2,46,47
 1187 204 1187 204 1049 115 c 0,48,49
 871 0 871 0 703 0 c 0,4,5
EndSplineSet
Validated: 1
EndChar

StartChar: cacute
Encoding: 263 263 201
Width: 1084
GlyphClass: 2
Flags: W
HStem: 0 182<386.27 693.928> 938 182<386.272 691.826>
VStem: 132 194<237.918 882.409> 760 192<240.686 401 694 876.883>
DStem2: 419 1319 549 1193 0.770645 0.637264<19.8886 404.856>
LayerCount: 2
Fore
SplineSet
731 1577 m 1,0,-1
 861 1451 l 1,1,-1
 549 1193 l 1,2,-1
 419 1319 l 1,3,-1
 731 1577 l 1,0,-1
760 401 m 1,4,-1
 952 488 l 1,5,-1
 954 232 l 1,6,-1
 954 231 l 2,7,8
 954 158 954 158 822 82 c 0,9,10
 680 0 680 0 541 0 c 0,11,12
 404 0 404 0 278 74 c 0,13,14
 132 160 132 160 132 237 c 0,15,16
 132 238 132 238 132 240 c 2,17,-1
 130 880 l 2,18,19
 130 957 130 957 280 1044 c 0,20,21
 411 1120 411 1120 541 1120 c 0,22,23
 548 1120 548 1120 554 1120 c 0,24,25
 680 1120 680 1120 820 1038 c 0,26,27
 952 960 952 960 952 888 c 2,28,-1
 952 694 l 1,29,-1
 756 606 l 1,30,-1
 758 826 l 2,31,32
 758 850 758 850 695 892 c 0,33,34
 626 938 626 938 544 938 c 0,35,36
 454 938 454 938 390 897 c 0,37,38
 324 855 324 855 324 828 c 2,39,-1
 326 292 l 2,40,41
 326 264 326 264 392 223 c 128,-1,42
 458 182 458 182 542 182 c 0,43,44
 544 182 544 182 546 182 c 0,45,46
 628 182 628 182 697 228 c 0,47,48
 760 270 760 270 760 294 c 2,49,-1
 760 401 l 1,4,-1
EndSplineSet
Validated: 16385
EndChar

StartChar: Ccircumflex
Encoding: 264 264 202
Width: 1389
GlyphClass: 2
Flags: W
HStem: 0 192<516.044 873.5> 1320 192<519.464 876.147> 1752 234<590 824>
VStem: 200 197<281.07 1230.93> 987 200<277.434 468 1060 1234.57>
LayerCount: 2
Fore
SplineSet
889 1602 m 1,0,-1
 707 1752 l 1,1,-1
 525 1602 l 1,2,-1
 395 1728 l 1,3,-1
 707 1986 l 1,4,-1
 1019 1728 l 1,5,-1
 889 1602 l 1,0,-1
703 0 m 0,6,7
 530 0 530 0 343 112 c 0,8,9
 200 198 200 198 200 262 c 2,10,-1
 200 1250 l 2,11,12
 200 1314 200 1314 343 1400 c 0,13,14
 530 1512 530 1512 697 1512 c 0,15,16
 700 1512 700 1512 703 1512 c 0,17,18
 870 1512 870 1512 1049 1397 c 0,19,20
 1187 1308 1187 1308 1187 1250 c 2,21,-1
 1187 1060 l 1,22,-1
 987 966 l 1,23,-1
 987 1166 l 2,24,25
 987 1213 987 1213 897 1265 c 0,26,27
 802 1320 802 1320 701 1320 c 0,28,29
 698 1320 698 1320 696 1320 c 0,30,31
 594 1320 594 1320 481 1258 c 0,32,33
 397 1211 397 1211 397 1156 c 2,34,-1
 397 356 l 2,35,36
 397 301 397 301 481 254 c 0,37,38
 594 192 594 192 696 192 c 0,39,40
 698 192 698 192 701 192 c 0,41,42
 801 192 801 192 897 247 c 0,43,44
 987 299 987 299 987 346 c 2,45,-1
 987 468 l 1,46,-1
 1189 558 l 1,47,-1
 1187 262 l 2,48,49
 1187 204 1187 204 1049 115 c 0,50,51
 871 0 871 0 703 0 c 0,6,7
EndSplineSet
Validated: 1
EndChar

StartChar: ccircumflex
Encoding: 265 265 203
Width: 1084
GlyphClass: 2
Flags: W
HStem: 0 182<386.27 693.928> 938 182<386.272 691.826> 1344 233<432.5 665.5>
VStem: 132 194<237.918 882.409> 760 192<240.686 401 694 876.883>
LayerCount: 2
Fore
SplineSet
731 1193 m 1,0,-1
 549 1344 l 1,1,-1
 367 1193 l 1,2,-1
 237 1319 l 1,3,-1
 549 1577 l 1,4,-1
 861 1319 l 1,5,-1
 731 1193 l 1,0,-1
760 401 m 1,6,-1
 952 488 l 1,7,-1
 954 232 l 1,8,-1
 954 231 l 2,9,10
 954 158 954 158 822 82 c 0,11,12
 680 0 680 0 541 0 c 0,13,14
 404 0 404 0 278 74 c 0,15,16
 132 160 132 160 132 237 c 0,17,18
 132 238 132 238 132 240 c 2,19,-1
 130 880 l 2,20,21
 130 957 130 957 280 1044 c 0,22,23
 411 1120 411 1120 541 1120 c 0,24,25
 548 1120 548 1120 554 1120 c 0,26,27
 680 1120 680 1120 820 1038 c 0,28,29
 952 960 952 960 952 888 c 2,30,-1
 952 694 l 1,31,-1
 756 606 l 1,32,-1
 758 826 l 2,33,34
 758 850 758 850 695 892 c 0,35,36
 626 938 626 938 544 938 c 0,37,38
 454 938 454 938 390 897 c 0,39,40
 324 855 324 855 324 828 c 2,41,-1
 326 292 l 2,42,43
 326 264 326 264 392 223 c 128,-1,44
 458 182 458 182 542 182 c 0,45,46
 544 182 544 182 546 182 c 0,47,48
 628 182 628 182 697 228 c 0,49,50
 760 270 760 270 760 294 c 2,51,-1
 760 401 l 1,6,-1
EndSplineSet
Validated: 16385
EndChar

StartChar: Cdotaccent
Encoding: 266 266 204
Width: 1389
GlyphClass: 2
Flags: W
HStem: 0 192<516.044 873.5> 1320 192<519.464 876.147> 1647 264<613.191 794.809>
VStem: 200 197<281.07 1230.93> 574 260<1686.71 1871.29> 987 200<277.434 468 1060 1234.57>
LayerCount: 2
Fore
SplineSet
574 1779 m 128,-1,1
 574 1834 574 1834 612 1872.5 c 128,-1,2
 650 1911 650 1911 704 1911 c 128,-1,3
 758 1911 758 1911 796 1872.5 c 128,-1,4
 834 1834 834 1834 834 1779 c 128,-1,5
 834 1724 834 1724 796 1685.5 c 128,-1,6
 758 1647 758 1647 704 1647 c 128,-1,7
 650 1647 650 1647 612 1685.5 c 128,-1,0
 574 1724 574 1724 574 1779 c 128,-1,1
703 0 m 0,8,9
 530 0 530 0 343 112 c 0,10,11
 200 198 200 198 200 262 c 2,12,-1
 200 1250 l 2,13,14
 200 1314 200 1314 343 1400 c 0,15,16
 530 1512 530 1512 697 1512 c 0,17,18
 700 1512 700 1512 703 1512 c 0,19,20
 870 1512 870 1512 1049 1397 c 0,21,22
 1187 1308 1187 1308 1187 1250 c 2,23,-1
 1187 1060 l 1,24,-1
 987 966 l 1,25,-1
 987 1166 l 2,26,27
 987 1213 987 1213 897 1265 c 0,28,29
 802 1320 802 1320 701 1320 c 0,30,31
 698 1320 698 1320 696 1320 c 0,32,33
 594 1320 594 1320 481 1258 c 0,34,35
 397 1211 397 1211 397 1156 c 2,36,-1
 397 356 l 2,37,38
 397 301 397 301 481 254 c 0,39,40
 594 192 594 192 696 192 c 0,41,42
 698 192 698 192 701 192 c 0,43,44
 801 192 801 192 897 247 c 0,45,46
 987 299 987 299 987 346 c 2,47,-1
 987 468 l 1,48,-1
 1189 558 l 1,49,-1
 1187 262 l 2,50,51
 1187 204 1187 204 1049 115 c 0,52,53
 871 0 871 0 703 0 c 0,8,9
EndSplineSet
Validated: 1
EndChar

StartChar: cdotaccent
Encoding: 267 267 205
Width: 1084
GlyphClass: 2
Flags: W
HStem: 0 182<386.27 693.928> 938 182<386.272 691.826> 1250 264<455.191 636.809>
VStem: 132 194<237.918 882.409> 416 260<1289.71 1474.29> 760 192<240.686 401 694 876.883>
LayerCount: 2
Fore
SplineSet
416 1382 m 128,-1,1
 416 1437 416 1437 454 1475.5 c 128,-1,2
 492 1514 492 1514 546 1514 c 128,-1,3
 600 1514 600 1514 638 1475.5 c 128,-1,4
 676 1437 676 1437 676 1382 c 128,-1,5
 676 1327 676 1327 638 1288.5 c 128,-1,6
 600 1250 600 1250 546 1250 c 128,-1,7
 492 1250 492 1250 454 1288.5 c 128,-1,0
 416 1327 416 1327 416 1382 c 128,-1,1
760 401 m 1,8,-1
 952 488 l 1,9,-1
 954 232 l 1,10,-1
 954 231 l 2,11,12
 954 158 954 158 822 82 c 0,13,14
 680 0 680 0 541 0 c 0,15,16
 404 0 404 0 278 74 c 0,17,18
 132 160 132 160 132 237 c 0,19,20
 132 238 132 238 132 240 c 2,21,-1
 130 880 l 2,22,23
 130 957 130 957 280 1044 c 0,24,25
 411 1120 411 1120 541 1120 c 0,26,27
 548 1120 548 1120 554 1120 c 0,28,29
 680 1120 680 1120 820 1038 c 0,30,31
 952 960 952 960 952 888 c 2,32,-1
 952 694 l 1,33,-1
 756 606 l 1,34,-1
 758 826 l 2,35,36
 758 850 758 850 695 892 c 0,37,38
 626 938 626 938 544 938 c 0,39,40
 454 938 454 938 390 897 c 0,41,42
 324 855 324 855 324 828 c 2,43,-1
 326 292 l 2,44,45
 326 264 326 264 392 223 c 128,-1,46
 458 182 458 182 542 182 c 0,47,48
 544 182 544 182 546 182 c 0,49,50
 628 182 628 182 697 228 c 0,51,52
 760 270 760 270 760 294 c 2,53,-1
 760 401 l 1,8,-1
EndSplineSet
Validated: 16385
EndChar

StartChar: Ccaron
Encoding: 268 268 206
Width: 1389
GlyphClass: 2
Flags: W
HStem: 0 192<516.044 873.5> 1320 192<519.464 876.147> 1593 233<587.5 820.5>
VStem: 200 197<281.07 1230.93> 987 200<277.434 468 1060 1234.57>
LayerCount: 2
Fore
SplineSet
886 1977 m 1,0,-1
 1016 1851 l 1,1,-1
 704 1593 l 1,2,-1
 392 1851 l 1,3,-1
 522 1977 l 1,4,-1
 704 1826 l 1,5,-1
 886 1977 l 1,0,-1
703 0 m 0,6,7
 530 0 530 0 343 112 c 0,8,9
 200 198 200 198 200 262 c 2,10,-1
 200 1250 l 2,11,12
 200 1314 200 1314 343 1400 c 0,13,14
 530 1512 530 1512 697 1512 c 0,15,16
 700 1512 700 1512 703 1512 c 0,17,18
 870 1512 870 1512 1049 1397 c 0,19,20
 1187 1308 1187 1308 1187 1250 c 2,21,-1
 1187 1060 l 1,22,-1
 987 966 l 1,23,-1
 987 1166 l 2,24,25
 987 1213 987 1213 897 1265 c 0,26,27
 802 1320 802 1320 701 1320 c 0,28,29
 698 1320 698 1320 696 1320 c 0,30,31
 594 1320 594 1320 481 1258 c 0,32,33
 397 1211 397 1211 397 1156 c 2,34,-1
 397 356 l 2,35,36
 397 301 397 301 481 254 c 0,37,38
 594 192 594 192 696 192 c 0,39,40
 698 192 698 192 701 192 c 0,41,42
 801 192 801 192 897 247 c 0,43,44
 987 299 987 299 987 346 c 2,45,-1
 987 468 l 1,46,-1
 1189 558 l 1,47,-1
 1187 262 l 2,48,49
 1187 204 1187 204 1049 115 c 0,50,51
 871 0 871 0 703 0 c 0,6,7
EndSplineSet
Validated: 1
EndChar

StartChar: ccaron
Encoding: 269 269 207
Width: 1084
GlyphClass: 2
Flags: W
HStem: 0 182<386.27 693.928> 938 182<386.272 691.826> 1193 233<432.5 665.5>
VStem: 132 194<237.918 882.409> 760 192<240.686 401 694 876.883>
LayerCount: 2
Fore
SplineSet
731 1577 m 1,0,-1
 861 1451 l 1,1,-1
 549 1193 l 1,2,-1
 237 1451 l 1,3,-1
 367 1577 l 1,4,-1
 549 1426 l 1,5,-1
 731 1577 l 1,0,-1
760 401 m 1,6,-1
 952 488 l 1,7,-1
 954 232 l 1,8,-1
 954 231 l 2,9,10
 954 158 954 158 822 82 c 0,11,12
 680 0 680 0 541 0 c 0,13,14
 404 0 404 0 278 74 c 0,15,16
 132 160 132 160 132 237 c 0,17,18
 132 238 132 238 132 240 c 2,19,-1
 130 880 l 2,20,21
 130 957 130 957 280 1044 c 0,22,23
 411 1120 411 1120 541 1120 c 0,24,25
 548 1120 548 1120 554 1120 c 0,26,27
 680 1120 680 1120 820 1038 c 0,28,29
 952 960 952 960 952 888 c 2,30,-1
 952 694 l 1,31,-1
 756 606 l 1,32,-1
 758 826 l 2,33,34
 758 850 758 850 695 892 c 0,35,36
 626 938 626 938 544 938 c 0,37,38
 454 938 454 938 390 897 c 0,39,40
 324 855 324 855 324 828 c 2,41,-1
 326 292 l 2,42,43
 326 264 326 264 392 223 c 128,-1,44
 458 182 458 182 542 182 c 0,45,46
 544 182 544 182 546 182 c 0,47,48
 628 182 628 182 697 228 c 0,49,50
 760 270 760 270 760 294 c 2,51,-1
 760 401 l 1,6,-1
EndSplineSet
Validated: 16385
EndChar

StartChar: Dcaron
Encoding: 270 270 208
Width: 1399
GlyphClass: 2
Flags: W
HStem: 21 189<396 882.94> 1298 193<398 878.863> 1593 233<587.5 820.5>
VStem: 200 196<210 1298> 994 205<295.434 1217.57>
LayerCount: 2
Fore
SplineSet
886 1977 m 1,0,-1
 1016 1851 l 1,1,-1
 704 1593 l 1,2,-1
 392 1851 l 1,3,-1
 522 1977 l 1,4,-1
 704 1826 l 1,5,-1
 886 1977 l 1,0,-1
707 210 m 2,6,7
 808 210 808 210 904 265 c 0,8,9
 994 317 994 317 994 364 c 2,10,-1
 993 1145 l 2,11,12
 993 1205 993 1205 903 1244 c 0,13,14
 773 1299 773 1299 707 1299 c 2,15,-1
 396 1298 l 1,16,-1
 396 210 l 1,17,-1
 707 210 l 2,6,7
398 1491 m 1,18,-1
 715 1491 l 2,19,20
 881 1491 881 1491 1060 1374 c 0,21,22
 1198 1284 1198 1284 1198 1227 c 2,23,-1
 1199 283 l 2,24,25
 1199 229 1199 229 1061 136 c 0,26,27
 890 21 890 21 772 21 c 2,28,-1
 714 21 l 1,29,-1
 200 20 l 1,30,-1
 200 1403 l 1,31,-1
 398 1491 l 1,18,-1
EndSplineSet
Validated: 1
EndChar

StartChar: dcaron
Encoding: 271 271 209
Width: 1349
GlyphClass: 2
Flags: W
HStem: 0 182<389.576 697.73> 938 182<391.676 699.227> 1494 17G<910 954.953 1163.49 1230.97>
VStem: 130 194<240.686 876.883> 758 194<237.918 884.241 1069 1423>
DStem2: 999 1148 1170 1089 0.429359 0.903134<20.1354 405.255>
LayerCount: 2
Fore
SplineSet
1173 1514 m 1,0,-1
 1344 1455 l 1,1,-1
 1170 1089 l 1,2,-1
 999 1148 l 1,3,-1
 1173 1514 l 1,0,-1
955 1511 m 1,4,-1
 952 240 l 1,5,-1
 952 237 l 2,6,7
 952 160 952 160 806 74 c 0,8,9
 680 0 680 0 543 0 c 0,10,11
 403 0 403 0 262 82 c 0,12,13
 130 159 130 159 130 232 c 1,14,15
 132 232 132 232 132 888 c 0,16,17
 132 960 132 960 264 1038 c 0,18,19
 403 1120 403 1120 530 1120 c 2,20,-1
 543 1120 l 2,21,22
 649 1120 649 1120 756 1069 c 1,23,-1
 757 1423 l 1,24,-1
 955 1511 l 1,4,-1
540 938 m 0,25,26
 458 938 458 938 389 892 c 0,27,28
 326 850 326 850 326 826 c 2,29,-1
 324 294 l 2,30,31
 324 270 324 270 387 228 c 0,32,33
 456 182 456 182 538 182 c 2,34,-1
 542 182 l 2,35,36
 626 182 626 182 692 223 c 128,-1,37
 758 264 758 264 758 292 c 2,38,-1
 760 828 l 2,39,40
 760 855 760 855 694 897 c 0,41,42
 630 938 630 938 540 938 c 0,25,26
EndSplineSet
Validated: 16385
EndChar

